<svg width="26" height="26" viewBox="0 0 26 26" fill="none" xmlns="http://www.w3.org/2000/svg">
<path fill-rule="evenodd" clip-rule="evenodd" d="M5.83676 6.8388L4.23211 2.29909H1.01668C0.747041 2.29909 0.488444 2.19821 0.297779 2.01864C0.107114 1.83906 0 1.59551 0 1.34156C0 1.08761 0.107114 0.844058 0.297779 0.664487C0.488444 0.484915 0.747041 0.384033 1.01668 0.384033H4.96819C5.1816 0.384052 5.38959 0.447318 5.5627 0.564867C5.7358 0.682417 5.86524 0.848289 5.93268 1.03898L7.64549 5.88396H25.004C25.1536 5.88366 25.3014 5.91584 25.4363 5.9781C25.5712 6.04037 25.6897 6.1311 25.783 6.24355C25.8763 6.35599 25.942 6.48724 25.9752 6.62751C26.0084 6.76778 26.0083 6.91344 25.9747 7.05364L23.6821 16.6405C23.6321 16.8516 23.5091 17.0401 23.3331 17.1752C23.1571 17.3103 22.9386 17.3839 22.7134 17.3839H9.12137C8.89584 17.3843 8.67689 17.3109 8.50049 17.1758C8.32409 17.0407 8.20072 16.8519 8.15065 16.6405L5.86201 7.05364C5.84511 6.98295 5.8367 6.91088 5.83676 6.8388ZM21.9222 15.4727H9.91252L8.07843 7.79712H23.7557L21.9222 15.4727ZM9.07926 24.7942C9.69008 25.1788 10.4082 25.384 11.1428 25.384C12.1276 25.3831 13.0717 25.014 13.7681 24.3578C14.4644 23.7017 14.8561 22.812 14.8571 21.884C14.8571 21.1918 14.6393 20.5151 14.2311 19.9395C13.823 19.364 13.2429 18.9154 12.5642 18.6505C11.8855 18.3856 11.1387 18.3162 10.4182 18.4513C9.69769 18.5863 9.03587 18.9197 8.51642 19.4092C7.99696 19.8986 7.64321 20.5223 7.4999 21.2012C7.35658 21.8802 7.43014 22.5839 7.71126 23.2234C7.99239 23.863 8.46845 24.4096 9.07926 24.7942ZM10.1562 20.4934C10.4482 20.3095 10.7916 20.2114 11.1428 20.2114C11.6135 20.2117 12.0649 20.388 12.3978 20.7016C12.7307 21.0152 12.918 21.4405 12.9185 21.884C12.9187 22.215 12.8146 22.5386 12.6196 22.8138C12.4245 23.0891 12.1473 23.3036 11.8228 23.4304C11.4983 23.5571 11.1413 23.5903 10.7968 23.5258C10.4523 23.4613 10.1358 23.302 9.88741 23.068C9.63901 22.8341 9.46982 22.5359 9.40126 22.2113C9.33269 21.8867 9.36781 21.5502 9.5022 21.2444C9.63658 20.9387 9.86417 20.6773 10.1562 20.4934ZM20.6939 25.384C19.9592 25.384 19.2411 25.1788 18.6303 24.7942C18.0195 24.4096 17.5434 23.863 17.2623 23.2234C16.9812 22.5839 16.9076 21.8802 17.051 21.2012C17.1943 20.5223 17.548 19.8986 18.0675 19.4092C18.5869 18.9197 19.2487 18.5863 19.9692 18.4513C20.6897 18.3162 21.4366 18.3856 22.1153 18.6505C22.794 18.9154 23.374 19.364 23.7822 19.9395C24.1903 20.5151 24.4081 21.1918 24.4081 21.884C24.4071 22.812 24.0155 23.7017 23.3191 24.3578C22.6228 25.014 21.6786 25.3831 20.6939 25.384ZM20.6939 20.2114C20.3426 20.2114 19.9993 20.3095 19.7073 20.4934C19.4152 20.6773 19.1876 20.9387 19.0532 21.2444C18.9189 21.5502 18.8837 21.8867 18.9523 22.2113C19.0209 22.5359 19.1901 22.8341 19.4385 23.068C19.6869 23.302 20.0033 23.4613 20.3478 23.5258C20.6923 23.5903 21.0494 23.5571 21.3738 23.4304C21.6983 23.3036 21.9756 23.0891 22.1706 22.8138C22.3657 22.5386 22.4697 22.215 22.4696 21.884C22.4691 21.4405 22.2818 21.0152 21.9489 20.7016C21.616 20.388 21.1646 20.2117 20.6939 20.2114Z" fill="#3C4CDB"/>
<path fill-rule="evenodd" clip-rule="evenodd" d="M11.8696 6.80509C11.9137 6.95009 11.8308 7.10302 11.6845 7.14666C10.1588 7.60193 9.04005 8.85813 8.12308 10.1623C8.16047 10.1789 8.1947 10.204 8.22266 10.2373C8.32034 10.3537 8.30433 10.5266 8.18688 10.6234C8.09386 10.7001 7.9895 10.7853 7.89358 10.8577C7.80549 10.9242 7.69921 10.9998 7.6093 11.0383C7.58481 11.0488 7.54906 11.0621 7.50709 11.0687C7.46967 11.0745 7.38898 11.0812 7.30529 11.035C7.20637 10.9804 7.16568 10.8883 7.15523 10.8172C7.14623 10.7559 7.1572 10.7032 7.16526 10.6729C7.18205 10.6097 7.21445 10.5436 7.24888 10.4818C7.28567 10.4159 7.33494 10.3372 7.39714 10.2448C8.36321 8.80927 9.64248 7.18333 11.525 6.62157C11.6713 6.57792 11.8256 6.66009 11.8696 6.80509Z" fill="#3C4CDB"/>
<path fill-rule="evenodd" clip-rule="evenodd" d="M13.847 6.47876C12.9329 7.19506 12.0361 7.92488 11.2368 8.73119C11.237 8.73804 11.237 8.7445 11.2367 8.75049C11.2346 8.80164 11.2186 8.83981 11.212 8.85462C11.1973 8.88764 11.1787 8.91285 11.1708 8.9234C11.1366 8.96889 11.0793 9.02629 11.0291 9.07452C10.9205 9.17896 10.7675 9.31346 10.6684 9.38963C10.6442 9.40821 10.616 9.4289 10.5893 9.44516C10.5784 9.45182 10.5532 9.46686 10.5214 9.47815C10.5076 9.48306 10.4702 9.49563 10.4212 9.49533C10.4112 9.49527 10.3989 9.49454 10.3852 9.49262C10.3753 9.50036 10.3654 9.5082 10.3553 9.51615C10.2101 9.63077 10.0281 9.79791 9.81367 9.99605C9.80472 10.0043 9.79573 10.0126 9.78669 10.021C9.58263 10.2096 9.35486 10.4201 9.11964 10.62C8.87438 10.8285 8.61445 11.0311 8.3561 11.1902C8.10119 11.3472 7.82738 11.4746 7.55663 11.5102C7.46948 11.5217 7.372 11.5023 7.29156 11.4351C7.22056 11.3758 7.18924 11.3009 7.17441 11.2501C7.1458 11.152 7.14952 11.0407 7.15794 10.9515C7.17593 10.7608 7.23309 10.5165 7.29574 10.2875C7.41812 9.84013 7.59733 9.33359 7.58805 9.36443C7.62994 9.22521 7.70544 9.05592 7.77597 8.8995C7.78221 8.88566 7.78844 8.87185 7.79466 8.85809C7.86238 8.7081 7.9277 8.56341 7.97622 8.43235C8.00627 8.35114 8.0241 8.28952 8.03385 8.24515C7.92745 8.21084 7.84844 8.11407 7.84308 7.99673C7.83617 7.84546 7.95428 7.71728 8.10688 7.71043C8.21217 7.70571 8.33642 7.72468 8.43989 7.80924C8.54546 7.89552 8.58325 8.01211 8.59347 8.10623C8.61182 8.27521 8.55205 8.46858 8.49555 8.62123C8.44003 8.77125 8.3667 8.93357 8.3007 9.07965C8.29405 9.09437 8.28748 9.10891 8.28101 9.12327C8.20652 9.28847 8.14768 9.42307 8.11817 9.52115C8.1161 9.52805 8.10922 9.54779 8.0986 9.57829C8.05178 9.71275 7.93214 10.0563 7.82966 10.431C7.78174 10.6062 7.74306 10.7701 7.72206 10.9007C7.82596 10.8596 7.94033 10.8007 8.06421 10.7244C8.28825 10.5865 8.52391 10.404 8.75956 10.2037C8.98582 10.0114 9.20604 9.80788 9.41193 9.61761C9.42013 9.61003 9.42832 9.60246 9.43648 9.59492C9.64581 9.4015 9.84507 9.21792 10.0108 9.08715C10.2095 8.93033 10.3639 8.81113 10.4819 8.72272C11.4216 7.70795 12.5104 6.82537 13.5899 5.98128C13.6927 5.90086 13.8103 5.91142 13.8464 5.91525C13.8996 5.9209 13.9518 5.93529 13.9943 5.94909C14.0813 5.97733 14.1802 6.02067 14.2684 6.06152C14.3227 6.08666 14.3813 6.11488 14.4338 6.1401C14.4648 6.15505 14.4937 6.16894 14.5182 6.18051C14.5539 6.19741 14.5825 6.21048 14.6043 6.21965C14.6151 6.22423 14.6216 6.22665 14.6245 6.22772C14.6552 6.23424 14.6912 6.24363 14.726 6.25837L14.7261 6.25844C14.7492 6.26821 14.8461 6.30923 14.8944 6.418C14.9618 6.56998 14.8779 6.69183 14.8385 6.73415C14.8002 6.77537 14.7564 6.80002 14.7346 6.81162C14.6852 6.83797 14.6236 6.861 14.5708 6.87969C14.531 6.89378 14.4852 6.90915 14.439 6.92468C14.4205 6.9309 14.4019 6.93714 14.3836 6.94333C14.2486 6.98899 14.1118 7.03785 14.0001 7.09318C13.9447 7.12061 13.9028 7.14612 13.8738 7.16867C13.8494 7.18753 13.8419 7.19825 13.8414 7.19886C13.5646 7.74798 13.2832 8.28428 13.003 8.81831C12.7437 9.31253 12.4855 9.80481 12.2327 10.3035C13.019 9.60723 13.8215 8.93405 14.6425 8.26635C15.3037 7.72869 15.8279 7.45232 16.3541 7.19658C16.4195 7.16478 16.4847 7.13339 16.5501 7.10192C16.8057 6.97896 17.0638 6.85477 17.3447 6.70045C17.3772 6.67768 17.4104 6.65532 17.4418 6.63444C17.5512 6.56173 17.6799 6.481 17.7949 6.41093C17.9093 6.34123 18.0141 6.27962 18.0755 6.24569C18.0907 6.23731 18.1061 6.229 18.1195 6.22232C18.1255 6.21937 18.136 6.21423 18.148 6.20933C18.1531 6.20724 18.1661 6.20205 18.1829 6.19751C18.1909 6.19535 18.2076 6.19112 18.2292 6.18898L18.2296 6.18894C18.2429 6.18762 18.3016 6.18179 18.3682 6.21072C18.408 6.22799 18.4565 6.26046 18.492 6.31681C18.5276 6.37335 18.5358 6.43133 18.5336 6.47532C18.5301 6.5487 18.4976 6.59891 18.4903 6.61017L18.49 6.61056C18.4707 6.6404 18.4494 6.66009 18.4451 6.66397L18.4447 6.66436C18.4316 6.67657 18.4189 6.68603 18.414 6.68969C18.4009 6.69942 18.3845 6.71059 18.3674 6.72202C18.1056 6.89656 17.8658 7.04006 17.6416 7.16415C17.6347 7.16912 17.6281 7.17392 17.6218 7.17853C17.5919 7.20051 17.578 7.21237 17.5743 7.21557C17.5733 7.21645 17.573 7.21667 17.5734 7.21627C16.5826 8.25309 15.6261 9.31603 14.6655 10.3836C14.5661 10.4941 14.4665 10.6047 14.367 10.7153C14.2989 10.7909 14.2308 10.8666 14.1627 10.9423C14.0026 11.1202 13.8423 11.2984 13.6815 11.4763C14.1579 11.2066 14.6335 10.9326 15.1098 10.6576C15.1654 10.6255 15.221 10.5934 15.2766 10.5613C16.2056 10.0249 17.1382 9.48641 18.0802 8.97492C19.595 8.15241 20.5676 7.62474 21.1692 7.29893C21.682 6.98795 22.2072 6.69416 22.7478 6.42247C22.8035 6.39449 22.8606 6.36516 22.9189 6.33521C23.1052 6.23955 23.3036 6.13762 23.5068 6.05338C23.516 6.04955 23.5281 6.04471 23.5406 6.04046C23.5464 6.03848 23.5575 6.03484 23.5712 6.03162C23.578 6.03002 23.5898 6.02749 23.6045 6.02579C23.6155 6.02453 23.6475 6.02119 23.6874 6.02845C23.7201 6.0344 23.8341 6.06237 23.8901 6.18587C23.9429 6.30208 23.8961 6.4004 23.8843 6.42335C23.8677 6.45573 23.8483 6.47717 23.8412 6.48494C23.8318 6.49505 23.8235 6.50257 23.8184 6.50695C23.8018 6.52137 23.7855 6.53207 23.7803 6.53547L23.78 6.53566C23.7537 6.55293 23.7106 6.57738 23.6717 6.59904C23.5999 6.63907 23.5072 6.689 23.4481 6.72082C23.4381 6.72623 23.429 6.73112 23.4212 6.73534C22.7282 7.10923 22.2525 7.36517 21.938 7.53366C21.9473 7.54394 21.956 7.55507 21.964 7.567C22.0479 7.6935 22.0126 7.86352 21.885 7.94677C21.0106 8.51716 20.034 9.06657 19.0484 9.62106C18.6675 9.83533 18.2853 10.0504 17.9071 10.2676C17.2964 10.7448 16.6922 11.2328 16.087 11.7218C15.6372 12.0851 15.1869 12.4489 14.7328 12.809C14.7026 12.833 14.6693 12.8595 14.6333 12.888C14.3141 13.1415 13.7878 13.5595 13.371 13.8703C13.1446 14.039 12.9326 14.1899 12.8038 14.2599C12.7736 14.2764 12.7279 14.2997 12.6791 14.3128C12.6589 14.3182 12.6021 14.3325 12.5336 14.3186C12.4946 14.3108 12.4432 14.292 12.3965 14.2496C12.3482 14.2056 12.3219 14.1516 12.3108 14.102C12.2919 14.0175 12.3171 13.9492 12.3251 13.9284C12.3366 13.8984 12.3511 13.873 12.3624 13.8549C12.3854 13.8178 12.416 13.7781 12.4491 13.7382C13.3907 12.602 14.6099 11.6657 15.9114 10.8295C15.7921 10.8983 15.6728 10.9671 15.5534 11.0361C15.4983 11.0679 15.4433 11.0997 15.3882 11.1315C14.4033 11.7 13.4137 12.2692 12.4113 12.8049C12.3862 12.8183 12.3575 12.8326 12.3288 12.8435C12.3147 12.8487 12.2927 12.8563 12.2662 12.8613C12.248 12.8647 12.1856 12.8757 12.1131 12.85C12.071 12.8351 12.0226 12.8066 11.9842 12.7569C11.946 12.7075 11.9311 12.6545 11.9273 12.612C11.9206 12.5385 11.9452 12.4829 11.9526 12.4667C11.9712 12.4258 11.997 12.3935 12.0085 12.3794C12.0608 12.315 12.1615 12.2192 12.2598 12.1278C12.319 12.0726 12.3817 12.0152 12.4438 11.9582C12.6098 11.8059 12.7722 11.657 12.8573 11.5639C13.1563 11.2371 13.4523 10.908 13.7492 10.578C13.8175 10.5021 13.8858 10.4261 13.9542 10.3501C14.0539 10.2395 14.1535 10.1287 14.2532 10.018C14.8887 9.3117 15.5253 8.60432 16.1722 7.90411C15.8089 8.09806 15.4355 8.33081 14.9934 8.6903C13.854 9.61686 12.7547 10.5508 11.6867 11.5406C11.671 11.5552 11.6467 11.5762 11.6157 11.5943C11.5963 11.6057 11.5149 11.6528 11.4066 11.6314C11.2588 11.6023 11.2013 11.4834 11.1856 11.4228C11.1717 11.3692 11.1763 11.3229 11.1785 11.3042C11.1871 11.2303 11.2219 11.1399 11.246 11.08C11.3034 10.9376 11.3894 10.7589 11.4321 10.6717C11.6618 10.2027 11.9025 9.73314 12.1465 9.26448C12.1379 9.27336 12.1293 9.28224 12.1208 9.29111C11.7147 9.71217 11.3154 10.1262 10.9432 10.5611C10.8745 10.6413 10.78 10.7823 10.6714 10.9566C10.6055 11.0622 10.5401 11.1709 10.4758 11.2776C10.4348 11.3458 10.3942 11.4132 10.3542 11.4785C10.2603 11.6323 10.1607 11.7908 10.0846 11.8758C10.0662 11.8963 10.0316 11.933 9.98482 11.9611C9.9613 11.9752 9.91461 11.9995 9.85128 12.0047C9.77646 12.0108 9.69416 11.9883 9.62954 11.9283C9.57437 11.8771 9.55346 11.8182 9.54498 11.7866C9.53583 11.7524 9.5337 11.7217 9.53326 11.7007C9.53237 11.6584 9.53777 11.6153 9.54406 11.5777C9.63638 11.0267 10.0359 10.4912 10.4416 10.0372C10.6493 9.80462 10.8704 9.58125 11.0732 9.3771L11.0956 9.35457C11.292 9.15686 11.4673 8.98035 11.6057 8.82329C11.6317 8.79385 11.6593 8.76469 11.6869 8.73677C11.6419 8.69307 11.6117 8.634 11.6052 8.567C11.5908 8.41625 11.7023 8.28243 11.8544 8.2681C11.9332 8.26068 12.0045 8.25749 12.0667 8.2606C12.1223 8.26339 12.2005 8.27219 12.2732 8.30946C12.2783 8.31209 12.2836 8.31494 12.2889 8.31802C12.5278 8.06366 12.7606 7.8071 12.9827 7.5424C13.0114 7.5082 13.0467 7.48269 13.0852 7.46615C13.1737 7.2944 13.2612 7.12306 13.3473 6.9522C13.4354 6.77743 13.619 6.66892 13.7529 6.60263C13.8147 6.572 13.8801 6.54388 13.945 6.51821C13.9085 6.5024 13.8755 6.48904 13.847 6.47876ZM14.4725 6.32873C14.4722 6.3289 14.4718 6.32907 14.4715 6.32926C14.4741 6.32769 14.4747 6.32755 14.4725 6.32873ZM9.66932 11.5134C9.66798 11.5149 9.66733 11.5155 9.66735 11.5154C9.66736 11.5154 9.66802 11.5147 9.66932 11.5134ZM12.437 12.7263C12.437 12.7263 12.4375 12.7256 12.4389 12.7238C12.4378 12.7254 12.4371 12.7262 12.437 12.7263ZM18.0821 6.25095C18.0821 6.25095 18.0821 6.25095 18.0821 6.25096L18.0821 6.25095Z" fill="#3C4CDB"/>
<path fill-rule="evenodd" clip-rule="evenodd" d="M24.4635 6.66897C24.5081 6.81383 24.4257 6.96703 24.2795 7.01115C22.7379 7.47662 21.2897 8.04585 19.8756 8.68161C19.338 9.22608 18.834 9.81734 18.3318 10.4066C18.1109 10.6657 17.8904 10.9245 17.6675 11.1787C17.4413 11.4366 17.215 11.6944 16.9888 11.9521C16.1252 12.9358 15.2622 13.9189 14.4074 14.9075C16.3921 13.5263 18.4771 12.2642 20.5774 11.0477C21.3289 10.3206 22.0269 9.66469 22.5157 9.22705C22.6291 9.12556 22.804 9.13439 22.9064 9.24678C23.0088 9.35916 22.9999 9.53254 22.8865 9.63403C22.8015 9.71009 22.7101 9.79291 22.613 9.88168C22.8519 9.74584 23.0907 9.61028 23.3292 9.47489C23.8126 9.2005 24.3023 8.92511 24.8048 8.66915C24.9195 8.61075 25.0111 8.56755 25.0819 8.53884C25.117 8.52459 25.1522 8.51178 25.1856 8.5026C25.2103 8.49579 25.2673 8.48096 25.3323 8.48833C25.367 8.49228 25.4329 8.50571 25.4935 8.55861C25.5628 8.61913 25.589 8.69909 25.5905 8.76595C25.5918 8.82345 25.5755 8.86807 25.5659 8.89052C25.5551 8.91564 25.5427 8.93598 25.5333 8.95001C25.5 8.9997 25.4513 9.04834 25.4136 9.0842C25.3084 9.18417 25.1236 9.33403 24.9857 9.44582C24.9222 9.49728 24.8687 9.54067 24.8375 9.56742C24.2875 10.0385 23.7355 10.5228 23.1789 11.011C21.291 12.6671 19.3509 14.3691 17.2635 15.7586C17.1143 15.8579 16.9897 15.9333 16.89 15.9831C16.8405 16.0078 16.7898 16.03 16.7406 16.0448C16.7006 16.0569 16.6207 16.0775 16.5322 16.0566C16.481 16.0446 16.4214 16.0172 16.3725 15.963C16.3241 15.9092 16.3038 15.8484 16.2971 15.7991C16.2854 15.7132 16.3113 15.6391 16.3257 15.6025C16.3587 15.5187 16.4188 15.4247 16.4841 15.3335C16.7512 14.9598 17.3436 14.3081 18.0564 13.5669C18.3439 13.268 18.6536 12.9519 18.9733 12.63C17.1954 13.6972 15.4529 14.8107 13.7948 16.0185C13.6017 16.1591 13.4196 16.3091 13.2302 16.4649C13.1708 16.5138 13.1107 16.5633 13.0493 16.6132C13.0503 16.6124 13.0406 16.6211 13.0148 16.6566C13.0101 16.6631 13.0032 16.6729 12.995 16.6844C12.9758 16.7118 12.9496 16.749 12.929 16.7755C12.8982 16.815 12.8429 16.8819 12.7633 16.927C12.6638 16.9834 12.5321 17.0012 12.4034 16.9339C12.3509 16.9064 12.2768 16.8515 12.2422 16.7522C12.2072 16.6521 12.2321 16.5641 12.2559 16.5127C12.296 16.4258 12.3704 16.3621 12.4034 16.3339C12.4342 16.3078 12.4719 16.2788 12.502 16.2556C12.5122 16.2477 12.5215 16.2406 12.5294 16.2344C12.5476 16.2202 12.5618 16.2087 12.5729 16.1989C12.5833 16.1898 12.5872 16.1856 12.5872 16.1856C12.5872 16.1856 12.5871 16.1857 12.587 16.1859C13.8964 14.6394 15.2354 13.1141 16.5719 11.5916C16.7981 11.334 17.0242 11.0764 17.25 10.8189C17.4613 10.578 17.6742 10.3281 17.8903 10.0744C17.8921 10.0723 17.8939 10.0702 17.8957 10.0681C17.4895 10.388 17.123 10.676 16.8639 10.8774C16.5944 11.0868 16.3229 11.2955 16.051 11.5046C14.6725 12.5644 13.2826 13.6331 12.0885 14.8426C12.0201 14.9345 11.9534 15.0284 11.8847 15.1251C11.8315 15.2 11.7771 15.2765 11.7199 15.355C11.5387 15.6037 11.3371 15.8595 11.0852 16.0811C11.0685 16.0958 11.0477 16.1132 11.0252 16.1283C11.0144 16.1356 10.996 16.1472 10.9727 16.1576C10.9577 16.1642 10.8993 16.19 10.8222 16.1813C10.7768 16.1762 10.7212 16.1586 10.6713 16.1163C10.6219 16.0743 10.5966 16.0236 10.5846 15.9829C10.5641 15.9129 10.5773 15.8547 10.5808 15.8393C10.5902 15.7983 10.6073 15.7649 10.614 15.752C10.6456 15.6909 10.7075 15.6018 10.7674 15.5196C10.894 15.3456 11.0745 15.1176 11.1784 15.0028C11.3371 14.8276 11.5001 14.6554 11.6667 14.486C11.7162 14.4201 11.7668 14.355 11.8185 14.2918C12.5564 13.3904 13.2998 12.4891 14.0579 11.5978C13.7293 11.7706 13.4002 11.9472 13.0699 12.1244C12.2484 12.5653 11.4194 13.0102 10.5712 13.4105C10.3315 13.5236 10.0722 13.6394 9.83963 13.7309C9.61697 13.8185 9.3888 13.8962 9.22466 13.9143C9.18137 13.9191 9.12773 13.9216 9.07255 13.9128C9.02077 13.9045 8.93126 13.8802 8.86157 13.8C8.78352 13.7102 8.77608 13.6047 8.78906 13.5298C8.80088 13.4618 8.83078 13.404 8.85661 13.3622C8.90941 13.2768 8.99334 13.1825 9.0976 13.0804C9.20504 12.9753 9.3467 12.8498 9.5263 12.7014C10.9998 11.4841 12.7204 10.512 14.3859 9.57101C14.7348 9.37386 15.0813 9.17808 15.4227 8.9817C15.6367 8.85857 15.8363 8.72618 16.044 8.58842C16.1637 8.50906 16.2861 8.42791 16.4154 8.34573C16.7572 8.12856 17.1262 7.91962 17.5416 7.78912C17.5776 7.77783 17.6199 7.76659 17.6632 7.76197L17.6633 7.76196C17.6895 7.75917 17.7936 7.74806 17.8895 7.81673C17.9485 7.85897 17.9885 7.92049 18.0037 7.98916C18.0174 8.05034 18.0082 8.10207 17.9999 8.13281C17.9842 8.19075 17.9541 8.23569 17.9379 8.25839C17.8724 8.35056 17.7416 8.47126 17.6202 8.57921C17.5293 8.66005 17.4328 8.7431 17.3392 8.82374C17.1487 8.98782 16.9697 9.14198 16.8719 9.2475C16.7157 9.41612 16.5603 9.58553 16.4057 9.75566C17.2876 9.30359 18.1685 8.86491 19.0622 8.44969C19.141 8.3878 19.2184 8.32712 19.2938 8.26804C19.7556 7.90631 20.1457 7.60334 20.3467 7.4546C20.3962 7.41792 20.4388 7.38724 20.4692 7.36708L20.47 7.36661C20.4803 7.35976 20.5067 7.34228 20.5354 7.32959C20.5433 7.32609 20.5639 7.31723 20.5913 7.31122C20.605 7.30821 20.6306 7.30357 20.663 7.30485C20.6937 7.30606 20.7535 7.31352 20.8132 7.35572C20.9401 7.44536 20.9343 7.57483 20.9242 7.63144C21.9544 7.20681 23.0126 6.82044 24.1184 6.48658C24.2645 6.44246 24.419 6.52412 24.4635 6.66897ZM20.4427 7.4036C20.4428 7.40356 20.4421 7.4044 20.4403 7.40624C20.4418 7.40456 20.4427 7.40364 20.4427 7.4036ZM17.0121 10.063C16.471 10.3381 15.929 10.6193 15.3827 10.9046C15.0148 11.3255 14.6508 11.7497 14.2898 12.1765C14.7652 11.7988 15.245 11.4301 15.7191 11.0656C15.9894 10.8579 16.2578 10.6516 16.5225 10.4458C16.6594 10.3395 16.8258 10.2092 17.0121 10.063ZM15.033 10.4674C15.4314 10.0125 15.8348 9.56143 16.2443 9.11536C16.0658 9.23293 15.8828 9.35099 15.7004 9.45596C15.3506 9.65722 14.9983 9.85633 14.6458 10.0555C12.9839 10.9949 11.3176 11.9367 9.88682 13.1174C10.0338 13.0542 10.1863 12.9848 10.3334 12.9154C11.1685 12.5213 11.9761 12.0878 12.791 11.6504C13.1668 11.4487 13.5441 11.2462 13.9263 11.0464C14.0934 10.959 14.2599 10.8719 14.4261 10.7849C14.6289 10.6787 14.8311 10.5728 15.033 10.4674ZM9.32463 13.6552C9.32461 13.6552 9.32483 13.6547 9.32538 13.6537C9.32493 13.6547 9.32466 13.6552 9.32463 13.6552ZM17.4858 7.94249C17.4856 7.94271 17.4855 7.94292 17.4853 7.94314C17.4872 7.94011 17.4877 7.93978 17.4858 7.94249ZM11.1064 16.0019C11.1066 16.0015 11.1068 16.0012 11.107 16.0008C11.1056 16.0037 11.1052 16.0042 11.1064 16.0019ZM20.9152 11.4873C20.0875 12.2891 19.1981 13.1745 18.4568 13.9453C18.1335 14.2814 17.8416 14.5925 17.5964 14.8636C19.4076 13.5864 21.1086 12.0945 22.794 10.6161C23.0163 10.4211 23.2384 10.2264 23.4604 10.0324C22.6115 10.5143 21.7614 10.9976 20.9152 11.4873ZM25.3335 9.03098C25.338 9.02974 25.3373 9.03028 25.3325 9.03128C25.3329 9.03117 25.3332 9.03107 25.3335 9.03098ZM16.5796 15.5202C16.5741 15.5218 16.5748 15.5211 16.5802 15.52C16.58 15.5201 16.5798 15.5201 16.5796 15.5202ZM16.8413 15.8012C16.8398 15.806 16.8391 15.8066 16.8409 15.802C16.8411 15.8017 16.8412 15.8015 16.8413 15.8012Z" fill="#3C4CDB"/>
<path fill-rule="evenodd" clip-rule="evenodd" d="M24.4569 8.20224C24.5122 8.3434 24.4416 8.50227 24.2992 8.55707C23.5999 8.82619 22.9008 9.09888 22.2009 9.37184C21.9531 9.46848 21.7052 9.56515 21.4573 9.66171C21.452 9.69356 21.4441 9.72265 21.4359 9.74762C21.4085 9.831 21.3627 9.91617 21.3166 9.9915C21.2225 10.1451 21.0927 10.3132 20.9865 10.4446C20.9325 10.5114 20.8827 10.5711 20.8445 10.6168L20.8427 10.619C20.8242 10.6412 20.809 10.6594 20.7971 10.6739C20.7909 10.6813 20.7862 10.6872 20.7827 10.6916C20.7796 10.6955 20.7784 10.6971 20.7784 10.6971C20.4958 11.0849 20.2118 11.4715 19.9255 11.8573C20.1895 11.6434 20.4566 11.433 20.7277 11.2278C20.7751 11.192 20.8141 11.1634 20.8442 11.1426C20.859 11.1324 20.8747 11.122 20.8899 11.1129C20.8901 11.1128 20.8903 11.1127 20.8907 11.1124C20.8972 11.1085 20.9365 11.0843 20.9857 11.073C21.0014 11.0694 21.0375 11.0622 21.0832 11.0676C21.1324 11.0734 21.2164 11.098 21.2762 11.1806C21.3324 11.2583 21.3307 11.3379 21.3262 11.3748C21.3215 11.413 21.3097 11.4416 21.3038 11.4547C21.2853 11.496 21.2583 11.5272 21.2529 11.5335C21.2527 11.5338 21.2524 11.5341 21.2523 11.5342C21.2326 11.5574 21.2058 11.5845 21.1797 11.61C21.0711 11.7163 20.8519 11.9145 20.5949 12.1436C20.3847 12.3311 20.1469 12.5414 19.9157 12.7458C19.5782 13.0442 19.2547 13.3303 19.0511 13.5153C19.0506 13.5158 19.0501 13.5163 19.0496 13.5169L19.0249 13.5435L18.9337 13.6423C18.8565 13.726 18.7489 13.8428 18.6245 13.9771C18.5424 14.0658 18.453 14.1623 18.36 14.2621C18.2628 14.5257 18.1702 14.783 18.0883 15.0349C18.0611 15.1184 18.0183 15.2315 17.975 15.3459C17.9697 15.36 17.9643 15.3741 17.959 15.3882C17.9527 15.4048 17.9464 15.4215 17.9402 15.4382C17.9442 15.4355 17.9483 15.4327 17.9524 15.4299C18.0165 15.3314 18.1119 15.221 18.2013 15.125C18.3126 15.0056 18.4371 14.8847 18.5386 14.7941C18.6546 14.6905 18.9629 14.4809 19.3318 14.2495C19.7096 14.0126 20.1748 13.738 20.6215 13.5018C21.0621 13.2687 21.5051 13.0617 21.8309 12.9729C21.9141 12.9502 21.9975 12.9329 22.0764 12.9265C22.1516 12.9203 22.2446 12.9218 22.3343 12.9552C22.4355 12.9929 22.5283 13.0708 22.57 13.1932C22.6067 13.3008 22.5913 13.4071 22.5679 13.4888C22.5208 13.6533 22.4045 13.858 22.2809 14.0512C22.1519 14.2526 21.9955 14.4706 21.846 14.6697C21.6961 14.8693 21.5511 15.0528 21.4437 15.1859C21.3899 15.2524 21.3454 15.3066 21.3141 15.3443C21.2995 15.3619 21.2874 15.3763 21.2786 15.3867C21.2744 15.3958 21.2699 15.4059 21.2649 15.417C21.2602 15.4276 21.255 15.4391 21.2494 15.4515C21.1972 15.5674 21.1174 15.7431 21.0341 15.9081C20.9571 16.0606 20.8581 16.2434 20.7652 16.3449C20.7415 16.3708 20.6992 16.4131 20.64 16.4421C20.5732 16.4749 20.4441 16.506 20.3221 16.4189C20.2285 16.352 20.2016 16.2548 20.1926 16.2156C20.181 16.1654 20.1779 16.1125 20.1779 16.0642C20.1779 15.9128 20.3018 15.79 20.4545 15.79C20.4605 15.79 20.4665 15.7902 20.4724 15.7906C20.4931 15.7526 20.5156 15.7098 20.5394 15.6626C20.6168 15.5094 20.6923 15.3434 20.7442 15.228C20.7489 15.2175 20.7535 15.2073 20.758 15.1974C20.7769 15.1553 20.793 15.1195 20.8028 15.0989C20.8056 15.093 20.8105 15.0829 20.8159 15.073C20.8174 15.0702 20.8264 15.0538 20.8396 15.0363C20.8438 15.0308 20.8517 15.0208 20.8628 15.0095C20.8683 15.0039 20.8825 14.9897 20.9044 14.9748C20.9324 14.9409 20.969 14.8963 21.0117 14.8432C21.1162 14.7138 21.2572 14.5355 21.4022 14.3423C21.5477 14.1486 21.6951 13.9427 21.8138 13.7573C21.8757 13.6607 21.9254 13.5761 21.9625 13.5058C21.9385 13.5126 21.9133 13.5203 21.8872 13.5288C21.8841 13.6053 21.8497 13.6584 21.8421 13.6699L21.8417 13.6706C21.8199 13.7044 21.7937 13.729 21.7845 13.7376C21.7706 13.7506 21.7551 13.7639 21.7397 13.7763C21.7088 13.8016 21.6679 13.8327 21.6175 13.8696C20.755 14.5017 19.8473 15.0954 18.9358 15.6544C18.7822 15.7486 18.6557 15.8205 18.553 15.8725C18.4547 15.9223 18.3628 15.962 18.2828 15.9805C18.2448 15.9893 18.184 15.9997 18.1165 15.9875C18.1149 15.9872 18.1133 15.9869 18.1117 15.9866C17.9945 16.067 17.8781 16.1485 17.7626 16.2314C17.733 16.2526 17.6944 16.2769 17.6488 16.2938C17.6056 16.3099 17.5273 16.3301 17.4372 16.3027C17.3358 16.2719 17.2759 16.1989 17.2468 16.1354C17.2211 16.0791 17.2161 16.0256 17.2151 15.9927C17.213 15.9257 17.2259 15.8557 17.2388 15.7998C17.2528 15.7393 17.2721 15.6734 17.2933 15.6075C17.3303 15.4927 17.3771 15.3656 17.4214 15.2477C17.4191 15.25 17.4168 15.2523 17.4146 15.2546C17.3158 15.3532 17.2229 15.4425 17.1632 15.4872L17.1626 15.4877C17.1511 15.4963 17.1161 15.5226 17.071 15.5395L17.07 15.5399C17.0549 15.5456 16.9705 15.5777 16.8707 15.541C16.8073 15.5177 16.7542 15.4723 16.7218 15.4126C16.7064 15.3842 16.6979 15.3569 16.6933 15.3333C16.621 15.3891 16.5509 15.4396 16.491 15.476C16.4636 15.4926 16.4322 15.51 16.3994 15.5241C16.373 15.5355 16.317 15.5576 16.2488 15.5576C16.2113 15.5576 16.1557 15.5509 16.0985 15.5185C16.037 15.4835 15.9944 15.4304 15.9713 15.3731C15.9328 15.2776 15.9553 15.1903 15.9634 15.1609C15.9842 15.0857 16.0296 15.0028 16.0785 14.9232C16.1318 14.8365 16.2056 14.728 16.3023 14.5947C16.777 13.9403 17.3386 13.3758 17.8973 12.8347C17.9787 12.7558 18.0599 12.6776 18.1409 12.5996C18.2451 12.4993 18.3487 12.3994 18.4515 12.2995C18.5499 11.9468 18.6246 11.5985 18.6604 11.2557C17.6411 11.7588 16.7104 12.412 15.7672 13.074C15.6633 13.1469 15.5592 13.22 15.4548 13.293C15.3108 13.3936 15.2081 13.4605 15.1429 13.4916C15.1282 13.4987 15.0939 13.5146 15.0519 13.5226C15.0331 13.5262 14.9825 13.5345 14.9216 13.5182C14.8432 13.4972 14.7597 13.4367 14.727 13.3327C14.702 13.2533 14.7202 13.1876 14.7272 13.1653C14.7309 13.1533 14.7352 13.1425 14.7393 13.1331C13.9919 13.54 13.2405 13.9467 12.975 14.0814C12.8951 14.1219 12.7967 14.1779 12.6822 14.2431C12.6467 14.2633 12.6096 14.2844 12.571 14.3062C12.4141 14.3949 12.2378 14.492 12.0724 14.5672C11.9184 14.6372 11.7303 14.7092 11.5627 14.7096C11.4729 14.7098 11.3521 14.6895 11.2526 14.5985C11.1505 14.505 11.1188 14.3811 11.1162 14.2752C11.1135 14.1619 11.1462 14.0557 11.1838 13.9678C11.2223 13.8779 11.2742 13.7884 11.328 13.7043C11.382 13.6196 11.443 13.5328 11.5018 13.4495C11.5071 13.442 11.5123 13.4346 11.5176 13.4272C11.572 13.3501 11.6246 13.2756 11.6739 13.2013C11.7156 13.1385 11.7518 13.0802 11.7821 13.0262C11.5112 13.0851 11.2577 13.1311 11.0288 13.1605C10.9306 13.1731 10.797 13.1806 10.6835 13.1247C10.6145 13.0906 10.5422 13.0271 10.5111 12.9264C10.4823 12.8336 10.5019 12.751 10.5221 12.6995C10.5598 12.6031 10.634 12.5254 10.6924 12.4728C10.758 12.4137 10.8379 12.3563 10.9236 12.3047C11.0931 12.2025 11.3106 12.1076 11.5286 12.0686C11.7375 12.0312 12.0144 12.035 12.2213 12.2246C12.2588 12.2591 12.2909 12.2951 12.3181 12.3322C13.0365 12.1433 13.8404 11.8892 14.622 11.6236C15.6792 11.2643 16.6777 10.8902 17.3433 10.6408C17.5147 10.5766 17.6641 10.5206 17.7867 10.4753C18.6177 10.1682 19.4445 9.85274 20.27 9.53363C20.3871 9.47796 20.5043 9.42326 20.6219 9.36968C20.763 9.30538 20.8886 9.2599 20.996 9.24264C21.0067 9.24091 21.0191 9.23919 21.0327 9.23781C21.3525 9.11345 21.6722 8.98877 21.992 8.86402C22.693 8.59061 23.3947 8.31694 24.099 8.04588C24.2414 7.99108 24.4016 8.06108 24.4569 8.20224ZM16.5446 11.5235C16.0202 11.7162 15.4203 11.9319 14.8014 12.1423C14.0124 12.4105 13.1822 12.6735 12.4307 12.8699C12.4282 12.8838 12.4253 12.8976 12.4222 12.9113C12.3738 13.1219 12.2514 13.3288 12.1362 13.5025C12.0822 13.584 12.0249 13.6651 11.9712 13.741C11.9658 13.7487 11.9604 13.7563 11.9551 13.7639C11.8956 13.848 11.8417 13.9252 11.7953 13.9977C11.7669 14.0422 11.7431 14.0822 11.7241 14.1181C11.7582 14.1052 11.7975 14.0889 11.8419 14.0687C11.9831 14.0046 12.1407 13.9182 12.297 13.8298C12.3304 13.811 12.3641 13.7918 12.3976 13.7727C12.515 13.7059 12.63 13.6404 12.7229 13.5933C13.1157 13.394 14.6008 12.5833 15.5317 12.0752C15.859 11.8966 16.1177 11.7553 16.2364 11.6912C16.339 11.6358 16.4417 11.5799 16.5446 11.5235ZM19.2248 11.0054C19.2286 11.0571 19.228 11.1093 19.2242 11.16C19.2143 11.2945 19.1987 11.429 19.1784 11.5633C19.2918 11.4414 19.4028 11.3175 19.5109 11.1906C19.6241 11.0575 19.7004 10.9523 19.7486 10.8714C19.7516 10.8664 19.7544 10.8616 19.7571 10.857C19.6795 10.8671 19.5776 10.8896 19.455 10.9268C19.3805 10.9494 19.303 10.976 19.2248 11.0054ZM20.2647 10.4655C20.2865 10.4356 20.3083 10.4056 20.3302 10.3757C20.3466 10.3531 20.3787 10.3147 20.4098 10.2775C20.4127 10.274 20.4155 10.2706 20.4184 10.2672C20.4566 10.2215 20.5038 10.1648 20.5547 10.1018C20.5885 10.0601 20.6229 10.0166 20.6567 9.97268C20.6012 9.99415 20.5458 10.0156 20.4903 10.0371C20.3058 10.125 20.1222 10.2153 19.9392 10.3076C20.0288 10.3178 20.1415 10.3475 20.2325 10.4321C20.2441 10.4429 20.2548 10.454 20.2647 10.4655ZM22.0391 13.3244C22.0391 13.3244 22.0391 13.3249 22.0389 13.326L22.0391 13.3244ZM21.0347 15.474C20.976 15.4572 20.9085 15.426 20.8555 15.3841C20.8702 15.4004 20.8882 15.4162 20.9101 15.4304C20.9532 15.4582 20.9958 15.4705 21.0347 15.474ZM20.7848 15.2091C20.7853 15.1883 20.7867 15.1695 20.7887 15.1552C20.7883 15.1569 20.788 15.1588 20.7878 15.1607C20.7869 15.1662 20.7856 15.1759 20.785 15.1881C20.7848 15.1924 20.7845 15.1996 20.7848 15.2091Z" fill="#3C4CDB"/>
<path fill-rule="evenodd" clip-rule="evenodd" d="M8.16435 9.57671C8.14119 9.44223 8.22038 9.33342 8.24247 9.30494C8.28753 9.24683 8.348 9.19617 8.401 9.15616C8.45768 9.11336 8.5233 9.06987 8.5913 9.02766C8.78769 8.90577 9.04452 8.77042 9.23397 8.67058C9.30023 8.63566 9.35825 8.60508 9.40256 8.58094C9.40996 8.57691 9.419 8.57196 9.42957 8.56618C9.60401 8.47068 10.1963 8.14643 10.7781 7.91699C10.9752 7.83925 11.1819 7.76791 11.3772 7.72135C11.3888 7.71494 11.4003 7.70852 11.4119 7.70212C11.6874 7.55008 11.9782 7.39909 12.2318 7.28907C12.3583 7.23417 12.4812 7.18698 12.5917 7.15518C12.6939 7.12581 12.8182 7.09946 12.9335 7.11444C12.9889 7.12164 13.096 7.14656 13.1697 7.24713C13.2485 7.35465 13.2323 7.46904 13.2159 7.52647C13.1992 7.58432 13.1702 7.63221 13.1491 7.66342C13.126 7.69761 13.0995 7.73034 13.0746 7.75927C13.0322 7.80861 12.9818 7.86089 12.9394 7.90487C12.933 7.91155 12.9267 7.91804 12.9207 7.92429C12.8689 7.97821 12.837 8.01297 12.8212 8.03437C12.6868 8.21641 12.5522 8.39024 12.4199 8.56118C12.3464 8.65615 12.2735 8.75022 12.2018 8.84431C12.1384 8.96014 12.0673 9.07393 11.9993 9.17569C11.896 9.33018 11.7943 9.46518 11.7257 9.5487C11.6996 9.58052 11.6584 9.63007 11.6218 9.65963C11.6152 9.66498 11.6006 9.67644 11.5806 9.68772C11.5705 9.6934 11.5529 9.70258 11.5296 9.71023C11.51 9.71665 11.469 9.7279 11.4165 9.72309C11.4034 9.88524 11.3841 10.0455 11.3655 10.1824C12.0065 9.66991 12.4725 9.31457 13.1016 8.83486C13.2734 8.70381 13.4575 8.56348 13.6605 8.40813C13.7815 8.31562 13.9552 8.33782 14.0485 8.4577C14.1418 8.57758 14.1194 8.74976 13.9985 8.84227C13.7942 8.99853 13.6095 9.13938 13.4374 9.27067C12.6936 9.83785 12.1838 10.2266 11.3416 10.9077C11.3182 10.9266 11.2948 10.9458 11.2714 10.9654C11.2625 11.0748 11.2562 11.1769 11.2544 11.2721C11.2504 11.48 11.2698 11.6158 11.3064 11.6986C11.3332 11.7594 11.3657 11.7898 11.4429 11.8044C11.5454 11.8239 11.7287 11.812 12.0384 11.7125C12.171 11.67 12.3008 11.6418 12.4162 11.6498C12.4765 11.6541 12.5488 11.6692 12.6168 11.7118C12.6898 11.7575 12.741 11.8244 12.7672 11.9012C12.8126 12.0343 12.7728 12.1643 12.7449 12.237C12.7121 12.3227 12.6627 12.4104 12.611 12.4913C12.4532 12.7384 12.1914 13.0415 12.0655 13.1871C12.0335 13.2242 12.0103 13.2511 11.9998 13.2642C11.8507 13.4521 11.708 13.6547 11.5564 13.8699C11.4528 14.0171 11.345 14.1701 11.2282 14.3283C10.9526 14.7016 10.6419 15.0803 10.279 15.3582C10.2562 15.3757 10.158 15.4508 10.0226 15.4263C9.84596 15.3943 9.7954 15.2418 9.78446 15.1958C9.77123 15.1402 9.77343 15.0869 9.77602 15.0538C9.77902 15.0158 9.78527 14.9759 9.79273 14.9371C9.82186 14.7861 9.88514 14.5759 9.95239 14.3714C10.0737 14.0024 10.224 13.6049 10.2647 13.4971C10.2698 13.4837 10.2731 13.4748 10.2746 13.4709C10.3271 13.3287 10.4859 13.2556 10.6294 13.3076C10.7728 13.3597 10.8466 13.5171 10.7941 13.6593C10.7921 13.6647 10.7879 13.6759 10.7818 13.6921C10.7482 13.7811 10.6572 14.0219 10.5644 14.2878C10.6374 14.1968 10.7098 14.102 10.7818 14.0045C10.8816 13.8693 10.9838 13.7245 11.0863 13.5792C11.2477 13.3504 11.41 13.1205 11.5652 12.9251C11.5919 12.8914 11.633 12.8437 11.6824 12.7864C11.8016 12.6481 11.9687 12.4543 12.0968 12.2684C11.8049 12.3523 11.5519 12.3834 11.339 12.343C11.0739 12.2928 10.8958 12.1365 10.7995 11.9184C10.7397 11.7829 10.7136 11.6287 10.7046 11.472C10.6308 11.5396 10.5553 11.6085 10.4775 11.6783C10.1724 11.9518 9.84079 12.2298 9.49123 12.4302C9.46799 12.4436 9.40207 12.4782 9.31273 12.4686C9.19728 12.4562 9.12246 12.3814 9.08822 12.3125C9.06091 12.2575 9.05812 12.2072 9.05758 12.1866C9.05691 12.1609 9.05932 12.1383 9.06157 12.1225C9.06971 12.0652 9.09088 11.9975 9.11074 11.9395C9.15379 11.8138 9.22307 11.6433 9.29581 11.4729C9.44105 11.1326 9.61468 10.7588 9.6562 10.6791C9.69915 10.5968 9.75022 10.5098 9.79903 10.4267C9.80244 10.4209 9.80584 10.4151 9.80922 10.4094C9.86258 10.3185 9.91418 10.2299 9.96023 10.1409C10.0066 10.0514 10.0428 9.96968 10.0678 9.89525C9.91945 9.91712 9.72458 9.9626 9.51473 10.0196C9.10788 10.1302 8.68855 10.2718 8.52942 10.3255C8.50407 10.334 8.48532 10.3404 8.47428 10.344C8.37482 10.3766 8.22701 10.4365 8.06756 10.5018C8.05902 10.5053 8.05044 10.5088 8.04183 10.5123C7.89774 10.5713 7.74523 10.6338 7.63865 10.6694C7.60957 10.6792 7.57909 10.6886 7.55015 10.6957C7.52886 10.7008 7.48024 10.7123 7.42664 10.7093C7.40349 10.708 7.33347 10.7025 7.2656 10.652C7.17279 10.5831 7.1428 10.4772 7.15451 10.3894C7.16332 10.3234 7.19332 10.2771 7.20519 10.2597C7.22049 10.2373 7.2368 10.2192 7.24908 10.2065C7.29401 10.16 7.36379 10.1063 7.44557 10.048C7.53259 9.98581 7.65019 9.90657 7.80321 9.80724C7.92661 9.72713 8.04661 9.65056 8.16435 9.57671ZM11.0167 8.56355C11.0495 8.56759 11.0826 8.57582 11.1153 8.58896C11.1878 8.61816 11.2421 8.66511 11.2811 8.71353C11.3533 8.80325 11.3859 8.9136 11.4034 9.00182C11.5097 8.84861 11.6211 8.69764 11.7338 8.54887C11.7534 8.5119 11.7715 8.47557 11.7876 8.44036C11.8189 8.37188 11.84 8.31389 11.8513 8.26807C11.8567 8.24636 11.8589 8.23107 11.8598 8.22125C11.8376 8.21616 11.7957 8.21138 11.7265 8.21695C11.6812 8.2206 11.6313 8.228 11.5776 8.23879C11.3749 8.35236 11.1808 8.46597 11.0167 8.56355ZM12.6933 7.35217C12.6933 7.35216 12.6931 7.35258 12.6926 7.35344C12.693 7.3526 12.6933 7.35217 12.6933 7.35217ZM11.6867 9.57205C11.6866 9.57211 11.6872 9.57098 11.6888 9.56847C11.6875 9.57073 11.6868 9.57199 11.6867 9.57205ZM10.7403 10.6963C10.7439 10.6582 10.7477 10.6199 10.7515 10.5816C10.7537 10.5584 10.756 10.5352 10.7583 10.5121C10.7602 10.4923 10.7679 10.4421 10.7779 10.3769C10.7871 10.317 10.7982 10.2446 10.8086 10.1715C10.8324 10.0036 10.8581 9.79586 10.8711 9.59649C10.8834 9.40644 10.8825 9.2437 10.8652 9.13348C10.6888 9.17793 10.5075 9.25138 10.3124 9.33829C10.3288 9.34023 10.3449 9.34277 10.3607 9.346C10.4085 9.35578 10.4794 9.37695 10.5426 9.43015C10.6167 9.49237 10.6611 9.58286 10.6611 9.68376C10.6611 9.94204 10.5565 10.1903 10.4524 10.3913C10.3988 10.4948 10.3403 10.595 10.2874 10.6851L10.2796 10.6984C10.2284 10.7856 10.1839 10.8613 10.1476 10.9309C10.1238 10.9765 10.022 11.1935 9.91137 11.4431C9.97617 11.3874 10.0412 11.3301 10.1064 11.2716C10.1955 11.1917 10.2861 11.1086 10.3771 11.0252C10.4982 10.9141 10.6201 10.8023 10.7403 10.6963ZM7.41281 10.1643C7.41286 10.1642 7.4141 10.1639 7.41638 10.1636C7.41389 10.1641 7.41275 10.1643 7.41281 10.1643ZM12.2358 12.0163C12.2358 12.0163 12.2357 12.0175 12.2351 12.0199C12.2354 12.0176 12.2357 12.0164 12.2358 12.0163ZM10.3272 15.1029C10.3272 15.103 10.3272 15.1023 10.3273 15.1007C10.3273 15.1021 10.3273 15.1029 10.3272 15.1029Z" fill="#3C4CDB"/>
<path fill-rule="evenodd" clip-rule="evenodd" d="M25.3314 7.60577C25.3175 7.64215 25.2982 7.6786 25.2793 7.71126C25.1852 7.87376 25.0343 8.01287 24.8796 8.12894C24.7427 8.2317 24.5873 8.32761 24.432 8.41508C24.3579 8.48919 24.2865 8.56106 24.2216 8.62641C24.1546 8.69387 24.0945 8.75438 24.0455 8.80324C22.7742 10.0697 21.6656 11.3447 20.6061 12.7119C20.8376 12.5613 21.1056 12.3908 21.362 12.232C21.6559 12.0501 21.9439 11.8778 22.1557 11.7627C22.2588 11.7066 22.3554 11.6577 22.4286 11.6295L22.4292 11.6292C22.4546 11.6195 22.5208 11.5939 22.5929 11.5949C22.6239 11.5953 22.7505 11.6016 22.8313 11.7208C22.9113 11.839 22.8706 11.9566 22.8598 11.9849C22.6996 12.4026 22.4845 12.81 22.2412 13.2055C22.2792 13.2521 22.2964 13.3009 22.3044 13.3301C22.3176 13.3782 22.3203 13.4257 22.3203 13.4635C22.3203 13.6821 22.2345 13.8665 22.1306 14.0181C22.2436 13.986 22.4349 13.9609 22.5866 14.1006C22.7305 14.2331 22.7395 14.4279 22.727 14.5695C22.718 14.6715 22.7038 14.7695 22.6872 14.8615C22.6898 14.8592 22.6925 14.8568 22.6951 14.8545C22.9838 14.5795 23.1277 14.4469 23.167 14.4149C23.1703 14.4122 23.1779 14.406 23.1873 14.3994C23.1908 14.397 23.2029 14.3885 23.2194 14.3798C23.2264 14.3762 23.2466 14.3658 23.2744 14.3582C23.2891 14.3545 23.3259 14.349 23.348 14.3481C23.3811 14.3499 23.4588 14.3707 23.5005 14.393C23.6496 14.4898 23.6257 14.6482 23.6203 14.6753C23.6122 14.7162 23.5964 14.7452 23.5923 14.7527C23.5815 14.7726 23.5703 14.787 23.5676 14.7906C23.5599 14.8005 23.5525 14.8086 23.5499 14.8115C23.5379 14.8246 23.5202 14.8423 23.5027 14.8594C23.4646 14.8967 23.4051 14.9533 23.3324 15.0207C23.2577 15.0898 23.1677 15.1716 23.0708 15.2572C23.0563 15.271 23.0414 15.2852 23.0261 15.2998C22.7962 15.5193 22.6306 15.6702 22.52 15.7438C22.4907 15.7633 22.4525 15.7862 22.4089 15.8023C22.3991 15.806 22.3856 15.8106 22.369 15.8147C22.3162 15.8486 22.2661 15.8774 22.2207 15.8988C22.0827 15.9638 21.9177 15.9057 21.8522 15.7689C21.7866 15.6321 21.8453 15.4686 21.9832 15.4036C21.9865 15.402 21.99 15.4003 21.9935 15.3985C22.0012 15.355 22.0121 15.3103 22.0222 15.2705C22.0298 15.2405 22.0383 15.2082 22.047 15.1754L22.049 15.1679C22.0585 15.132 22.0683 15.0946 22.0783 15.0553C22.1132 14.9181 22.1484 14.7621 22.1682 14.596C22.1349 14.6141 22.0968 14.6368 22.0539 14.6648C21.9533 14.7304 21.8399 14.8159 21.7199 14.9142C21.3079 15.2517 20.8647 15.7006 20.6548 15.9132C20.6177 15.9508 20.5879 15.9809 20.5668 16.0018C20.5412 16.0272 20.5183 16.0492 20.499 16.0663C20.4896 16.0746 20.4775 16.0849 20.4643 16.0948C20.4609 16.0974 20.4196 16.1299 20.362 16.1456C20.349 16.1491 20.2918 16.1639 20.2233 16.1483C20.1467 16.242 20.0781 16.3246 20.023 16.3887C19.9876 16.4298 19.9554 16.4662 19.929 16.4938C19.9163 16.5071 19.9012 16.5224 19.8855 16.5361C19.878 16.5427 19.8659 16.5531 19.8507 16.5635L19.8499 16.564C19.8416 16.5698 19.7995 16.5992 19.7389 16.6106C19.7036 16.6172 19.6287 16.6241 19.5498 16.58C19.4636 16.5319 19.4277 16.4546 19.4153 16.4023C19.3973 16.3259 19.4181 16.2626 19.4209 16.2539C19.421 16.2536 19.4211 16.2533 19.4212 16.2532C19.4316 16.2196 19.4474 16.1903 19.4545 16.1774C19.4731 16.1433 19.5013 16.0983 19.5362 16.0449C19.6077 15.9357 19.7242 15.7666 19.8951 15.5251C20.1064 15.2265 20.3359 14.9227 20.5666 14.6175L20.5722 14.6102C20.8019 14.3063 21.0331 14.0005 21.2543 13.6901C21.5425 13.2857 21.8093 12.8793 22.0285 12.4698C21.9106 12.5401 21.7843 12.6171 21.6551 12.6971C21.0656 13.0621 20.4541 13.4653 20.344 13.5524C20.2857 13.5985 20.2015 13.6681 20.1054 13.7476L20.0807 13.7681C19.976 13.8546 19.861 13.9496 19.7598 14.0298C19.6654 14.1048 19.5638 14.1826 19.4941 14.2221C19.4784 14.231 19.4431 14.2505 19.4 14.2619C19.3812 14.2669 19.3284 14.2797 19.2632 14.2661C19.1766 14.248 19.0883 14.1857 19.0533 14.0797C19.0275 14.0016 19.0439 13.9359 19.0498 13.9143C19.0577 13.8857 19.0685 13.8629 19.0755 13.8493C19.09 13.8213 19.1077 13.7951 19.1229 13.7742C20.2675 12.1923 21.4293 10.7495 22.7561 9.33949C21.8077 9.90659 20.8566 10.4849 19.923 11.086C19.9301 11.094 19.937 11.1026 19.9436 11.1119C20.0122 11.2077 20.0053 11.3097 19.9917 11.3683C19.9235 11.6642 19.6796 11.8251 19.498 11.9229C19.4221 11.9638 19.34 12.0022 19.267 12.0363C19.2489 12.0448 19.2313 12.053 19.2145 12.061C19.1244 12.1035 19.0514 12.1403 18.9926 12.1789C18.6892 12.3777 18.403 12.5623 18.1232 12.7426C17.5574 13.1072 17.0183 13.4547 16.4186 13.8688C15.6608 14.3922 14.9535 14.9015 14.3701 15.5512C14.3484 15.5754 14.3156 15.6179 14.2769 15.6679C14.2568 15.6939 14.2352 15.7218 14.2127 15.7503C14.1885 15.7811 14.1518 15.8274 14.1209 15.8569C14.1143 15.8633 14.091 15.8856 14.0583 15.9043C14.045 15.9119 13.9983 15.9381 13.9321 15.9416C13.8944 15.9435 13.8434 15.9385 13.7907 15.9118C13.7363 15.8843 13.6984 15.843 13.6748 15.8016C13.6344 15.7304 13.6383 15.6637 13.6394 15.6464C13.6411 15.6204 13.6461 15.5998 13.6489 15.5892C13.6549 15.5671 13.6625 15.5482 13.6673 15.537C13.8106 15.1995 14.0853 14.8758 14.3495 14.5952C14.4626 14.4752 14.5716 14.3649 14.6742 14.2611C14.8278 14.1057 14.967 13.9649 15.0838 13.8277C15.3883 13.47 15.6869 13.1106 15.9736 12.7446C15.856 12.8284 15.7401 12.9143 15.6262 12.9987L15.6222 13.0017C15.4774 13.109 15.3345 13.215 15.2024 13.3051C15.1062 13.3708 14.9557 13.5 14.7599 13.6733C14.7225 13.7063 14.6838 13.7407 14.644 13.776C14.4823 13.9196 14.3026 14.0792 14.121 14.2319C13.8952 14.4219 13.6575 14.609 13.4349 14.75C13.2262 14.8821 12.9795 15.008 12.7489 15.008C12.712 15.008 12.6498 15.0019 12.5868 14.9633C12.5568 14.9449 12.5319 14.9224 12.5119 14.8975C12.4574 14.9405 12.4004 14.9896 12.3414 15.0444C12.2011 15.1746 12.0799 15.3054 11.9668 15.4274C11.9033 15.4959 11.8423 15.5617 11.782 15.623L11.7811 15.624C11.7798 15.6253 11.7772 15.6279 11.7738 15.6314L11.751 15.6545C11.7314 15.6743 11.7035 15.7024 11.67 15.7358C11.6033 15.8025 11.5137 15.891 11.4234 15.9776C11.3341 16.0631 11.2398 16.1509 11.1648 16.2138C11.1295 16.2435 11.088 16.2766 11.0491 16.3006C11.0354 16.309 10.9929 16.3352 10.9376 16.3471C10.9111 16.3529 10.8403 16.3649 10.7606 16.3302C10.6606 16.2868 10.6114 16.2003 10.597 16.1277C10.5671 15.9775 10.5836 15.8184 10.6134 15.674C10.6438 15.5266 10.6929 15.3721 10.7454 15.2236C10.7851 15.1113 10.8255 15.0049 10.864 14.9034C10.9336 14.72 10.997 14.5527 11.0391 14.3965C11.0709 14.2787 11.0808 14.1985 11.0772 14.149C11.0769 14.1439 11.0764 14.1396 11.0759 14.1361C11.057 14.132 11.0166 14.1273 10.9425 14.1353C10.8202 14.1484 10.6419 14.1925 10.3905 14.2851C10.3528 14.299 10.2414 14.3538 10.076 14.4352C10.0352 14.4552 9.99121 14.4768 9.94421 14.4999C9.72109 14.6093 9.45134 14.7395 9.22086 14.8351C9.10649 14.8825 8.99362 14.9249 8.89692 14.9515C8.84904 14.9647 8.79648 14.9765 8.74492 14.9813C8.70357 14.9851 8.61592 14.9899 8.5292 14.9466C8.47875 14.9215 8.42651 14.8788 8.39208 14.8136C8.35855 14.75 8.35342 14.6868 8.35777 14.6384C8.36548 14.5523 8.40563 14.4815 8.43272 14.4393C8.49249 14.346 8.59421 14.2349 8.72858 14.1057C8.77232 14.0636 8.83069 14.004 8.89803 13.9351C9.02855 13.8016 9.19279 13.6336 9.34967 13.4927C9.4756 13.3795 9.61306 13.2677 9.75498 13.1773C9.89475 13.0884 10.054 13.0104 10.2221 12.9816C10.3726 12.9558 10.5157 13.0559 10.5418 13.2051C10.5678 13.3543 10.4668 13.4962 10.3163 13.522C10.2502 13.5333 10.1625 13.5696 10.0539 13.6388C9.94741 13.7065 9.8351 13.7966 9.7212 13.899C9.64487 13.9675 9.5742 14.0353 9.50754 14.1015C9.5727 14.0701 9.63701 14.0388 9.6989 14.0084C9.7365 13.99 9.77404 13.9715 9.81081 13.9533C9.97845 13.8707 10.13 13.7961 10.1978 13.7711C10.469 13.6712 10.6957 13.6103 10.8827 13.5901C11.0644 13.5705 11.2502 13.5849 11.3994 13.6857C11.5618 13.7953 11.6185 13.963 11.629 14.1102C11.6391 14.251 11.6105 14.4011 11.5736 14.5381C11.5248 14.7191 11.444 14.9327 11.3681 15.1334C11.342 15.2024 11.3165 15.2698 11.2931 15.3338C11.3482 15.2787 11.3843 15.2419 11.3859 15.2403C11.4257 15.1998 11.4762 15.1455 11.5337 15.0836C11.6561 14.9519 11.8106 14.7858 11.9634 14.644C12.1871 14.4365 12.4825 14.2046 12.8017 14.15C12.8287 14.1453 12.8891 14.1378 12.958 14.1621C12.9958 14.1755 13.0362 14.1986 13.0711 14.2353C13.0907 14.2559 13.1059 14.278 13.1174 14.3002C13.1239 14.2961 13.1305 14.292 13.1371 14.2878C13.328 14.167 13.5433 13.9987 13.7631 13.8138C13.9385 13.6663 14.111 13.5131 14.2724 13.3698C14.3129 13.3338 14.3526 13.2985 14.3915 13.2641C14.5792 13.0981 14.7577 12.9429 14.8887 12.8535C15.0113 12.7698 15.1464 12.6697 15.2949 12.5596C15.4416 12.4508 15.6002 12.3332 15.7625 12.2207C16.0826 11.9988 16.4425 11.7781 16.7962 11.672C16.8156 11.6662 16.8474 11.6582 16.886 11.6574C16.923 11.6566 16.9933 11.6619 17.062 11.7105C17.2246 11.8254 17.1758 12.0059 17.1713 12.0225C17.1593 12.0669 17.1391 12.1031 17.1285 12.1211C17.1155 12.1433 17.101 12.1647 17.0879 12.1831C17.0619 12.2197 17.0312 12.2586 17.0069 12.2893L17.0007 12.2972C16.9767 12.3274 16.9612 12.347 16.952 12.3598C16.8972 12.4363 16.8419 12.5124 16.786 12.588C18.8133 11.0611 21.0325 9.72366 23.1829 8.44527C23.2891 8.38215 23.437 8.30882 23.5895 8.23319L23.5975 8.22922C23.755 8.15108 23.9257 8.06643 24.0922 7.97527C24.0928 7.97494 24.0934 7.9746 24.094 7.97427C24.2265 7.84211 24.3656 7.70528 24.4894 7.58803C24.6274 7.45733 24.7664 7.33157 24.8597 7.26905C24.8815 7.25444 24.9213 7.22893 24.969 7.21301C24.9909 7.20571 25.0438 7.18999 25.1101 7.19951C25.195 7.21169 25.2833 7.26403 25.3284 7.36023C25.3633 7.43445 25.3561 7.50193 25.3522 7.52838C25.3474 7.56075 25.3382 7.5879 25.3314 7.60577ZM14.1772 15.7497C14.1771 15.7498 14.1772 15.7496 14.1772 15.7497V15.7497ZM8.69336 14.4353C8.68828 14.4358 8.68918 14.4352 8.69461 14.4352C8.69414 14.4352 8.69373 14.4353 8.69336 14.4353ZM19.2195 13.746C19.2166 13.7477 19.2169 13.7473 19.22 13.7458C19.2199 13.7459 19.2197 13.7459 19.2195 13.746Z" fill="#3C4CDB"/>
<path fill-rule="evenodd" clip-rule="evenodd" d="M8.0272 8.47247C8.06572 8.45961 8.10766 8.45023 8.15142 8.44816C8.22053 8.4449 8.30785 8.45935 8.38646 8.51918C8.41806 8.54323 8.44298 8.57062 8.46258 8.59901C8.63802 8.48457 8.85887 8.34298 9.07126 8.22538C9.19191 8.15857 9.31567 8.0962 9.4311 8.05031C9.5389 8.00745 9.67024 7.96607 9.79557 7.96923C9.86185 7.9709 9.94699 7.98544 10.0262 8.03851C10.1113 8.09546 10.1621 8.17842 10.1841 8.26594C10.2216 8.41569 10.1758 8.58026 10.1188 8.72355C10.0044 9.01084 9.86607 9.31887 9.67416 9.60233C9.71257 9.59421 9.74773 9.58755 9.7781 9.58295C9.92911 9.56009 10.0702 9.66289 10.0933 9.81258C10.1164 9.96227 10.0127 10.1022 9.86164 10.125C9.76762 10.1393 9.61356 10.1795 9.44724 10.2229C9.37294 10.2423 9.2962 10.2623 9.22126 10.281C9.11813 10.3066 8.99713 10.3352 8.9156 10.3399C8.89627 10.341 8.85221 10.343 8.80354 10.331C8.77913 10.325 8.73033 10.3101 8.68295 10.27C8.62665 10.2224 8.58542 10.1493 8.58325 10.0627C8.58141 9.98919 8.60862 9.9348 8.62417 9.90872C8.64109 9.88034 8.65983 9.85956 8.6722 9.84696C8.697 9.82171 8.72424 9.80132 8.74529 9.78663C9.1413 9.51021 9.3804 9.07207 9.57954 8.5835C9.50801 8.61522 9.42747 8.65626 9.34104 8.70411C9.12027 8.82636 8.88442 8.97994 8.69821 9.10186C8.69162 9.10617 8.68507 9.11046 8.67857 9.11472C8.59586 9.16889 8.52082 9.21803 8.46621 9.25137C8.43911 9.26792 8.40517 9.28798 8.37411 9.3021C8.37383 9.30223 8.37347 9.30239 8.37304 9.30259C8.3636 9.30695 8.31987 9.32713 8.26509 9.33145C8.242 9.33327 8.14127 9.33956 8.05323 9.26005C8.01351 9.22418 7.99037 9.18447 7.97739 9.14668C7.97353 9.14965 7.96962 9.15266 7.96569 9.1557C7.91871 9.19191 7.86708 9.2317 7.82081 9.26425C7.79039 9.28565 7.75653 9.30808 7.72191 9.32727C7.69039 9.34474 7.6421 9.36875 7.58526 9.38075C7.53002 9.3924 7.41532 9.40227 7.31247 9.3191C7.21467 9.24001 7.19735 9.13197 7.19412 9.07879C7.18781 8.97501 7.22184 8.85357 7.26137 8.73846C7.27945 8.68578 7.31097 8.62354 7.33969 8.56952C7.37089 8.51083 7.40924 8.44276 7.44906 8.37265C7.45883 8.35547 7.4687 8.33812 7.47863 8.32066C7.55106 8.19338 7.62682 8.06025 7.68791 7.94098C7.66948 7.92457 7.65299 7.90541 7.63907 7.88365C7.5573 7.75574 7.59561 7.58634 7.72464 7.50529C7.76668 7.47888 7.80977 7.45494 7.85275 7.43686C7.89212 7.4203 7.95124 7.4 8.01989 7.40002C8.09856 7.40005 8.2004 7.42861 8.272 7.52083C8.33308 7.59952 8.33977 7.68468 8.33947 7.72898C8.33888 7.81665 8.30821 7.9051 8.28452 7.96555C8.25727 8.03511 8.22108 8.11115 8.18271 8.1862C8.13553 8.2785 8.08065 8.37773 8.0272 8.47247ZM8.07112 7.94079C8.07111 7.94082 8.07042 7.94111 8.0691 7.94155C8.07047 7.94098 8.07113 7.94076 8.07112 7.94079ZM7.4469 8.8513C7.44602 8.85173 7.4456 8.85191 7.4456 8.8519C7.44561 8.85188 7.44605 8.85166 7.4469 8.8513Z" fill="#3C4CDB"/>
</svg>
