<svg width="26" height="24" viewBox="0 0 26 24" fill="none" xmlns="http://www.w3.org/2000/svg">
<path fill-rule="evenodd" clip-rule="evenodd" d="M25.0764 4.81258C26.8833 8.52575 25.9767 13.0628 22.9015 15.6958L13.3006 23.916L3.16435 15.5845C0.0542788 13.0281 -0.89357 8.50876 0.905158 4.81258C3.33103 0.566206 8.81125 -0.348791 12.3672 2.89883L13.3006 3.75128L14.463 2.68977C17.8215 -0.377533 23.0216 0.662563 25.0764 4.81258ZM2.7937 5.9175C4.54703 2.93725 8.42756 2.30908 10.952 4.61457L13.3006 6.75957L15.8782 4.40551C18.1811 2.30235 21.7456 3.01321 23.158 5.85526C24.4958 8.61257 23.8214 11.9791 21.5387 13.9336L13.2732 21.0105L4.49351 13.7941C2.21877 11.9244 1.5121 8.63099 2.7937 5.9175Z" fill="#3C4CDB"/>
<path fill-rule="evenodd" clip-rule="evenodd" d="M22.8929 2.48248C22.9815 2.59146 22.9967 2.72534 22.9871 2.83664C22.9477 3.29277 22.7008 3.77847 22.44 4.19157C22.1983 4.57448 21.9196 4.93267 21.716 5.1944C21.6954 5.22083 21.6756 5.24627 21.6567 5.27066C21.2161 5.83868 20.754 6.38825 20.2802 6.92606C20.739 6.56118 21.1935 6.19099 21.6415 5.81189C21.6878 5.77273 21.7582 5.72058 21.8276 5.66912L21.8366 5.66244C21.908 5.60953 21.9855 5.55205 22.0603 5.49346C22.1226 5.4447 22.1794 5.39793 22.2263 5.35542C22.2711 5.27072 22.3092 5.20045 22.337 5.1529C22.3502 5.13039 22.3674 5.10185 22.3851 5.07825L22.3856 5.07758C22.3901 5.0714 22.4174 5.03415 22.4605 5.00529L22.461 5.0049C22.4754 4.99522 22.5728 4.9297 22.6981 4.97645C22.8446 5.03112 22.8713 5.17332 22.8755 5.20084C22.8819 5.24233 22.878 5.27593 22.8766 5.28724C22.8747 5.30293 22.872 5.31619 22.87 5.32498C22.8659 5.34271 22.8609 5.35972 22.8565 5.37341C22.8475 5.40169 22.835 5.43653 22.8198 5.47639C22.784 5.57059 22.714 5.65251 22.6558 5.71184C22.6228 5.77488 22.5861 5.8456 22.5464 5.92215C22.5294 5.95511 22.5118 5.98909 22.4938 6.02385C22.28 6.43749 22.0083 6.96288 21.841 7.22798C21.812 7.27393 21.7829 7.31991 21.7536 7.36592C21.7702 7.37037 21.7868 7.37541 21.8034 7.38108C22.0132 7.45289 22.0622 7.66217 22.0719 7.77576C22.0824 7.89984 22.0627 8.0408 22.0343 8.17419C21.9763 8.44739 21.86 8.78668 21.7343 9.11274C21.6941 9.217 21.6523 9.32143 21.6104 9.42368C21.6899 9.33474 21.7709 9.24655 21.8529 9.1605C22.297 8.69453 22.8096 8.24763 23.3547 8.0455C23.3873 8.03341 23.4846 8.00673 23.5829 8.06906C23.6044 8.06433 23.6386 8.05982 23.6785 8.06605C23.7142 8.07164 23.7711 8.08852 23.8228 8.13906C23.8778 8.19289 23.9012 8.25968 23.9072 8.31479C23.9164 8.39959 23.8861 8.46254 23.8808 8.4735L23.8804 8.4744C23.625 9.0121 23.2849 9.51673 22.9369 9.99528C22.8085 10.1719 22.6805 10.343 22.5548 10.5112C22.5483 10.5199 22.5419 10.5285 22.5354 10.5371C22.5583 10.5326 22.5808 10.5284 22.6029 10.5245C22.7692 10.4946 22.929 10.4757 23.0555 10.4843C23.1156 10.4883 23.1979 10.5 23.2735 10.5423C23.3642 10.593 23.455 10.6975 23.455 10.8529C23.455 11.019 23.4029 11.1779 23.3399 11.3143C23.3308 11.3339 23.3213 11.3535 23.3114 11.373C23.3426 11.3447 23.3734 11.3171 23.4036 11.2904C23.5738 11.1398 23.748 10.9977 23.8799 10.9273C23.9352 10.8978 23.9907 10.8717 24.0424 10.8553C24.0682 10.8471 24.102 10.8384 24.1397 10.8358C24.1743 10.8334 24.238 10.8341 24.305 10.8706C24.3849 10.9141 24.4363 10.9904 24.4545 11.0736C24.4698 11.1432 24.4589 11.2025 24.451 11.2342C24.4352 11.2979 24.4041 11.3545 24.3816 11.3921C24.2886 11.5474 24.0865 11.7867 23.8672 12.0357C23.7261 12.1958 23.5727 12.3659 23.42 12.5352C23.332 12.6328 23.2442 12.7301 23.1592 12.825C23.0636 13.1677 22.9186 13.5037 22.759 13.8197C22.5712 14.1916 22.3548 14.5515 22.1624 14.8714C22.1223 14.938 22.0833 15.0029 22.0458 15.0658C22.0277 15.0961 22.0035 15.1389 21.9752 15.1889C21.9002 15.3214 21.7966 15.5044 21.7031 15.6394C21.6437 15.725 21.5546 15.8439 21.4484 15.9074C21.3916 15.9414 21.2759 15.991 21.1452 15.934C21.019 15.8791 20.9668 15.7624 20.9452 15.6941C20.8652 15.4415 20.9141 15.1723 20.9956 14.94C21.079 14.7022 21.2117 14.4608 21.3525 14.2399C21.37 14.2125 21.3878 14.1851 21.4058 14.1577C21.1338 14.4625 20.8563 14.7773 20.5824 15.0909C20.5826 15.0912 20.5828 15.0916 20.5831 15.0919C20.6171 15.1457 20.6423 15.2158 20.6399 15.2969C20.6376 15.376 20.6098 15.4392 20.5816 15.483C20.5318 15.5604 20.4605 15.6084 20.4243 15.6317C20.3903 15.6535 20.351 15.6752 20.3224 15.6909C20.316 15.6944 20.3102 15.6976 20.3051 15.7005C20.2885 15.7097 20.276 15.7169 20.2661 15.7231C20.2558 15.7296 20.2528 15.7322 20.2538 15.7313C20.0733 15.882 19.8614 16.0542 19.6486 16.2272C19.5958 16.2701 19.5429 16.3131 19.4905 16.3558C19.3245 16.5502 19.1658 16.737 19.017 16.9128C17.832 18.3136 16.7107 19.7444 15.6112 21.2205C15.4917 21.381 15.3905 21.5023 15.3052 21.5864C15.2627 21.6282 15.218 21.667 15.1717 21.6971C15.13 21.7242 15.061 21.7617 14.9751 21.7643C14.8673 21.7677 14.7684 21.715 14.7075 21.6226C14.6591 21.5492 14.648 21.4709 14.6446 21.426C14.6374 21.3318 14.654 21.2267 14.6727 21.1386C14.7122 20.9521 14.7876 20.7231 14.8614 20.5278C14.9333 20.3377 15.0154 20.1486 15.0747 20.0517C15.3815 19.5512 15.7408 19.0915 16.1293 18.6614C15.6457 19.0769 15.2907 19.392 15.1917 19.4869C15.0151 19.6566 14.8504 19.8536 14.6743 20.0644L14.6671 20.0731C14.4923 20.2823 14.3054 20.5055 14.1 20.6977C14.0566 20.7383 13.939 20.8388 13.781 20.8041C13.6042 20.7652 13.547 20.6011 13.5315 20.5457C13.5111 20.4732 13.5063 20.3944 13.5057 20.329C13.5051 20.2592 13.5095 20.183 13.5163 20.1067C13.5435 19.8051 13.6174 19.4254 13.6567 19.2315C13.7204 18.9175 13.8184 18.6369 13.9277 18.3745C13.9232 18.3799 13.9186 18.3854 13.914 18.3908C13.5672 18.8062 13.1989 19.2474 12.9574 19.4847C12.6434 19.7932 12.3185 20.0852 11.9972 20.3717C11.9682 20.3976 11.9393 20.4234 11.9104 20.4492C11.6175 20.7103 11.3287 20.9677 11.0484 21.2352C11.0232 21.2592 10.9952 21.284 10.9661 21.3044C10.9516 21.3145 10.9306 21.328 10.9049 21.3394C10.8832 21.349 10.8337 21.3684 10.7699 21.3636C10.6903 21.3576 10.6065 21.3145 10.5547 21.2286C10.5133 21.1598 10.5106 21.0928 10.5109 21.0645C10.5114 21.0065 10.5274 20.9576 10.5337 20.9387C10.5628 20.8519 10.6294 20.7288 10.6722 20.6508C10.8269 20.3687 11.0014 20.1026 11.1925 19.8506C11.1702 19.8167 11.1599 19.786 11.1561 19.7744C11.1495 19.7543 11.1456 19.7364 11.1434 19.7242C11.1351 19.6806 11.1322 19.6295 11.1308 19.5954C11.1276 19.519 11.1285 19.4355 11.1289 19.4195C11.1361 19.1466 11.229 18.9242 11.3059 18.7484C11.3118 18.735 11.3175 18.7218 11.3232 18.7089C11.346 18.657 11.3669 18.6095 11.3854 18.5644C11.34 18.5687 11.2874 18.5658 11.2327 18.5459C11.2296 18.5448 11.2266 18.5436 11.2236 18.5424C11.067 18.6811 10.8996 18.81 10.7179 18.9217C10.6938 18.9364 10.6598 18.9552 10.6197 18.9674C10.5869 18.9774 10.5 18.9989 10.4053 18.9511C10.2911 18.8933 10.2541 18.7834 10.2456 18.7181C10.238 18.6597 10.2474 18.61 10.253 18.5848C10.274 18.4911 10.3332 18.3751 10.3785 18.2896C10.4217 18.208 10.4732 18.1171 10.5208 18.033C10.5303 18.0163 10.5396 17.9997 10.5487 17.9836C10.6063 17.8816 10.6516 17.7996 10.6765 17.7461C10.8355 17.404 11.0003 17.0656 11.1655 16.7299C11.1695 16.7217 11.1736 16.7135 11.1776 16.7054C10.984 16.857 10.7847 17.0008 10.5781 17.1313C10.5716 17.1354 10.5637 17.1407 10.5503 17.1498C10.5384 17.1578 10.5223 17.1687 10.5057 17.1792C10.4785 17.1964 10.4213 17.2317 10.3543 17.2481C10.3185 17.2569 10.2605 17.2653 10.1942 17.2469C10.1198 17.2262 10.0565 17.1775 10.0146 17.1098C9.94674 16.9998 9.95652 16.8747 9.96385 16.8121C10.0014 16.4914 10.0903 16.1787 10.2137 15.8769C9.98962 16.1231 9.77205 16.3755 9.56194 16.635C9.46001 16.7609 9.28702 17.0777 9.14188 17.3517C9.12769 17.3785 9.11373 17.4049 9.10021 17.4306C9.05005 17.5255 9.00591 17.6091 8.9786 17.6565C8.97062 17.6703 8.95816 17.6915 8.94458 17.7103C8.94187 17.7142 8.918 17.7484 8.88021 17.7764C8.86789 17.7856 8.84433 17.8016 8.81139 17.8135C8.77868 17.8253 8.71886 17.8393 8.64805 17.8177C8.48356 17.7675 8.45837 17.6062 8.45533 17.5837C8.44977 17.5426 8.45424 17.5097 8.45554 17.5002C8.4575 17.4859 8.4601 17.4742 8.46181 17.467C8.46528 17.4525 8.46936 17.4393 8.47238 17.4299C8.47869 17.4104 8.48708 17.3874 8.49646 17.3627C8.5715 17.1651 8.69235 16.9446 8.81951 16.7263C8.87567 16.6299 8.93187 16.5358 8.98817 16.4416C9.06625 16.3109 9.14449 16.1799 9.22301 16.042C9.22304 16.042 9.22298 16.0421 9.22301 16.042C9.20809 16.0437 9.19176 16.0442 9.17421 16.0431C8.60663 16.5534 8.06603 17.0814 7.57288 17.6443L7.55956 17.6637C7.55554 17.6696 7.55093 17.6765 7.54582 17.684C7.5341 17.7013 7.5198 17.7224 7.5042 17.7453C7.45897 17.8115 7.39833 17.8989 7.3341 17.9846C7.2715 18.0682 7.19869 18.1595 7.12946 18.2288C7.09613 18.2622 7.0522 18.3021 7.00212 18.3321C6.96962 18.3515 6.84397 18.423 6.70192 18.3539C6.63135 18.3196 6.56878 18.2667 6.52389 18.1936C6.47997 18.1221 6.46213 18.0463 6.45744 17.9793C6.44869 17.8544 6.48393 17.7336 6.51651 17.6453C6.56241 17.5208 6.64115 17.3711 6.69591 17.2669C6.7157 17.2293 6.73237 17.1976 6.74322 17.1752C6.89085 16.8706 7.05001 16.572 7.21755 16.2789C7.21477 16.2699 7.21258 16.2617 7.21082 16.2547C7.19995 16.211 7.19488 16.1647 7.19203 16.125C7.18524 16.1304 7.17816 16.1358 7.1709 16.1411C7.15973 16.1491 7.12793 16.1719 7.08602 16.1867C7.06738 16.1933 7.01429 16.2105 6.94706 16.1979C6.85767 16.1811 6.77672 16.1171 6.74034 16.0195C6.71314 15.9465 6.72193 15.8831 6.72557 15.8611C6.73026 15.8327 6.73794 15.81 6.74289 15.7967C6.76023 15.75 6.78936 15.7011 6.81341 15.6626C6.84157 15.6175 6.87952 15.5608 6.92803 15.4911C6.99383 15.3966 7.08413 15.2709 7.19006 15.1254C7.18975 15.1145 7.18942 15.1036 7.18906 15.0928C7.12611 15.1684 7.05583 15.2526 6.98397 15.3337C6.89248 15.4369 6.79107 15.5435 6.68718 15.631C6.5882 15.7143 6.46207 15.8019 6.32139 15.8341C6.25712 15.8488 6.15089 15.8554 6.05213 15.7826C5.95351 15.71 5.92456 15.6039 5.91635 15.541C5.90151 15.4274 5.93364 15.3083 5.95648 15.2351C6.00913 15.0662 6.10238 14.8747 6.1617 14.7697C6.20819 14.6874 6.2556 14.6063 6.30388 14.526C6.29827 14.5307 6.29266 14.5353 6.28704 14.54C5.99045 14.7886 5.72464 15.122 5.58782 15.3205C5.52764 15.4078 5.4748 15.5147 5.42661 15.622C5.41166 15.6552 5.40018 15.6816 5.38877 15.7077C5.37987 15.7281 5.37102 15.7484 5.36058 15.7719C5.34191 15.8138 5.31798 15.8664 5.29221 15.9085C5.28058 15.9275 5.25622 15.9656 5.21827 15.999C5.18331 16.0298 5.07421 16.1082 4.93323 16.0526C4.81784 16.0071 4.77523 15.9034 4.7651 15.8781C4.74937 15.8387 4.74143 15.7994 4.73675 15.7713C4.71881 15.6633 4.71272 15.4773 4.71047 15.2109C4.70737 14.8438 4.72639 14.4499 4.74522 14.0601C4.74608 14.0424 4.74693 14.0246 4.74779 14.0069C4.67713 14.0661 4.60385 14.1266 4.53246 14.1837C4.49975 14.2098 4.46654 14.236 4.43339 14.2614C4.39999 14.2985 4.35777 14.3485 4.308 14.4081C4.29932 14.4185 4.29046 14.4291 4.28146 14.4399C4.2234 14.5096 4.15948 14.5863 4.10085 14.652C4.06679 14.6902 4.03159 14.728 3.99775 14.7608C3.96715 14.7904 3.92469 14.8288 3.87731 14.8568C3.85466 14.8702 3.81198 14.8928 3.75657 14.9008C3.69431 14.9098 3.59753 14.901 3.51714 14.8209C3.4467 14.7506 3.43079 14.6658 3.42644 14.6247C3.42166 14.5795 3.42569 14.5385 3.42999 14.5094C3.46049 14.303 3.53262 14.1172 3.61441 13.9512C3.61928 13.6367 3.64376 13.3272 3.68558 13.0225C3.60665 13.0399 3.5075 13.0363 3.41267 12.9714C3.30926 12.9006 3.26256 12.7905 3.23926 12.7076C3.2146 12.6199 3.2034 12.5171 3.20001 12.4048C3.19603 12.2725 3.19401 12.1403 3.19321 12.0087C3.15732 12.0711 3.12206 12.1337 3.08748 12.1966C3.07017 12.2281 3.04882 12.26 3.02797 12.2865C3.01763 12.2997 3.00364 12.3164 2.98702 12.3327C2.97876 12.3408 2.96647 12.3521 2.95089 12.3636C2.93834 12.3729 2.90787 12.3943 2.86441 12.4073C2.82156 12.4202 2.71676 12.4377 2.61939 12.357C2.53087 12.2836 2.51811 12.1846 2.51563 12.1521C2.51152 12.0982 2.52275 12.0514 2.52923 12.029C2.48429 11.9994 2.45019 11.9602 2.42637 11.9203C2.40701 11.8878 2.39364 11.8538 2.38447 11.8205C2.35293 11.8227 2.31815 11.8192 2.28063 11.8068C2.20372 11.7813 2.15736 11.7287 2.13354 11.6934C2.11 11.6585 2.09748 11.6248 2.09077 11.6037C2.07737 11.5617 2.0715 11.5188 2.06816 11.4869C2.06111 11.4193 2.05884 11.3294 2.05884 11.2216C2.05884 10.8791 2.11464 10.5331 2.21135 10.2027C1.97559 10.4182 1.7425 10.6365 1.51238 10.8577C1.46785 10.9006 1.41659 10.9584 1.35706 11.0256L1.34529 11.0389C1.28851 11.103 1.2157 11.1851 1.15117 11.2397C1.12485 11.262 1.06446 11.3116 0.985448 11.3315C0.939864 11.343 0.865133 11.3503 0.785882 11.3106C0.703549 11.2694 0.65934 11.1992 0.638045 11.144C0.603145 11.0535 0.612078 10.9599 0.617833 10.9122C0.625301 10.8502 0.640524 10.778 0.661326 10.6969C0.752363 10.3422 0.940938 10.0449 1.15016 9.7924C1.34008 9.56314 1.5588 9.35745 1.75162 9.17612C1.76966 9.15915 1.78747 9.1424 1.80502 9.12585C1.81883 9.11283 1.83266 9.09983 1.8465 9.08685C1.79496 9.10678 1.71799 9.12065 1.63334 9.08431C1.53433 9.04181 1.49032 8.95823 1.47318 8.91493C1.45537 8.86993 1.44997 8.82836 1.44782 8.80392C1.44003 8.71541 1.4578 8.62006 1.46307 8.59651C1.52283 8.32908 1.65127 8.06315 1.78524 7.82807C1.89205 7.64067 2.01133 7.45801 2.11409 7.30065C2.12323 7.28664 2.13224 7.27285 2.1411 7.25926C1.82612 7.4408 1.51982 7.60138 1.28093 7.69271C1.14826 7.74343 0.987411 7.79314 0.84912 7.77652C0.772379 7.76731 0.655828 7.73131 0.580742 7.61107C0.508759 7.49581 0.518615 7.37179 0.535712 7.29378C0.702164 6.53425 1.22234 6.00477 1.66879 5.55032C1.72542 5.49268 1.78087 5.43624 1.83425 5.38069C2.31945 4.87586 2.87925 4.455 3.43406 4.05851C3.54371 3.98015 3.65293 3.9029 3.76144 3.82614C4.20816 3.51016 4.64274 3.20276 5.04461 2.86271C5.16077 2.76442 5.33066 2.78383 5.42407 2.90605C5.51748 3.02827 5.49904 3.20703 5.38288 3.30532C4.96121 3.66212 4.50249 3.9865 4.05415 4.30354C3.94775 4.37878 3.84194 4.45361 3.73734 4.52836C3.18578 4.92252 2.66133 5.31891 2.21379 5.78455C2.15686 5.84379 2.10047 5.90166 2.04501 5.9586C1.66392 6.34974 1.32605 6.69653 1.149 7.13805C1.3894 7.03906 1.7207 6.85886 2.07507 6.6478C2.83049 6.19785 3.6299 5.64463 3.7195 5.58023C4.19974 5.23508 4.62592 4.85377 5.04897 4.45468C5.17222 4.33841 5.29595 4.21989 5.42084 4.10025C5.72068 3.81303 6.02725 3.51937 6.35007 3.23493C6.37458 3.21334 6.40282 3.18819 6.43139 3.16275C6.46666 3.13135 6.50242 3.0995 6.53226 3.07336C6.58526 3.02693 6.64816 2.97289 6.69604 2.94117C6.70835 2.93301 6.73047 2.91897 6.7575 2.90749C6.77073 2.90187 6.79546 2.89235 6.8273 2.88764C6.85511 2.88353 6.92233 2.87781 6.99495 2.9181C7.0825 2.96666 7.1244 3.05096 7.13659 3.12163C7.13943 3.13808 7.14071 3.15364 7.14098 3.16795C7.20068 3.12541 7.25897 3.08024 7.32172 3.03161C7.37645 2.98919 7.43458 2.94415 7.49998 2.89594C7.66763 2.77237 7.86555 2.64349 8.10048 2.57752C8.18808 2.55292 8.35117 2.52081 8.48793 2.62643C8.64794 2.75001 8.63428 2.94303 8.62071 3.02367C8.6046 3.11937 8.56516 3.2168 8.52523 3.30036C8.4833 3.3881 8.4311 3.48028 8.37642 3.56958C8.1617 3.92025 7.85954 4.30281 7.86567 4.29439C7.25354 5.13513 6.60969 5.84796 5.88508 6.4981C6.09644 6.34924 6.31352 6.20112 6.52998 6.05342C6.76857 5.89062 7.0064 5.72834 7.23498 5.56615C7.55024 5.34245 7.85535 5.1141 8.14021 4.87359C8.16835 4.83265 8.19695 4.79161 8.22592 4.75093C8.40928 4.49343 8.62644 4.22228 8.88774 4.03655C8.91903 4.01431 8.95119 3.99333 8.98265 3.97712C8.9984 3.96899 9.01922 3.95932 9.04338 3.9517C9.06443 3.94506 9.10672 3.9338 9.15915 3.93903C9.21872 3.94498 9.30287 3.97493 9.36101 4.06166C9.41246 4.13842 9.41372 4.21655 9.41138 4.25289C9.40705 4.31994 9.38183 4.37258 9.37439 4.38811C9.35297 4.43284 9.32328 4.47672 9.3051 4.50239C9.28675 4.5283 9.26434 4.55781 9.24839 4.57566C9.02848 4.8217 8.78827 5.05078 8.53615 5.2671C8.50468 5.31345 8.47336 5.36009 8.44191 5.40693C8.42883 5.42641 8.41573 5.44593 8.40258 5.46548C8.31896 5.58978 8.23341 5.71539 8.14729 5.82847C8.13592 5.84341 8.12455 5.85834 8.11317 5.87327C8.11043 5.8794 8.10801 5.88441 8.1062 5.88811C8.07241 5.95738 8.00572 6.05033 7.94752 6.12854C7.86353 6.24141 7.75269 6.3813 7.66577 6.49098C7.6239 6.54382 7.58759 6.58965 7.56251 6.62208C6.92546 7.44555 6.28388 8.30588 5.73185 9.20952C5.90076 9.08563 6.0607 8.97037 6.19203 8.87925C6.28727 8.81317 6.37197 8.75662 6.43555 8.71847C6.46529 8.70062 6.50064 8.68052 6.53403 8.66643C6.54649 8.66117 6.58264 8.64605 6.6277 8.64169C6.64868 8.63966 6.70287 8.63638 6.76422 8.66422C6.84301 8.69998 6.90573 8.77509 6.92415 8.8721C6.93196 8.91319 6.93171 8.95218 6.92849 8.98516C7.27702 8.47324 7.62999 7.96474 7.98675 7.45922C8.05167 7.35179 8.1194 7.24679 8.18773 7.14508C8.35172 6.90096 8.52687 6.66503 8.68901 6.44916C8.71273 6.41758 8.7361 6.38651 8.7591 6.35595C8.89524 6.175 9.01799 6.01187 9.11883 5.86608C9.17877 5.77942 9.25861 5.64752 9.34651 5.5023C9.41394 5.39091 9.48611 5.27169 9.55768 5.15903C9.6288 5.04709 9.71132 4.92237 9.7792 4.85343C9.79566 4.83672 9.83079 4.80254 9.87963 4.77844C9.905 4.76591 9.95208 4.74698 10.0129 4.74899C10.0827 4.7513 10.153 4.78113 10.2062 4.83919C10.2528 4.89015 10.2709 4.94594 10.2785 4.97845C10.2865 5.01257 10.2879 5.04272 10.2878 5.06314C10.2878 5.10368 10.2819 5.14286 10.276 5.17405C10.229 5.42102 10.0874 5.60418 9.96548 5.73996C9.92366 5.78656 9.87721 5.83483 9.8351 5.87859C9.81692 5.89748 9.79955 5.91554 9.78371 5.93225C9.72679 5.9923 9.6798 6.04498 9.64183 6.09698C9.23456 6.65474 8.83138 7.21534 8.43313 7.7794C8.38342 7.86231 8.33709 7.94423 8.2948 8.02487C8.31955 7.99888 8.3431 7.9744 8.36507 7.95207C8.46952 7.84591 8.56868 7.73684 8.67202 7.62318C8.71004 7.58136 8.74863 7.53891 8.78826 7.49576C8.93241 7.33879 9.08598 7.1774 9.25573 7.02958C9.29138 6.99854 9.33249 6.9542 9.38886 6.89233L9.39573 6.88478C9.44602 6.82957 9.50754 6.76201 9.57178 6.70325C9.63721 6.6434 9.72554 6.57344 9.83177 6.53536C9.91558 6.50531 10.0102 6.49568 10.1062 6.52159C10.1964 6.51373 10.2973 6.53355 10.3858 6.61462C10.4984 6.71772 10.523 6.86354 10.5299 6.94853C10.5379 7.04569 10.5292 7.15062 10.5154 7.24735C10.4982 7.36781 10.469 7.49961 10.4365 7.62555C10.5379 7.52893 10.6391 7.43256 10.7401 7.3364C10.9696 7.11781 11.1981 6.90029 11.4244 6.6834C11.6505 6.46679 11.8619 6.22528 12.0795 5.97677C12.1491 5.89724 12.2193 5.81701 12.2909 5.73664C12.3174 5.70692 12.3464 5.67727 12.3734 5.65239C12.3868 5.64003 12.4018 5.62689 12.4172 5.61479C12.428 5.60635 12.4558 5.5848 12.4913 5.56874L12.492 5.5684C12.5042 5.56285 12.5595 5.53776 12.6319 5.54581C12.6765 5.55077 12.7389 5.56989 12.7929 5.62496C12.8469 5.67994 12.8669 5.74474 12.8731 5.79103C12.8832 5.86637 12.8617 5.92517 12.8568 5.93848L12.8566 5.93926C12.8484 5.96154 12.8391 5.9796 12.833 5.99078C12.8106 6.03171 12.7753 6.08013 12.7357 6.13102C12.2099 6.80777 11.6395 7.4575 11.0687 8.08755C11.0921 8.06902 11.1156 8.05047 11.1391 8.03188C11.4026 7.82306 11.6661 7.61386 11.9298 7.40455C13.6177 6.0646 15.3116 4.71991 17.0461 3.43869C17.1059 3.39452 17.1692 3.33601 17.2452 3.26343C17.2544 3.25465 17.2638 3.24564 17.2734 3.23645C17.3386 3.17393 17.4127 3.10286 17.4886 3.03978C17.6559 2.90058 17.9063 2.73509 18.2127 2.8068C18.2361 2.81225 18.3618 2.84164 18.4216 2.97852C18.4905 3.13624 18.4044 3.26379 18.3871 3.28806C18.3596 3.3266 18.3277 3.35391 18.3108 3.36776C18.2906 3.38433 18.2694 3.39945 18.2513 3.41186C18.2314 3.42548 18.2031 3.44389 18.1795 3.45919C18.1667 3.46749 18.1553 3.47488 18.1475 3.48009C18.1234 3.49608 18.1116 3.50493 18.1075 3.50804C18.1057 3.5094 18.1054 3.50966 18.1061 3.50895C17.8973 3.7167 17.8346 3.79176 17.7046 3.94712C17.6545 4.00713 17.5943 4.07912 17.5118 4.17536C17.1065 4.64808 16.6831 5.06095 16.218 5.46113C15.6096 5.98458 14.9985 6.49507 14.3904 7.00301C13.9736 7.3512 13.5582 7.6982 13.1461 8.04736C13.1483 8.07671 13.1462 8.10065 13.1444 8.11545C13.1401 8.15015 13.1314 8.17996 13.1243 8.20094C13.1099 8.24333 13.0892 8.28693 13.0676 8.32792C12.7702 8.89371 12.3986 9.44073 11.9946 9.9706C12.1901 9.77199 12.3896 9.57672 12.5932 9.38508C13.211 8.80381 13.8587 8.2608 14.4994 7.7237L14.539 7.69051C15.1946 7.14083 15.8423 6.59641 16.4563 6.0135C16.9414 5.55295 17.3583 5.01126 17.7903 4.45001C17.8132 4.42032 17.8361 4.39057 17.859 4.36077C18.3104 3.77483 18.7821 3.17241 19.3493 2.67477C19.4301 2.60382 19.4973 2.54804 19.5503 2.5086C19.5764 2.4892 19.6041 2.46996 19.6314 2.45432C19.6451 2.4465 19.663 2.43706 19.6837 2.42888C19.7011 2.42198 19.738 2.40878 19.785 2.40762C19.8334 2.40642 19.9314 2.41883 20.0054 2.51202C20.0737 2.59796 20.072 2.69207 20.0687 2.72912C20.0625 2.79821 20.0339 2.85322 20.0252 2.87001L20.0247 2.87098C19.999 2.92058 19.9597 2.97779 19.9194 3.03294C19.754 3.25914 19.4082 3.66799 18.995 4.1376C19.0187 4.12003 19.0413 4.10431 19.0629 4.09072C19.097 4.06925 19.1477 4.04044 19.2064 4.02716C19.2622 4.01452 19.4166 4.00129 19.5143 4.15083C19.5842 4.25776 19.5649 4.37113 19.5605 4.39667L19.5604 4.39728C19.5475 4.47301 19.5121 4.55136 19.4911 4.59636C19.4724 4.63661 19.4503 4.6803 19.4325 4.71549C19.4269 4.72645 19.4218 4.73659 19.4173 4.74555C19.3527 4.87466 19.2825 4.99915 19.2163 5.1166C19.149 5.23598 19.0856 5.34849 19.0281 5.46283C18.9904 5.53783 18.9456 5.62279 18.8967 5.71566C18.8026 5.89408 18.6932 6.10166 18.589 6.32383C18.8979 6.02904 19.2083 5.73681 19.5201 5.44726C19.5786 5.3631 19.638 5.27684 19.6985 5.18911C19.9785 4.783 20.2802 4.34528 20.6031 3.93793C21.0642 3.35621 21.5913 2.805 22.2123 2.446C22.2944 2.39857 22.4471 2.33057 22.6013 2.33868C22.6852 2.34308 22.8039 2.37281 22.8929 2.48248ZM17.7211 7.16319C17.7361 7.08387 17.7552 7.00383 17.7773 6.92383C17.6684 7.09047 17.5606 7.25789 17.4539 7.42608C17.5428 7.33825 17.6319 7.25062 17.7211 7.16319ZM15.8423 9.05831C16.2436 8.34032 16.6682 7.63557 17.1108 6.9447C17.0175 7.0622 16.9244 7.18007 16.8314 7.2979C16.6844 7.48422 16.5374 7.67042 16.3895 7.8548C16.342 7.914 16.2924 7.97771 16.2414 8.04328C16.1455 8.16639 16.0445 8.29605 15.9429 8.41472C15.8838 8.48366 15.8296 8.54248 15.7839 8.57984C15.7715 8.59002 15.7534 8.60381 15.7314 8.61641C15.7156 8.62542 15.6672 8.65228 15.6009 8.65455C15.5632 8.65585 15.5112 8.6494 15.4582 8.61854C15.4031 8.58652 15.3662 8.53942 15.3444 8.49285C15.3074 8.41363 15.3159 8.34096 15.3183 8.32138C15.3246 8.27041 15.3424 8.2268 15.3501 8.20822C15.3607 8.18256 15.3735 8.15609 15.3865 8.13099C15.4126 8.08035 15.4464 8.02171 15.4829 7.96188C15.5565 7.84137 15.6334 7.72343 15.7133 7.60787C15.4713 7.85305 15.229 8.10181 14.9857 8.35155C14.2406 9.11667 13.4864 9.89103 12.701 10.6002C12.5964 10.7231 12.4445 10.8712 12.2869 11.0187C12.1001 11.1935 11.8929 11.379 11.6952 11.5559C11.6769 11.5723 11.6586 11.5887 11.6404 11.605C11.6311 11.621 11.6219 11.637 11.6127 11.6531C11.4478 11.9419 11.2933 12.2401 11.1605 12.5002C11.1388 12.5426 11.1176 12.5844 11.0968 12.6251C10.9934 12.8283 10.9028 13.0064 10.8377 13.1178C10.5214 13.6598 10.272 14.0984 10.0186 14.5818C10.019 14.582 10.0195 14.5823 10.02 14.5825C10.0379 14.5677 10.0558 14.5529 10.0737 14.538C10.0748 14.5371 10.0759 14.5362 10.0771 14.5352C10.1474 14.4524 10.2178 14.3676 10.2884 14.2814C10.3779 14.1721 10.4681 14.0601 10.5584 13.9479C10.8637 13.5686 11.1721 13.1856 11.4723 12.886C12.524 11.8366 13.727 10.7117 14.9909 9.88785C15.0278 9.86375 15.0693 9.83941 15.1116 9.82241C15.1134 9.8217 15.1152 9.82099 15.1171 9.82027C15.3573 9.56488 15.5991 9.31087 15.8423 9.05831ZM12.067 14.0726C11.8236 14.358 11.5777 14.6593 11.3519 14.9764C11.0088 15.4584 10.7302 15.9537 10.5875 16.4506C10.9391 16.1992 11.2768 15.907 11.6171 15.5993C11.6879 15.5353 11.7589 15.4705 11.8303 15.4052C12.186 14.711 12.5516 14.0219 12.9299 13.3401C12.6382 13.5803 12.3501 13.824 12.067 14.0726ZM14.0876 12.4147C13.7317 13.0206 13.3875 13.6341 13.0527 14.2536C13.8259 13.2471 14.6514 12.2946 15.4846 11.3385C15.4184 11.3893 15.3521 11.4401 15.2858 11.4908C14.8856 11.7975 14.4851 12.1045 14.0876 12.4147ZM18.011 9.38693C17.3406 10.1002 16.6764 10.8114 16.0386 11.5432L16.015 11.5703C15.6866 11.9471 15.3608 12.3208 15.04 12.6952C15.7533 12.0885 16.4609 11.4732 17.1696 10.857C17.7116 10.3858 18.2541 9.91397 18.8004 9.445C18.8266 9.42252 18.865 9.38948 18.9131 9.34794C18.919 9.3429 18.925 9.33774 18.9311 9.33245C18.897 9.25916 18.894 9.18574 18.8931 9.15445C18.8904 9.06079 18.9064 8.94143 18.9262 8.82533C18.9349 8.77469 18.9451 8.7203 18.9566 8.66303C18.7456 8.82493 18.5345 8.9864 18.3236 9.14771C18.2193 9.22748 18.1151 9.30721 18.011 9.38693ZM19.6268 8.14654C19.5822 8.33512 19.5399 8.51678 19.5061 8.67637C19.534 8.65289 19.5629 8.62818 19.5927 8.60228C19.6722 8.53328 19.7624 8.45224 19.8569 8.36743C19.9878 8.24991 20.1268 8.12515 20.2563 8.01513C20.4885 7.81782 20.7397 7.62361 20.9886 7.49574C21.0029 7.48835 21.0175 7.48111 21.0321 7.47403C21.1539 7.28713 21.2736 7.10025 21.3913 6.91375C21.4432 6.83162 21.5073 6.71955 21.578 6.59078C20.9378 7.12117 20.2843 7.63721 19.6268 8.14654ZM19.6783 9.4236C19.5104 9.56744 19.3636 9.69395 19.2594 9.78372C19.2096 9.82659 19.1696 9.86108 19.1417 9.88509C18.6012 10.3491 18.062 10.8179 17.522 11.2874C16.1209 12.5057 14.714 13.729 13.263 14.8864C12.8523 15.4338 12.4596 15.997 12.0909 16.5865C11.9209 16.8584 11.8045 17.0445 11.7222 17.2039C11.9045 16.9937 12.0937 16.7789 12.2903 16.585C14.1134 14.7871 15.551 13.3944 17.4159 11.6251C17.668 11.3858 18.035 11.0261 18.4381 10.631L18.4946 10.5756C18.8847 10.1932 19.3038 9.78277 19.6783 9.4236ZM15.0538 14.9951C15.0373 15.0088 15.0208 15.0225 15.0043 15.0362C14.2322 15.6778 13.4693 16.3116 12.7546 17.0015C12.6712 17.082 12.5991 17.1528 12.5365 17.2167C13.3989 16.5796 14.1943 15.8369 14.9955 15.0741C15.0149 15.0477 15.0343 15.0214 15.0538 14.9951ZM12.2452 18.101C12.1706 18.1499 12.0955 18.1979 12.0197 18.2452C12.0141 18.2819 12.0086 18.3206 12.003 18.3615C12.0009 18.3772 11.9985 18.3927 11.9959 18.408C12.0777 18.3043 12.1608 18.2021 12.2452 18.101ZM12.8867 18.1997C13.002 18.1125 13.1191 18.0274 13.2376 17.9442C13.2481 17.9086 13.259 17.8733 13.2701 17.8387C13.2804 17.8066 13.2914 17.7737 13.303 17.7409C13.1606 17.8926 13.0219 18.0452 12.8867 18.1997ZM11.0428 21.1276C11.043 21.1271 11.0431 21.1266 11.0433 21.126C11.0422 21.13 11.0417 21.1307 11.0428 21.1276ZM14.8863 17.5696C14.8078 17.7578 14.7226 17.9405 14.6412 18.115C14.5946 18.2149 14.5493 18.312 14.5072 18.4061C14.3697 18.7131 14.253 19.0129 14.1846 19.3501C14.1567 19.4875 14.1152 19.7011 14.0846 19.9078C14.1428 19.8402 14.2015 19.7701 14.2616 19.6981L14.2775 19.6791C14.4472 19.476 14.6289 19.2584 14.8279 19.0674C15.0465 18.8575 16.3243 17.7396 17.5776 16.7289C17.7807 16.5651 17.9839 16.4036 18.1824 16.2487C18.3146 16.029 18.4472 15.8096 18.5804 15.5905C18.0092 15.9238 17.3925 16.243 16.7682 16.5652L16.7211 16.5895C16.1086 16.9057 15.4886 17.2257 14.8863 17.5696ZM19.6063 14.9654C19.5752 15.0156 19.5442 15.0658 19.5132 15.116C19.5698 15.0496 19.6266 14.9832 19.6834 14.9169C19.6576 14.9332 19.6319 14.9493 19.6063 14.9654ZM16.8291 18.7233C16.3401 19.2268 15.8938 19.7633 15.5284 20.3595C15.5131 20.3844 15.4869 20.4377 15.4547 20.5114C15.9074 19.9087 16.3646 19.313 16.8291 18.7233ZM14.8885 21.2135C14.8869 21.2144 14.8862 21.2149 14.8863 21.2149C14.8864 21.2149 14.887 21.2145 14.888 21.2138M20.3265 13.8159C20.8074 13.0584 21.2972 12.3077 21.7987 11.5656C21.8406 11.5413 21.8769 11.5049 21.9024 11.4579C21.9421 11.3849 21.9829 11.3134 22.0249 11.2427C22.276 11.1737 22.5061 11.118 22.6936 11.0843C22.7558 11.0732 22.8104 11.065 22.8574 11.0595C22.8564 11.0616 22.8554 11.0638 22.8544 11.066C22.8102 11.1616 22.7462 11.2662 22.6694 11.3767C22.593 11.4868 22.5093 11.5952 22.4274 11.7012L22.4208 11.7097C22.3439 11.8093 22.2649 11.9114 22.2054 12.0009C21.7411 12.6993 21.0608 13.2919 20.3265 13.8159ZM21.6842 10.7509C21.7958 10.574 21.912 10.4029 22.0295 10.2323C21.8087 10.4414 21.5852 10.6464 21.3596 10.848C21.3624 10.8471 21.3653 10.8462 21.3682 10.8453C21.474 10.8128 21.5798 10.7811 21.6842 10.7509ZM20.2514 11.0747C20.1534 11.1578 20.0551 11.2405 19.9564 11.3229C19.6641 11.4308 19.4324 11.5234 19.3467 11.5698C18.9706 11.7736 18.6106 11.9992 18.2631 12.2411C18.6398 11.7795 19.0561 11.3439 19.4818 10.8986C19.5418 10.8357 19.6021 10.7727 19.6624 10.7094C20.1543 10.1932 20.6505 9.65973 21.0782 9.07335C21.1347 8.99599 21.18 8.92949 21.2121 8.8751C21.2279 8.84839 21.2444 8.81805 21.2574 8.78667L21.2578 8.78578C21.2659 8.76643 21.2947 8.69729 21.2861 8.61207C21.2833 8.58363 21.2756 8.54852 21.2591 8.51269C21.2898 8.47344 21.319 8.43555 21.3466 8.39929C21.3862 8.34723 21.4234 8.29715 21.4571 8.25018C21.4025 8.44202 21.3239 8.66636 21.2341 8.89925C21.0191 9.45689 20.7583 10.0184 20.6676 10.2136C20.6549 10.2409 20.6455 10.261 20.6401 10.273C20.5659 10.4363 20.4907 10.5814 20.4283 10.6976C20.4084 10.7346 20.3881 10.7716 20.3692 10.8062C20.3341 10.8703 20.3035 10.9263 20.2877 10.9594L20.2872 10.9604C20.2822 10.9709 20.2669 11.003 20.2579 11.04C20.256 11.0478 20.2534 11.0597 20.2514 11.0747ZM14.9065 16.9141C15.4301 16.6232 15.9609 16.3493 16.4779 16.0824L16.5305 16.0553C17.2636 15.6769 17.9661 15.3129 18.5958 14.9286L18.6574 14.891C18.8425 14.7781 19.0321 14.6624 19.2233 14.5435C19.8601 13.5168 20.5114 12.4994 21.1838 11.4965C20.8563 11.6024 20.5375 11.7126 20.2693 11.8097C20.2527 11.8158 20.2362 11.8217 20.2201 11.8276C19.6348 12.3143 19.0414 12.7867 18.4485 13.2561C18.3648 13.3224 18.2812 13.3886 18.1975 13.4549C17.4151 14.074 16.6356 14.6908 15.875 15.3331C15.5019 15.8347 15.1314 16.3389 14.7614 16.8438C14.8139 16.8524 14.8646 16.8761 14.9065 16.9141ZM13.7349 20.2786C13.735 20.2783 13.7371 20.2763 13.7412 20.2734C13.7369 20.2774 13.7349 20.2789 13.7349 20.2786ZM11.2012 19.5274C11.2009 19.5279 11.2006 19.5284 11.2004 19.5287L11.2 19.5293C11.2004 19.5287 11.2008 19.5281 11.2012 19.5274ZM19.2901 7.20276C19.0275 7.49123 18.7618 7.77785 18.4945 8.0639C18.2784 8.29509 18.0612 8.52609 17.8436 8.75739C17.7818 8.82306 17.72 8.88875 17.6583 8.95448C17.1901 9.31298 16.7218 9.67293 16.2555 10.038C16.1807 10.0966 16.1055 10.1552 16.0301 10.2138C16.1149 10.1313 16.2113 10.0302 16.3102 9.92276C16.4164 9.80733 16.5279 9.68206 16.6343 9.56042C17.1157 9.11767 17.5916 8.66828 18.0555 8.20816C18.1014 8.20875 18.1414 8.19866 18.1708 8.18768C18.2612 8.15395 18.3295 8.08354 18.3632 8.04703C18.4264 7.97866 18.4942 7.88354 18.5335 7.82844C18.5425 7.81581 18.55 7.80528 18.5556 7.79766C18.598 7.74005 18.6868 7.61382 18.7981 7.45424C18.97 7.33131 19.1388 7.2271 19.3014 7.14882C19.2978 7.16644 19.294 7.18443 19.2901 7.20276ZM19.8374 6.59316C19.823 6.57063 19.8041 6.54729 19.7791 6.52599C19.74 6.49263 19.6969 6.47311 19.6541 6.46431C19.9129 6.14453 20.1626 5.81993 20.4097 5.49871L20.4118 5.49591C20.496 5.38647 20.5799 5.27743 20.6638 5.16897C20.6795 5.15587 20.6954 5.14269 20.7114 5.12944C20.8145 5.04385 20.9213 4.9552 21.0254 4.86397C21.2694 4.65025 21.5151 4.40873 21.709 4.11182C21.769 4.01988 21.886 3.8356 21.9706 3.69187C22.0092 3.62622 22.0527 3.54972 22.075 3.49563C22.0796 3.48443 22.0931 3.45156 22.0996 3.41114C22.102 3.39592 22.1111 3.33809 22.0897 3.26977C22.0847 3.25397 22.0777 3.23642 22.068 3.21837C22.1813 3.1299 22.2973 3.04904 22.4161 2.977C22.3487 3.24501 22.1934 3.55572 21.9904 3.87732C21.7645 4.2352 21.5027 4.57183 21.2975 4.83561C21.2773 4.86164 21.2576 4.88697 21.2385 4.91153C20.7919 5.48734 20.3217 6.04507 19.8374 6.59316ZM15.2105 10.8455C15.3847 10.712 15.5582 10.5788 15.7308 10.4456C15.7233 10.4488 15.7155 10.4518 15.7074 10.4546C15.6914 10.46 15.6642 10.4682 15.6297 10.4707C15.49 10.596 15.3502 10.7208 15.2105 10.8455ZM9.35601 14.6765C9.67848 14.0381 9.96876 13.5222 10.352 12.8648C10.1508 13.0725 9.95077 13.2801 9.75115 13.4878C9.57961 13.7198 9.41003 13.9541 9.242 14.1906C9.05214 14.4578 8.86316 14.7264 8.67775 14.9974C8.68485 14.9936 8.69195 14.9899 8.69904 14.9861C8.929 14.8651 9.15949 14.7556 9.35601 14.6765ZM7.94569 16.1226C8.00767 16.0704 8.08592 16.0117 8.17758 15.9486C8.39418 15.7994 8.66888 15.6372 8.94062 15.4941C8.94968 15.4893 8.95873 15.4845 8.96776 15.4798C8.96723 15.4812 8.96669 15.4825 8.96616 15.4838C8.45406 15.9384 7.95736 16.4098 7.49276 16.9088C7.63607 16.643 7.78776 16.3812 7.94569 16.1226ZM8.846 12.9082C9.2485 12.3816 9.71015 11.8454 10.1736 11.3071C10.3968 11.0478 10.6205 10.7881 10.8381 10.5287C11.0061 10.3285 11.1712 10.1277 11.3313 9.92611C10.6998 10.5435 9.71071 11.5155 9.18861 12.0527C9.11516 12.1282 9.006 12.2559 8.88902 12.3928C8.82049 12.4729 8.74928 12.5562 8.68101 12.634C8.59898 12.7274 8.50923 12.8268 8.44526 12.8794C8.43086 12.8912 8.39758 12.918 8.3545 12.9365C8.33495 12.9448 8.28315 12.9651 8.21596 12.9576C8.19327 12.955 8.17075 12.9495 8.14907 12.941C7.8913 13.2483 7.64279 13.5553 7.40761 13.871C7.44525 13.9109 7.4774 13.9548 7.50481 13.9999C7.93988 13.6164 8.39068 13.2566 8.846 12.9082ZM7.08615 14.3816C7.08103 14.3683 7.07579 14.356 7.07048 14.3445C7.03348 14.3992 6.99692 14.4541 6.9608 14.5095C6.99358 14.4729 7.0256 14.439 7.05564 14.4105C7.0658 14.4009 7.07597 14.3912 7.08615 14.3816ZM6.8751 13.6671C6.91991 13.6054 6.96515 13.5441 7.01078 13.4832C6.99342 13.4779 6.97548 13.4704 6.95731 13.4603C6.86965 13.4113 6.83094 13.3298 6.81646 13.2723C6.80329 13.2201 6.80585 13.1746 6.80843 13.1497C6.81737 13.0631 6.8584 12.9639 6.8953 12.8818C6.97547 12.7036 7.23181 12.266 7.5477 11.7266C7.56063 11.7045 7.57367 11.6823 7.58679 11.6599C7.58695 11.6596 7.58711 11.6593 7.58727 11.659C7.22113 11.9959 6.84804 12.3244 6.4672 12.6421C6.13605 13.0714 5.82151 13.5126 5.52789 13.9683C5.47571 14.0493 5.39299 14.1303 5.28111 14.1575C5.26973 14.3922 5.25895 14.621 5.25353 14.8449C5.42017 14.6234 5.66948 14.3315 5.95076 14.0957C6.12418 13.9504 6.32126 13.8166 6.52824 13.7385C6.63732 13.6974 6.75464 13.6698 6.8751 13.6671ZM9.32832 10.7981C9.37994 10.6686 9.43092 10.5387 9.48125 10.4085C9.63785 10.1555 9.77409 9.92267 9.87582 9.72954C9.88605 9.71013 9.89601 9.69096 9.90569 9.67206C10.4296 9.28378 10.9522 8.89097 11.4638 8.48557C11.728 8.27625 11.9919 8.06675 12.2557 7.85729C13.4717 6.89203 14.6862 5.92787 15.9155 4.98755C15.9025 4.99886 15.8894 5.01015 15.8763 5.02144C15.2815 5.53314 14.6794 6.0361 14.0767 6.5395C12.4525 7.89608 10.8245 9.2558 9.32832 10.7981ZM17.979 2.91971C17.9791 2.91965 17.979 2.91976 17.979 2.91971V2.91971ZM9.16549 8.85186C9.37645 8.44338 9.5595 8.06216 9.69153 7.73944C9.75241 7.59061 9.80019 7.45955 9.83471 7.34762C8.87208 8.24962 7.37476 10.1416 6.22653 11.6217C6.13708 11.737 6.04975 11.8497 5.96502 11.9593C6.02421 11.9039 6.08591 11.8465 6.1505 11.7867C6.60991 11.3611 7.08172 10.9252 7.56424 10.4974C8.08367 9.93299 8.62165 9.38649 9.16549 8.85186ZM7.46764 9.16882C7.5066 9.12119 7.54556 9.07371 7.58448 9.02642C7.58063 9.02244 7.57695 9.01841 7.57341 9.01434C7.53811 9.0658 7.50285 9.11729 7.46764 9.16882ZM4.96458 11.3847C5.0865 11.157 5.20872 10.9317 5.3302 10.7107C5.3375 10.6975 5.35114 10.6769 5.3557 10.6701C5.35621 10.6693 5.3566 10.6687 5.35686 10.6683L5.39452 10.6114C5.42625 10.5634 5.47077 10.4959 5.52372 10.4148C5.62972 10.2524 5.76903 10.0363 5.90629 9.81419C5.92133 9.78984 5.93632 9.76548 5.95121 9.74116C5.90272 9.77692 5.85364 9.81327 5.80439 9.84987C5.55286 10.0368 5.29923 10.2286 5.1037 10.378C5.09496 10.3847 5.08634 10.3912 5.07785 10.3977C4.91852 10.7256 4.77494 11.059 4.65105 11.3982C4.68679 11.3836 4.72391 11.3722 4.76178 11.3659C4.82048 11.3562 4.8925 11.3569 4.96458 11.3847ZM4.34845 12.4079C4.32798 12.4959 4.309 12.5842 4.29155 12.6729C4.37302 12.5129 4.45557 12.3524 4.53885 12.192C4.50413 12.2302 4.47512 12.2645 4.45243 12.2913C4.43363 12.3135 4.41918 12.3306 4.40942 12.3405C4.39061 12.3596 4.37041 12.3822 4.34845 12.4079ZM3.85746 12.1365C3.91091 11.9228 3.97228 11.7117 4.04072 11.5031C3.96214 11.5952 3.88079 11.6829 3.81127 11.7342C3.79393 11.747 3.76693 11.7656 3.73269 11.7811C3.73222 11.9499 3.73307 12.1176 3.73685 12.2848C3.75369 12.2646 3.77123 12.2432 3.78948 12.2207C3.80093 12.2066 3.81277 12.1919 3.8249 12.1769C3.83556 12.1636 3.84644 12.1502 3.85746 12.1365ZM5.36379 8.21158C5.46064 8.0885 5.55787 7.96577 5.65566 7.84364C5.79564 7.66881 5.93886 7.47412 6.09007 7.26743C6.10034 7.25339 6.11066 7.23928 6.121 7.22514C6.22459 7.08349 6.3317 6.93703 6.44191 6.79128C6.20465 6.95483 5.97243 7.11847 5.74672 7.28824C5.28605 7.63473 4.82931 7.98865 4.37832 8.35068C4.37866 8.35119 4.37899 8.35169 4.37933 8.3522C4.4183 8.41112 4.42568 8.46903 4.42749 8.49624C4.4295 8.52638 4.42658 8.55067 4.4245 8.56415C4.41788 8.60711 4.40262 8.64286 4.39831 8.65297L4.39789 8.65395C4.35625 8.75195 4.21879 8.98133 4.08596 9.17993C4.02443 9.27194 3.96275 9.36348 3.90126 9.45475C3.83265 9.55659 3.76427 9.65808 3.69656 9.75952C3.70905 9.87799 3.71704 9.99535 3.72235 10.0999C4.18052 9.5105 4.67884 8.96159 5.15485 8.43791C5.20892 8.37842 5.28169 8.29961 5.36379 8.21158ZM3.19858 10.8233C3.19842 10.7556 3.19798 10.688 3.19714 10.6205C3.16455 10.6958 3.13366 10.7718 3.10468 10.8486C3.09601 10.8715 3.06398 10.9663 3.02793 11.0878C3.08343 10.9987 3.14037 10.9105 3.19858 10.8233ZM3.12399 9.56922C3.11993 9.54861 3.11563 9.52861 3.11107 9.50934C3.08529 9.548 3.05586 9.59649 3.02283 9.65674C2.94076 9.80647 2.86808 9.96529 2.80709 10.1293C2.83512 10.0832 2.8634 10.0374 2.89188 9.99184C2.96545 9.84805 3.04332 9.70725 3.12399 9.56922ZM19.5509 2.5989C19.5506 2.59947 19.5502 2.60016 19.5498 2.60095C19.5522 2.59544 19.5532 2.59442 19.5509 2.5989ZM2.16161 8.79715C2.88529 8.14459 3.64963 7.53965 4.42332 6.96814C5.60733 6.09355 6.55543 5.16003 7.43717 3.94898C7.43909 3.94635 7.44475 3.93904 7.45357 3.92764C7.51504 3.84823 7.72997 3.57057 7.90179 3.29569C7.87169 3.31616 7.84105 3.338 7.80968 3.36112C7.76672 3.39279 7.71957 3.42921 7.66982 3.46765C7.55926 3.55306 7.43585 3.6484 7.31708 3.72344C7.14512 3.83208 6.97798 3.98431 6.80156 4.15927C6.75424 4.20621 6.70543 4.25566 6.65566 4.30609C6.52814 4.43529 6.39426 4.57095 6.26253 4.68734C6.17989 4.76035 6.0973 4.83323 6.0148 4.90603C5.23439 5.59469 4.46196 6.2763 3.72599 7.00465C3.41954 7.30794 3.14168 7.6367 2.85938 7.97653C2.83203 8.00945 2.80463 8.0425 2.77714 8.07564C2.57834 8.31535 2.37551 8.55991 2.16161 8.79715ZM8.26972 3.12021C8.26957 3.12041 8.26702 3.12085 8.26254 3.12089C8.26762 3.12002 8.26987 3.12 8.26972 3.12021Z" fill="#3C4CDB"/>
<path fill-rule="evenodd" clip-rule="evenodd" d="M23.5038 5.80972C23.6126 5.91699 23.6181 6.0967 23.5161 6.21113C23.4832 6.24813 23.4481 6.28824 23.4112 6.33112C23.4376 6.38842 23.44 6.44122 23.4389 6.47138C23.4377 6.50487 23.4315 6.53208 23.4268 6.54897C23.4175 6.58243 23.4044 6.6108 23.3951 6.62928C23.2157 6.98805 22.9368 7.3844 22.6655 7.74807C22.5564 7.89425 22.4496 8.03385 22.3488 8.16564C22.1908 8.37217 22.0475 8.55955 21.933 8.72305C21.4037 9.47936 20.2621 11.1232 19.574 12.114C19.4715 12.2616 19.379 12.3947 19.3002 12.5083C19.2911 12.5214 19.2789 12.5381 19.2643 12.5577C19.6031 12.2452 19.9542 11.9403 20.3225 11.6691C20.3845 11.6233 20.4521 11.5796 20.5194 11.5557C20.5524 11.544 20.6091 11.5282 20.676 11.5374C20.7559 11.5483 20.839 11.5943 20.8907 11.683C20.9339 11.7573 20.9366 11.8309 20.9353 11.8691C20.9339 11.9111 20.9259 11.9483 20.9187 11.9752C20.9043 12.0294 20.8818 12.0837 20.8609 12.1288C20.7805 12.3032 20.6324 12.5332 20.6417 12.5174C19.9398 13.7131 19.116 14.839 18.3127 15.9368C18.2776 15.9847 18.2426 16.0326 18.2076 16.0804C17.4696 17.0895 16.7125 18.0843 15.9162 19.0484L15.9017 19.0698C15.8884 19.0894 15.8699 19.1168 15.8484 19.1476C15.8066 19.2076 15.7491 19.2874 15.6931 19.3534C15.6659 19.3855 15.632 19.4227 15.5956 19.4537C15.5776 19.4689 15.5513 19.4893 15.5187 19.5063C15.4909 19.5207 15.4268 19.5496 15.3444 19.5387C15.2403 19.5249 15.1639 19.4563 15.1248 19.3769C15.0933 19.3132 15.0896 19.252 15.0891 19.2201C15.0883 19.1529 15.1028 19.0809 15.119 19.0168C15.1728 18.8037 15.2314 18.5852 15.295 18.3633C15.1185 18.5535 14.9459 18.7054 14.7893 18.8102C14.7004 18.8697 14.6096 18.9187 14.5207 18.949C14.4365 18.9776 14.3255 18.9991 14.2127 18.965C14.0805 18.9251 13.9881 18.8219 13.9489 18.6918C13.9316 18.6344 13.9255 18.5754 13.9264 18.5176C13.89 18.5871 13.8567 18.6567 13.8267 18.7265C13.8113 18.7625 13.7919 18.8023 13.7669 18.8384C13.7487 18.8647 13.6948 18.9386 13.5968 18.9678C13.5692 18.976 13.5402 18.9799 13.5109 18.9791C13.5047 19.0041 13.4984 19.0297 13.4919 19.0556C13.4499 19.2253 13.4037 19.4116 13.3567 19.5856C13.2967 19.8074 13.2295 20.0318 13.1594 20.1861C13.105 20.3059 13.0515 20.437 12.9936 20.579C12.9858 20.598 12.9779 20.6173 12.97 20.6367C12.9039 20.7984 12.8324 20.9708 12.7528 21.1388C12.5961 21.4694 12.3934 21.8152 12.1001 22.0467C11.9808 22.1408 11.8116 22.1154 11.7222 21.9899C11.6328 21.8644 11.6569 21.6864 11.7762 21.5923C11.9661 21.4425 12.123 21.195 12.2698 20.8853C12.3419 20.7331 12.4081 20.5737 12.4741 20.4123C12.4819 20.3933 12.4897 20.3742 12.4975 20.3551C12.5548 20.2146 12.6129 20.0721 12.6723 19.9412C12.7205 19.8352 12.7772 19.6534 12.8375 19.4302C12.8828 19.2629 12.9268 19.0852 12.9685 18.9166C12.9814 18.8647 12.9941 18.8136 13.0065 18.7639C13.0562 18.5651 13.1068 18.3681 13.1503 18.2596C13.1604 18.2343 13.1796 18.189 13.21 18.1482C13.2237 18.1298 13.2598 18.0842 13.322 18.0548C13.3925 18.0215 13.4791 18.0182 13.557 18.0578C13.7842 17.6724 14.0755 17.3082 14.372 16.9688C14.5466 16.7689 14.7269 16.5734 14.9002 16.3854C14.9295 16.3537 14.9586 16.3222 14.9873 16.2909C15.1883 16.0726 15.3767 15.8655 15.541 15.6662C15.5898 15.6071 15.6369 15.5356 15.6892 15.4502C15.7034 15.4272 15.7184 15.4024 15.734 15.3765C15.7723 15.313 15.8144 15.2433 15.8564 15.1795C15.9754 14.9987 16.1433 14.7846 16.4091 14.6913C16.4234 14.6863 16.45 14.6778 16.4828 14.6746C16.5041 14.6725 16.5943 14.6646 16.6794 14.7333C16.7149 14.762 16.7392 14.7947 16.7555 14.8278C16.9783 14.4536 17.2209 14.1023 17.4844 13.7859C17.5505 13.7065 17.6078 13.6423 17.6557 13.5956C17.6792 13.5727 17.706 13.5485 17.7345 13.5281L17.7352 13.5276C17.7528 13.515 17.8153 13.4703 17.9006 13.4652C17.9032 13.465 17.9057 13.4649 17.9083 13.4648C17.9995 13.3291 18.0977 13.1907 18.1947 13.0577C18.3475 12.8483 18.5 12.649 18.6222 12.4903C18.6481 12.4567 18.6722 12.4255 18.6945 12.3966C18.7814 12.284 18.8404 12.2076 18.8644 12.1731C18.9431 12.0598 19.0355 11.9268 19.1379 11.7793C19.5329 11.2105 20.0779 10.4257 20.5708 9.71712C20.5342 9.71701 20.4881 9.70925 20.4402 9.6813C20.3457 9.62618 20.3133 9.53438 20.3043 9.47996C20.2962 9.43068 20.3024 9.39116 20.3054 9.37508C20.3148 9.32362 20.3377 9.28018 20.3428 9.27037C20.3431 9.26982 20.3433 9.26938 20.3435 9.26905C20.3535 9.24973 20.3656 9.22853 20.3785 9.20693C20.4047 9.16312 20.4417 9.10472 20.4895 9.03162C20.8785 8.43625 21.3837 7.88075 21.8711 7.35969C22.3401 6.76246 22.8159 6.16667 23.1224 5.82267C23.2243 5.70825 23.3951 5.70245 23.5038 5.80972ZM20.4086 9.20948C20.4039 9.2142 20.4043 9.21329 20.4088 9.20931L20.4086 9.20948ZM15.8364 16.7465C15.9805 16.3758 16.1389 16.0081 16.3125 15.6518C16.278 15.6962 16.2436 15.7405 16.2092 15.7847C15.6837 16.4609 15.17 17.1219 14.7503 17.8513C14.6375 18.0474 14.5647 18.201 14.5209 18.3164C14.6461 18.229 14.8024 18.0887 14.9736 17.8949C15.2052 17.6329 15.512 17.2181 15.8364 16.7465ZM14.3314 18.4146C14.3314 18.4146 14.3317 18.4145 14.3322 18.4145L14.3314 18.4146ZM16.3121 17.0235C16.1654 17.4059 16.0335 17.7932 15.9161 18.1759C16.5562 17.3798 17.1734 16.5631 17.7798 15.734C17.813 15.6887 17.8462 15.6434 17.8793 15.598C18.5548 14.6748 19.2309 13.7508 19.8359 12.7886C19.5555 13.0394 19.2808 13.3028 19.0043 13.5677C18.8997 13.6679 18.7949 13.7684 18.6894 13.8684C18.6369 13.9183 18.5598 14.0029 18.4669 14.1069C18.4493 14.1266 18.4312 14.147 18.4129 14.1676C18.3386 14.2511 18.2597 14.3397 18.1881 14.4162C18.1079 14.5019 18.007 14.6055 17.9224 14.6579C17.9002 14.6716 17.8566 14.6964 17.8005 14.7066C17.7913 14.7083 17.7807 14.7096 17.7691 14.7104C17.6699 14.884 17.5572 15.075 17.436 15.2753C17.1065 15.8202 16.7015 16.4547 16.3121 17.0235ZM13.651 18.4725C13.651 18.4725 13.6507 18.4732 13.6501 18.4745C13.6507 18.4731 13.651 18.4724 13.651 18.4725ZM15.9208 19.0417C15.9207 19.0418 15.9204 19.0423 15.9199 19.043C15.9206 19.042 15.9209 19.0416 15.9208 19.0417Z" fill="#3C4CDB"/>
<path fill-rule="evenodd" clip-rule="evenodd" d="M17.7859 3.98593C17.8754 4.1114 17.8512 4.2894 17.732 4.3835C16.7296 5.17453 15.883 6.23293 15.0392 7.2878C14.8021 7.58417 14.5653 7.88027 14.3253 8.17008C13.1608 9.57611 11.9259 11.0917 10.9805 12.7332C10.036 14.373 9.39208 16.1194 9.39208 17.9836C9.39208 18.1404 9.27124 18.2676 9.12219 18.2676C8.97313 18.2676 8.85229 18.1404 8.85229 17.9836C8.85229 15.9788 9.54504 14.1296 10.5188 12.4388C11.4917 10.7497 12.7565 9.19975 13.9183 7.79694C14.1439 7.52457 14.3711 7.24032 14.6021 6.95137C15.4512 5.88915 16.3512 4.76322 17.4081 3.92913C17.5273 3.83502 17.6965 3.86045 17.7859 3.98593Z" fill="#3C4CDB"/>
</svg>
