<svg width="22" height="25" viewBox="0 0 22 25" fill="none" xmlns="http://www.w3.org/2000/svg">
<path d="M21.0891 25H0.910921C0.25 25 8.01248e-09 24.6384 0 24.1175C-2.15254e-08 22.7182 0.284524 21.3325 0.837325 20.0397C1.39013 18.7468 2.20038 17.5721 3.22182 16.5826C4.24327 15.5931 5.4559 14.8082 6.79048 14.2727C8.12506 13.7372 9.55546 13.4615 11 13.4615C12.4445 13.4615 13.8749 13.7372 15.2095 14.2727C16.5441 14.8082 17.7567 15.5931 18.7782 16.5826C19.7996 17.5721 20.6099 18.7468 21.1627 20.0397C21.7155 21.3325 22 22.7182 22 24.1175C22 24.6534 21.75 25 21.0891 25ZM1.86493 23.2351H20.1351C19.9123 21.0379 18.8537 18.9995 17.1652 17.5165C15.4767 16.0336 13.2791 15.2123 11 15.2123C8.7209 15.2123 6.5233 16.0336 4.83481 17.5165C3.14632 18.9995 2.0877 21.0379 1.86493 23.2351Z" fill="#79747A"/>
<path fill-rule="evenodd" clip-rule="evenodd" d="M10.4398 1.57162C10.7168 1.44738 11.0096 1.34958 11.3164 1.30418C11.3592 1.29786 11.4824 1.28704 11.5873 1.37944C11.6968 1.47591 11.6918 1.59998 11.6861 1.64488C11.6751 1.73299 11.6269 1.81351 11.6021 1.85366C11.5383 1.95706 11.4353 2.08741 11.3333 2.20896C11.1268 2.45513 10.8776 2.72014 10.8209 2.77463C10.7664 2.8271 10.711 2.8792 10.6547 2.93086C11.1906 2.65991 11.7159 2.38586 12.2177 2.07568C12.2708 2.04285 12.4054 1.97337 12.5118 1.92265C12.5651 1.89722 12.6242 1.87032 12.6697 1.85345C12.6817 1.84902 12.6969 1.8437 12.7134 1.83909L12.7139 1.83895C12.7242 1.83604 12.7604 1.82587 12.8049 1.82537C12.8235 1.82516 12.8867 1.8252 12.9547 1.86188C12.9936 1.88288 13.0361 1.91723 13.0667 1.96922C13.0973 2.02122 13.106 2.07398 13.1046 2.11689C13.1023 2.19182 13.0697 2.24404 13.0599 2.25934C13.046 2.28098 13.0317 2.29683 13.0236 2.30545C12.8066 2.53496 12.586 2.75903 12.3596 2.97813C12.4803 2.91599 12.5983 2.85608 12.7101 2.80058C13.0114 2.65095 13.2954 2.51903 13.467 2.46806C13.508 2.4559 13.5693 2.43981 13.6328 2.43901C13.6629 2.43863 13.7265 2.44073 13.7938 2.47421C13.8787 2.51647 13.9446 2.59719 13.9585 2.69966C13.9695 2.78051 13.9437 2.84443 13.9302 2.87337C13.9143 2.90714 13.8947 2.93546 13.8786 2.9564C13.8461 2.99869 13.8038 3.04225 13.758 3.08529C13.0117 3.78697 12.1829 4.3865 11.3258 4.93659C11.3513 4.92601 11.3767 4.91543 11.4022 4.90486C11.6765 4.79101 11.9503 4.67737 12.2231 4.56324C12.4269 4.42915 12.6831 4.26723 12.9401 4.12884C13.1759 4.00184 13.4323 3.88329 13.6679 3.82205C13.7663 3.7965 13.8839 3.77497 14.0042 3.7775C14.2841 3.6418 14.5602 3.49956 14.8348 3.34671L14.836 3.34605C14.8824 3.32022 14.9252 3.29638 14.9444 3.2876C14.9461 3.28682 14.9575 3.2815 14.9724 3.27638L14.9729 3.27623C14.9773 3.2747 15.0042 3.26527 15.0394 3.26162C15.0649 3.26005 15.1404 3.26809 15.1884 3.28378C15.2674 3.33314 15.3573 3.48662 15.3606 3.57445C15.3509 3.61997 15.3219 3.68394 15.3086 3.70358C15.3002 3.71434 15.2854 3.73106 15.2792 3.73727C15.2678 3.74848 15.2579 3.75628 15.2546 3.75887C15.2465 3.76518 15.2397 3.76977 15.2377 3.77112C15.2292 3.77684 15.2203 3.78223 15.2172 3.78409C15.2072 3.79011 15.1927 3.79865 15.1755 3.8087C15.1057 3.84944 14.9671 3.92909 14.8019 4.02349C14.7117 4.07502 14.6131 4.1312 14.513 4.18818C14.5112 4.20949 14.5085 4.23368 14.5055 4.25761C14.4984 4.31505 14.4877 4.38911 14.4769 4.46134C14.4727 4.48996 14.4684 4.51818 14.4643 4.54539C14.4579 4.58859 14.4518 4.62926 14.4466 4.66502C14.4424 4.69394 14.439 4.71762 14.4368 4.73504C14.4358 4.743 14.4353 4.748 14.435 4.75068C14.4345 4.87915 14.4234 4.99524 14.3909 5.10288C14.4186 5.09138 14.4464 5.07995 14.4742 5.0686C14.7142 4.97064 14.9427 4.8702 15.1771 4.76714C15.2796 4.72209 15.3833 4.67653 15.4895 4.63047C15.5588 4.60041 15.6235 4.57603 15.6825 4.55931C15.737 4.54388 15.8079 4.52868 15.8822 4.53354C15.9607 4.53868 16.0911 4.57246 16.1644 4.70133C16.2263 4.81019 16.2042 4.91703 16.1912 4.96332C16.1636 5.06242 16.0966 5.16195 16.0408 5.23721C15.9781 5.32171 15.8996 5.41416 15.8168 5.5059C15.6508 5.68992 15.4539 5.88611 15.2987 6.03585C15.2207 6.11111 15.1524 6.17551 15.1025 6.22191C15.0775 6.24508 15.0569 6.26401 15.0418 6.27772L15.0224 6.29516L15.0138 6.30264L15.0076 6.30787C15.0065 6.30873 14.9995 6.31451 14.9904 6.32097C14.1881 6.88879 13.3418 7.43232 12.4657 7.93017C12.9337 7.7478 13.3986 7.56401 13.8569 7.37324C13.9478 7.33542 14.0638 7.29923 14.1749 7.26552C14.199 7.2582 14.2233 7.2509 14.2475 7.24359C14.3406 7.21552 14.4343 7.18731 14.5262 7.15672C14.6423 7.11811 14.7438 7.0795 14.823 7.04006C14.8622 7.02055 14.8915 7.00299 14.9123 6.98798C14.9337 6.97251 14.9398 6.96431 14.939 6.96539C14.9769 6.91371 15.0255 6.86124 15.086 6.82328C15.1151 6.80506 15.1631 6.7799 15.2258 6.77063C15.2909 6.76101 15.4041 6.76651 15.4947 6.85573C15.5793 6.93905 15.5853 7.03866 15.5815 7.08855C15.5775 7.14185 15.5603 7.18569 15.5459 7.21511C15.5162 7.27563 15.4714 7.32969 15.4231 7.37608C15.2798 7.5139 15.1331 7.6517 14.9833 7.78855C15.0387 7.7688 15.0915 7.75021 15.141 7.733C15.2721 7.68748 15.3851 7.65003 15.4665 7.62633C15.5049 7.61515 15.547 7.6038 15.5836 7.59746L15.5842 7.59736C15.5969 7.59516 15.6377 7.58808 15.6846 7.59247L15.6849 7.59249C15.7021 7.5941 15.7777 7.60116 15.8483 7.65787C15.8907 7.69193 15.9287 7.7423 15.9454 7.80746C15.9613 7.86947 15.9523 7.92317 15.9409 7.95887C15.8584 8.21651 15.6813 8.43957 15.4776 8.62747C15.2721 8.81703 15.0232 8.98578 14.7708 9.13232C14.2666 9.42508 13.7147 9.64815 13.3917 9.77816C12.8106 10.012 12.2228 10.247 11.627 10.4619C11.5963 10.473 11.553 10.4901 11.499 10.5115C11.4882 10.5157 11.4771 10.5201 11.4655 10.5247C11.3995 10.5508 11.3232 10.5806 11.2546 10.6046C11.2001 10.6237 11.1076 10.6551 11.0291 10.6603C11.0079 10.6617 10.96 10.6636 10.9051 10.6474C10.8436 10.6292 10.738 10.5746 10.7012 10.4471C10.6804 10.375 10.6927 10.313 10.707 10.2727C10.217 10.5137 9.72327 10.7497 9.22419 10.9703C9.22533 10.9698 9.22166 10.9717 9.20801 10.979C9.19907 10.9837 9.18585 10.9908 9.16689 11.0009C9.12772 11.0218 9.07522 11.0497 9.01471 11.0802C8.89539 11.1403 8.73738 11.2146 8.57861 11.2687C8.43554 11.3174 8.23094 11.3722 8.04604 11.333C7.93986 11.3105 7.82619 11.2538 7.74989 11.1401C7.67777 11.0327 7.6635 10.9105 7.67209 10.8011C7.68827 10.5949 7.72747 10.3975 7.78574 10.2085C7.72918 10.0932 7.77551 9.99031 7.78363 9.97248C7.80817 9.91863 7.84696 9.88064 7.85581 9.87198C7.85623 9.87157 7.85658 9.87122 7.85686 9.87095C7.87306 9.8549 7.89076 9.83946 7.9066 9.8262C7.92007 9.81492 7.93491 9.80296 7.95064 9.7906C8.17024 9.33553 8.49699 8.93473 8.86348 8.58183C9.10077 8.35334 9.35894 8.14099 9.62196 7.94354C9.10702 8.16248 8.58846 8.37455 8.06582 8.57726C8.06884 8.57608 8.06531 8.57766 8.04575 8.58641C8.0403 8.58884 8.0336 8.59183 8.02546 8.59548C7.99539 8.60893 7.95409 8.62734 7.90506 8.64865C7.80735 8.6911 7.67742 8.74575 7.54121 8.79689C7.40688 8.84733 7.25785 8.89765 7.12404 8.92834C7.05753 8.94359 6.98558 8.95617 6.91601 8.95922C6.85471 8.9619 6.7536 8.95966 6.6581 8.90957C6.57989 8.86855 6.51048 8.79964 6.47868 8.70253C6.44955 8.61356 6.46218 8.53173 6.47909 8.47525C6.51099 8.36869 6.58287 8.27107 6.64603 8.19637C6.78036 8.03749 6.98587 7.85671 7.189 7.69208C7.57851 7.37641 8.01514 7.0759 8.09641 7.01996C8.10109 7.01674 8.10459 7.01433 8.10684 7.01278C8.20034 6.94804 8.29496 6.88443 8.39057 6.82184C8.19541 6.91305 8.001 7.00582 7.80744 7.10047C7.80293 7.10268 7.79156 7.10794 7.77422 7.11597C7.704 7.14849 7.53579 7.2264 7.328 7.33037C7.2473 7.37907 7.16791 7.4259 7.08983 7.47196C6.83347 7.62321 6.59125 7.7661 6.36351 7.93917C6.35464 7.94591 6.33044 7.96841 6.28851 8.01263C6.26427 8.0382 6.24526 8.05888 6.2254 8.08049C6.20826 8.09914 6.19049 8.11847 6.16819 8.14222L6.16682 8.14368C6.13609 8.17641 6.08111 8.23496 6.02919 8.27025C6.01588 8.2793 5.97888 8.30388 5.9268 8.31799C5.87316 8.33253 5.72465 8.35152 5.6159 8.22661C5.53808 8.13722 5.54499 8.03754 5.54634 8.01809L5.54639 8.01735C5.54872 7.98341 5.55637 7.95466 5.56141 7.9377C5.59528 7.82372 5.67272 7.72949 5.74009 7.66087C5.81256 7.58706 5.90173 7.5149 5.99571 7.44689C6.06449 7.39712 6.1393 7.34711 6.21745 7.29773C6.20883 7.30114 6.19946 7.30446 6.18944 7.30744C6.16557 7.31454 6.06841 7.34183 5.96191 7.28936C5.82844 7.2236 5.80291 7.10038 5.80057 7.04586C5.79835 6.99426 5.81107 6.95377 5.81628 6.93817C5.83624 6.87852 5.87644 6.82017 5.89648 6.79166C5.94571 6.72159 6.02701 6.62151 6.09358 6.56475C7.18693 5.63246 8.55596 4.94218 9.84352 4.29298C9.89354 4.26775 9.94344 4.24259 9.9932 4.21748C10.3869 3.92982 10.7685 3.6324 11.1306 3.32397C10.9383 3.42235 10.7457 3.51917 10.5544 3.61532C10.2445 3.77108 9.93803 3.9251 9.64196 4.08121C9.24396 4.29108 8.84705 4.49237 8.45252 4.69247C7.73327 5.05725 7.02191 5.41803 6.32615 5.81943C6.27381 5.84963 6.17439 5.92994 6.0645 6.01871C6.04691 6.03292 6.02904 6.04735 6.01106 6.06183C5.95993 6.103 5.89368 6.15614 5.84568 6.18519L5.84557 6.18526C5.83535 6.19144 5.80365 6.21063 5.76235 6.22325C5.74527 6.22847 5.68891 6.24498 5.61746 6.23261C5.57681 6.22558 5.52595 6.20816 5.47895 6.16985C5.431 6.13077 5.40269 6.08265 5.38824 6.03821C5.36318 5.96111 5.37978 5.89703 5.38478 5.87869C5.39193 5.85249 5.40151 5.83202 5.40715 5.82075C5.41881 5.79747 5.43236 5.777 5.44209 5.76297C5.5835 5.55901 5.75937 5.39009 5.94673 5.24654C5.94412 5.2205 5.94513 5.19817 5.94639 5.18297C5.94934 5.14711 5.9572 5.11179 5.96478 5.08263C6.11778 4.49418 6.56469 4.01323 7.07091 3.61792C7.91353 2.65347 9.11623 1.78852 10.4398 1.57162ZM6.07032 5.01614C6.06788 5.01868 6.06814 5.01812 6.07089 5.01554C6.0707 5.01574 6.07051 5.01594 6.07032 5.01614ZM7.08981 4.53027C7.12823 4.47254 7.16303 4.42194 7.19253 4.38223C7.28312 4.26029 7.3795 4.13963 7.48112 4.02121C7.56593 3.95624 7.65471 3.89203 7.74686 3.8285C8.04937 3.61993 8.374 3.42794 8.68894 3.24652C8.74867 3.21211 8.80832 3.17793 8.8675 3.14403C9.1159 3.00171 9.356 2.86415 9.55878 2.73417C9.57677 2.72263 9.59475 2.7111 9.61271 2.69958C9.94803 2.48447 10.2773 2.27322 10.6137 2.11359C10.6292 2.11139 10.6447 2.10929 10.6603 2.10731C10.5362 2.24523 10.4318 2.35487 10.4081 2.37769C9.86724 2.89775 9.25034 3.3695 8.58631 3.70648C8.07103 3.96798 7.57666 4.24346 7.08981 4.53027ZM10.3045 4.69497C9.55092 5.24324 8.76138 5.75265 7.9903 6.23017C7.97141 6.24187 7.95251 6.25358 7.93359 6.26529C7.53434 6.51257 7.12904 6.76359 6.72057 7.00728C6.82937 6.94893 6.93597 6.894 7.03449 6.84447C7.07833 6.81805 7.1211 6.79191 7.16252 6.76602C7.69193 6.43514 8.23457 6.11797 8.77587 5.80342C8.82854 5.77282 8.88119 5.74224 8.93382 5.71168C9.42326 5.42744 9.91055 5.14444 10.3903 4.85169C10.9146 4.53182 11.4269 4.20207 11.9175 3.85032C11.7947 3.91582 11.6763 3.97924 11.5664 4.03817C11.4138 4.11992 11.2774 4.19303 11.1675 4.25107C10.8829 4.40142 10.5942 4.54849 10.3045 4.69497ZM8.37854 7.51631C8.23003 7.61943 7.88013 7.86613 7.56526 8.12131C7.51726 8.16021 7.47097 8.1986 7.42698 8.23609C7.5145 8.2014 7.59681 8.16657 7.66462 8.1371C7.70241 8.12068 7.74188 8.10311 7.77469 8.08851C7.8105 8.07257 7.83837 8.06017 7.84742 8.05665C8.02002 7.98971 8.19223 7.92171 8.36409 7.85274C8.29093 7.75061 8.29634 7.61292 8.37854 7.51631ZM9.27074 7.47894C9.78253 7.26261 10.2915 7.03891 10.7982 6.81022C11.1157 6.66691 11.4296 6.51607 11.7436 6.36166C11.8195 6.29456 11.8954 6.22823 11.9711 6.16294C12.0116 6.12808 12.3304 5.85829 12.6128 5.62463C12.7535 5.50825 12.8886 5.39798 12.9763 5.32996C13.01 5.30383 13.0622 5.2634 13.1021 5.24207C13.1094 5.23814 13.1251 5.23002 13.1457 5.22264C13.156 5.21892 13.1738 5.2131 13.1966 5.20908C13.2163 5.2056 13.2603 5.19959 13.3143 5.21126C13.3597 5.22108 13.4133 5.24427 13.4581 5.28763C13.4708 5.27848 13.4834 5.26933 13.4961 5.26015C13.6891 5.1203 13.7597 5.06547 13.7999 5.0091C13.8251 4.97367 13.8512 4.91891 13.8512 4.74155C13.8512 4.71528 13.8552 4.68363 13.8571 4.66844L13.8573 4.66704C13.8602 4.64466 13.864 4.61709 13.8684 4.58734C13.8701 4.57532 13.872 4.56262 13.8739 4.54941C13.8491 4.56332 13.8259 4.57625 13.8047 4.58803C13.1577 4.94738 12.4726 5.28442 11.7913 5.61963C11.6413 5.69345 11.4914 5.76718 11.3422 5.84104C10.6182 6.352 9.93751 6.8925 9.27074 7.47894ZM13.0197 5.31709C13.0198 5.31702 13.019 5.31795 13.0171 5.32004C13.0187 5.31818 13.0196 5.31715 13.0197 5.31709ZM10.0865 8.30793C9.8935 8.44914 9.70423 8.59697 9.52452 8.75252C11.3164 8.00423 13.0566 6.99141 14.6323 5.8774L14.641 5.86953C14.6541 5.8577 14.673 5.84035 14.6967 5.81827C14.7442 5.77418 14.8099 5.71226 14.8851 5.63964C14.9572 5.57005 15.0373 5.49142 15.1179 5.4098C14.9812 5.46908 14.8429 5.52793 14.7023 5.58532C14.0865 5.83669 13.4864 6.12778 12.8813 6.42831C12.8766 6.43065 12.8719 6.43298 12.8672 6.43532C12.6573 6.67612 12.3718 6.87408 12.1028 7.03844C11.9422 7.13652 11.7775 7.22836 11.6263 7.31269C11.6169 7.31792 11.6075 7.32313 11.5983 7.3283C11.5315 7.36552 11.4681 7.40102 11.4083 7.4352C11.3806 7.46059 11.3529 7.48601 11.3252 7.51143C11.0491 7.7648 10.7711 8.0199 10.4779 8.27837C10.4673 8.2877 10.4473 8.30461 10.4208 8.32022C10.4076 8.32799 10.3837 8.3409 10.3516 8.35056C10.3222 8.35943 10.2597 8.37356 10.1842 8.35363C10.1471 8.34385 10.1144 8.3279 10.0865 8.30793ZM14.623 5.88559C14.6232 5.88546 14.6241 5.8846 14.6258 5.88324C14.6237 5.88503 14.6229 5.88572 14.623 5.88559ZM8.38303 10.2568C8.3223 10.4235 8.28056 10.5959 8.26076 10.7746C8.29624 10.7669 8.33746 10.7553 8.38363 10.7395C8.50395 10.6985 8.63364 10.6385 8.74368 10.583C8.79785 10.5557 8.84545 10.5304 8.88342 10.5102C8.88748 10.508 8.8918 10.5057 8.8963 10.5033C8.92422 10.4883 8.95901 10.4696 8.98033 10.4602C9.78521 10.1044 10.5662 9.71302 11.3544 9.31801C11.7395 9.12499 12.1264 8.9311 12.5186 8.7401C12.6123 8.69447 12.9525 8.55739 13.3697 8.39492C13.5564 8.25396 13.74 8.10789 13.9204 7.95812C13.3164 8.20666 12.7146 8.43982 12.1167 8.67145C10.8485 9.16274 9.59807 9.64716 8.38303 10.2568ZM15.4242 7.27893C15.4242 7.27895 15.424 7.27918 15.4235 7.2796ZM6.87917 8.39838C6.87924 8.39832 6.88057 8.39833 6.883 8.39858C6.88032 8.39857 6.87911 8.39844 6.87917 8.39838ZM13.0911 9.29055C13.1162 9.28049 13.1412 9.27042 13.1662 9.26034C13.4912 9.12955 14.0061 8.92057 14.469 8.65178C14.5694 8.59349 14.6658 8.53329 14.756 8.47148C14.6324 8.51721 14.5035 8.56543 14.3731 8.61463C14.1304 8.70618 13.8863 8.79972 13.6642 8.88593C13.4767 9.02584 13.2856 9.16117 13.0911 9.29055Z" fill="#79747A"/>
<path fill-rule="evenodd" clip-rule="evenodd" d="M14.4712 2.2869C14.5831 2.39849 14.5797 2.57617 14.4636 2.68378C13.2983 3.76428 12.2346 4.89448 11.1691 6.07724C11.1507 6.09773 11.1306 6.11947 11.1092 6.14233C11.1893 6.08983 11.2698 6.03728 11.3508 5.98477C12.0285 5.5455 12.7322 5.11494 13.4993 4.78162C13.8976 4.60852 14.3361 4.49233 14.7453 4.3839C14.9109 4.34003 15.0716 4.29743 15.223 4.25285C15.2514 4.24449 15.2963 4.2279 15.3588 4.20481C15.3686 4.20118 15.3789 4.19739 15.3896 4.19344C15.458 4.16821 15.5459 4.13616 15.618 4.11734C15.6481 4.10949 15.7068 4.09506 15.7686 4.09663C15.7953 4.0973 15.8728 4.10117 15.9482 4.15287C16.0519 4.22391 16.0851 4.33561 16.0736 4.42728C16.0649 4.49655 16.033 4.54695 16.0186 4.56825C16.0006 4.59487 15.9802 4.61807 15.9624 4.63675C15.9265 4.67442 15.8795 4.71582 15.8244 4.76067C14.9887 5.44055 14.0846 6.06149 13.2017 6.66792C13.0631 6.76306 12.9251 6.85784 12.788 6.95244C12.7881 6.95234 12.7871 6.9532 12.7849 6.95498C12.7682 6.96842 12.6865 7.03441 12.568 7.13759C12.4638 7.22834 12.3416 7.33871 12.2296 7.44895C12.624 7.33544 12.998 7.16422 13.3764 6.97101C13.5043 6.90569 13.6342 6.83698 13.766 6.76728C14.1546 6.56171 14.5594 6.34759 14.9775 6.1868C15.1272 6.12923 15.297 6.19924 15.3569 6.34317C15.4168 6.4871 15.344 6.65044 15.1943 6.70801C14.8124 6.85492 14.4534 7.04474 14.0741 7.24529C13.9362 7.31822 13.7956 7.39258 13.6502 7.46681C13.1176 7.73872 12.5406 7.99699 11.8803 8.10282C11.8227 8.11204 11.7605 8.11738 11.6989 8.11192C11.6393 8.10663 11.5553 8.08899 11.4803 8.03071C11.2949 7.88674 11.3525 7.67874 11.379 7.6096C11.4124 7.52247 11.4713 7.43784 11.5265 7.36779C11.5851 7.29342 11.6554 7.21587 11.7283 7.14087C11.8741 6.99067 12.0424 6.83791 12.1761 6.72148C12.3036 6.61051 12.4166 6.51775 12.4477 6.49631C12.5865 6.40053 12.7256 6.30501 12.8646 6.20952C13.4365 5.81668 14.0077 5.42435 14.5605 5.01661C14.2774 5.0944 14.0052 5.17777 13.7397 5.29316C13.0194 5.60615 12.3491 6.01465 11.6772 6.45022C11.5183 6.55324 11.3588 6.65812 11.1984 6.76355C10.687 7.09986 10.167 7.44176 9.63056 7.74657C9.58636 7.77168 9.5419 7.79488 9.50054 7.81152C9.48027 7.81968 9.45187 7.82991 9.41915 7.83653C9.39499 7.84141 9.32378 7.85434 9.24231 7.82599C9.19535 7.80964 9.14469 7.77926 9.10496 7.72921C9.06593 7.68003 9.05006 7.62779 9.04502 7.58611C9.03616 7.51279 9.05836 7.4551 9.06681 7.43446C9.08676 7.38574 9.11752 7.34304 9.1372 7.31704C9.22166 7.20544 9.39594 7.02775 9.58425 6.84184C9.71276 6.71497 9.85306 6.57917 9.99205 6.44462C10.283 6.16296 10.5683 5.88681 10.7278 5.7097C11.7981 4.5216 12.8748 3.37707 14.0584 2.27968C14.1745 2.17208 14.3592 2.17531 14.4712 2.2869ZM15.7845 4.65598C15.7845 4.656 15.7839 4.65611 15.7828 4.65628ZM9.2752 7.29366C9.27443 7.29397 9.27454 7.2939 9.27544 7.29356Z" fill="#79747A"/>
<path d="M11.0009 12.0192C9.71527 12.0194 8.45848 11.667 7.38944 11.0068C6.32041 10.3466 5.48715 9.40804 4.99504 8.30995C4.50294 7.21185 4.37409 6.00349 4.62479 4.83769C4.87549 3.67189 5.49449 2.601 6.4035 1.76046C7.3125 0.919924 8.47069 0.347484 9.73159 0.115535C10.9925 -0.116413 12.2995 0.00254983 13.4872 0.457378C14.675 0.912207 15.6902 1.68247 16.4045 2.67076C17.1188 3.65905 17.5 4.82098 17.5 6.0096C17.4984 7.60284 16.8131 9.1304 15.5947 10.2571C14.3763 11.3837 12.7241 12.0175 11.0009 12.0192ZM11.0009 1.73307C10.0858 1.73291 9.19121 1.98365 8.43027 2.45359C7.66932 2.92353 7.07621 3.59155 6.72594 4.37317C6.37567 5.15479 6.28398 6.01489 6.46246 6.84469C6.64094 7.6745 7.08158 8.43672 7.72865 9.03497C8.37571 9.63322 9.20014 10.0406 10.0977 10.2056C10.9952 10.3706 11.9255 10.2859 12.7709 9.96203C13.6163 9.63818 14.3388 9.08982 14.8471 8.38628C15.3554 7.68275 15.6266 6.85566 15.6264 6.0096C15.625 4.8758 15.1372 3.7888 14.2701 2.98707C13.4029 2.18535 12.2272 1.73437 11.0009 1.73307V1.73307Z" fill="#79747A"/>
<path fill-rule="evenodd" clip-rule="evenodd" d="M10.4347 14.9158C10.4347 14.9158 10.4341 14.9161 10.433 14.9165C10.4342 14.9159 10.4347 14.9157 10.4347 14.9158ZM10.3065 14.8836C10.3065 14.8836 10.307 14.8841 10.3079 14.8854C10.3069 14.8843 10.3065 14.8837 10.3065 14.8836ZM10.3483 14.9845C10.3547 15.0071 10.361 15.0329 10.3667 15.062C10.3716 15.0865 10.3759 15.1117 10.3795 15.1371C10.3463 15.1492 10.3117 15.1629 10.2759 15.1779C10.1811 15.2176 10.0864 15.2591 9.99188 15.3023C10.1106 15.1962 10.2294 15.0903 10.3483 14.9845ZM7.02734 17.2043C8.00779 16.312 8.99506 15.4242 9.98471 14.5431C10.1029 14.4379 10.2656 14.3388 10.4588 14.3631C10.6596 14.3883 10.7724 14.5301 10.8281 14.6293C10.9235 14.7991 10.959 15.0308 10.9735 15.1949C10.9796 15.2022 10.9856 15.2099 10.9913 15.218C11.0237 15.2641 11.0395 15.3118 11.0461 15.354C11.1681 15.1888 11.3037 15.0336 11.457 14.8962C11.4821 14.8738 11.5193 14.8483 11.5426 14.8328C11.571 14.814 11.6093 14.7899 11.646 14.7708C11.6623 14.7623 11.6911 14.7479 11.7245 14.7374C11.7394 14.7327 11.774 14.7226 11.8181 14.7215C11.8539 14.7206 11.9745 14.7243 12.0613 14.8308C12.1468 14.9358 12.1234 15.0478 12.1149 15.0798C12.1041 15.1203 12.0865 15.1507 12.0778 15.1649C12.0586 15.1961 12.0347 15.2246 12.0151 15.2465C12.0072 15.2554 11.9992 15.2642 11.9911 15.2731C12.0601 15.2257 12.1294 15.1792 12.1991 15.1337C12.2154 15.1231 12.234 15.1094 12.2603 15.0901C12.2798 15.0758 12.3034 15.0585 12.3333 15.0371C12.3912 14.9956 12.4701 14.9411 12.5476 14.9026C12.5852 14.8839 12.6397 14.8602 12.7021 14.8491C12.7607 14.8386 12.8822 14.8303 12.9909 14.9148C13.1 14.9996 13.1185 15.1172 13.1201 15.1818C13.1217 15.25 13.107 15.3185 13.089 15.3795C12.9739 15.7704 12.7898 16.1408 12.5721 16.491C12.9566 16.1887 13.3552 15.9065 13.7709 15.6666C13.9092 15.5869 14.0885 15.63 14.1714 15.7629C14.1948 15.8003 14.208 15.8409 14.2118 15.8816C14.2593 15.8538 14.3189 15.8237 14.3846 15.8071C14.4466 15.7914 14.575 15.7732 14.6943 15.856C14.7053 15.8637 14.7156 15.8717 14.7253 15.8799C14.7849 15.8601 14.8448 15.8457 14.9041 15.839C14.9923 15.829 15.0955 15.8341 15.196 15.8786C15.3011 15.9251 15.3776 16.0035 15.426 16.0965C15.4757 16.192 15.4549 16.2805 15.4495 16.3029C15.441 16.3377 15.4279 16.3671 15.4187 16.3859C15.3995 16.4252 15.374 16.4652 15.3504 16.4997C15.3017 16.571 15.2361 16.655 15.1727 16.733C15.0451 16.8898 14.9069 17.0459 14.8784 17.0765C14.7203 17.2464 14.5609 17.4137 14.4011 17.5794C14.28 17.8319 14.1754 18.0296 14.1503 18.0771L14.1486 18.0803C13.7775 18.7822 13.383 19.4767 12.9786 20.1648C13.0625 20.1135 13.1468 20.0626 13.2317 20.0124C13.2691 19.9788 13.3066 19.9453 13.3441 19.912C13.888 19.094 14.4604 18.2857 15.0624 17.514C15.0734 17.4999 15.2955 17.2191 15.4985 17.0156C15.5498 16.9642 15.6048 16.9129 15.6583 16.8705C15.7014 16.8364 15.78 16.7777 15.8744 16.7539C15.9264 16.7408 16.0246 16.728 16.1254 16.7821C16.2309 16.8389 16.2719 16.9321 16.2865 16.9929C16.3111 17.0955 16.2865 17.2052 16.2656 17.2818C16.2456 17.3546 16.2246 17.4254 16.1916 17.495C16.1568 17.5686 16.114 17.63 16.0606 17.6941C15.9458 17.8322 15.8667 18.0036 15.7681 18.2175C15.7518 18.2529 15.7349 18.2894 15.7173 18.3271C15.6023 18.5732 15.4545 18.8655 15.1926 19.0841C15.073 19.1839 14.9534 19.2839 14.8339 19.3842C14.8399 19.3872 14.8459 19.3905 14.8518 19.394C14.8565 19.3967 14.861 19.3995 14.8654 19.4024C15.2551 19.1087 15.6598 18.8458 16.074 18.6313C16.1531 18.5903 16.2124 18.5627 16.2591 18.541C16.3475 18.4998 16.391 18.4796 16.4387 18.4294C16.4476 18.4188 16.4552 18.4099 16.4613 18.4027C16.4676 18.3953 16.4777 18.3833 16.4842 18.3762L16.4843 18.3761C16.4849 18.3754 16.4906 18.3692 16.4979 18.3622C16.5004 18.3598 16.5068 18.354 16.5107 18.3507C16.5175 18.3451 16.5389 18.3296 16.5541 18.3202C16.6001 18.2988 16.8196 18.3036 16.9499 18.4104C16.9901 18.507 16.9842 18.6392 16.9743 18.6666C16.9693 18.6778 16.9606 18.6946 16.9572 18.7004C16.9551 18.704 16.9513 18.71 16.9497 18.7124C16.9466 18.7171 16.944 18.7207 16.9428 18.7223C16.9419 18.7236 16.941 18.7248 16.9402 18.7259C16.9389 18.7276 16.9379 18.7289 16.9374 18.7296C16.9341 18.7339 16.9301 18.7388 16.9273 18.7423C16.9152 18.7573 16.9028 18.7716 16.8903 18.7853C16.8743 18.8043 16.8539 18.8286 16.8298 18.8574C16.7871 18.9083 16.7335 18.9723 16.6741 19.0434C16.626 19.1008 16.574 19.1629 16.5208 19.2266C16.287 19.5057 16.0187 19.8257 15.9663 19.8826C15.755 20.1126 15.5366 20.3372 15.3149 20.5581C15.7738 20.2449 16.2408 19.9418 16.7187 19.654C16.7634 19.6271 16.8092 19.6 16.8551 19.5734C17.089 19.3925 17.3156 19.2064 17.5326 19.0127C17.5847 18.9661 17.7237 18.8613 17.8041 18.8013C17.8452 18.7706 17.8826 18.743 17.8944 18.7348C17.8954 18.7341 17.8987 18.7318 17.9028 18.7291L17.9029 18.7291C17.9044 18.7281 17.9103 18.7243 17.918 18.7199C17.9206 18.7184 17.9321 18.7118 17.9476 18.7051C17.9571 18.7012 17.9844 18.6921 18.0024 18.6876C18.0423 18.6816 18.1815 18.7031 18.2665 18.7564C18.3369 18.8544 18.3515 19.024 18.3343 19.0741C18.324 19.0942 18.3053 19.1234 18.298 19.1329C18.2864 19.1473 18.2758 19.1575 18.2733 19.1598L18.2731 19.16C18.2662 19.1666 18.2604 19.1715 18.2592 19.1725C18.2554 19.1757 18.2522 19.1783 18.2512 19.1791L18.2512 19.1791C18.2466 19.1827 18.2405 19.1873 18.2351 19.1914C18.2228 19.2007 18.2022 19.2161 18.1719 19.2388C18.0761 19.3101 17.9847 19.3928 17.8967 19.4849C17.9051 19.5202 17.9057 19.5531 17.9027 19.5816C17.965 19.5435 18.0276 19.506 18.0903 19.4694C18.1952 19.4082 18.2934 19.3605 18.3845 19.3315C18.4705 19.3042 18.585 19.2822 18.7025 19.316C18.8405 19.3556 18.9234 19.4537 18.9618 19.5534C18.9951 19.64 18.9964 19.7283 18.9923 19.7932C18.9841 19.9243 18.944 20.0774 18.9113 20.1994C18.9074 20.214 18.9036 20.2283 18.8998 20.2422C18.8938 20.2646 18.888 20.2861 18.8825 20.3069C18.994 20.2453 19.1059 20.1857 19.2181 20.1285C19.2171 20.129 19.2194 20.1279 19.2268 20.1237C19.2335 20.1199 19.2421 20.1149 19.2528 20.1087C19.2719 20.0975 19.295 20.0838 19.3215 20.068L19.3315 20.0621C19.3916 20.0264 19.4661 19.9823 19.5335 19.9445C19.5894 19.9132 19.6731 19.8671 19.7368 19.8467L19.738 19.8463C19.7506 19.8422 19.8041 19.8248 19.8695 19.8298C19.9058 19.8326 19.9914 19.8458 20.0629 19.9187C20.1422 19.9997 20.148 20.0954 20.141 20.1497C20.1346 20.1993 20.1162 20.2357 20.1074 20.2517C20.097 20.2708 20.0861 20.286 20.0783 20.2962C20.0627 20.3167 20.0455 20.335 20.0312 20.3496C19.5755 20.8108 19.1895 21.3341 18.8033 21.8744C18.8423 21.8425 18.895 21.8083 18.9594 21.7901C19.0329 21.7694 19.1209 21.7694 19.2064 21.8085C19.2841 21.8441 19.3331 21.8998 19.3625 21.9431C19.4176 22.0241 19.4492 22.1286 19.4723 22.2305C19.4972 22.3405 19.5194 22.4826 19.5401 22.662C19.5677 22.9006 19.6046 23.0339 19.6377 23.1016C19.665 23.0902 19.7092 23.0682 19.7745 23.0258C19.8901 22.9509 20.0283 22.8424 20.203 22.7034C20.248 22.6676 20.2909 22.636 20.33 22.612C20.3494 22.6001 20.3738 22.5863 20.4013 22.5747C20.4223 22.5659 20.4764 22.5444 20.546 22.5462C20.585 22.5472 20.6399 22.5557 20.6955 22.5881C20.7543 22.6222 20.7943 22.6716 20.8169 22.7229C20.8553 22.81 20.8379 22.8878 20.8326 22.91C20.8192 22.9668 20.7907 23.017 20.7746 23.0442C20.7009 23.1682 20.5425 23.3622 20.3708 23.5485C20.1959 23.7382 19.9849 23.9441 19.7943 24.0881C19.7017 24.158 19.596 24.2274 19.4904 24.2669C19.4049 24.2989 19.1815 24.3586 19.0187 24.1825C18.8274 23.9756 18.7976 23.6806 18.7935 23.4718C18.7912 23.3578 18.797 23.2449 18.8027 23.148C18.8037 23.1316 18.8046 23.1158 18.8055 23.1006C18.8103 23.0215 18.8141 22.9589 18.8141 22.9071C18.8141 22.8902 18.8122 22.7773 18.8092 22.6394C18.7577 22.6629 18.697 22.6808 18.628 22.6843C18.6015 22.6857 18.5756 22.6848 18.5504 22.682C18.4552 22.7507 18.3578 22.8267 18.2594 22.9081C18.0391 23.0904 17.8284 23.2876 17.6434 23.4665C17.4915 23.6703 17.3367 23.8737 17.1767 24.0731C17.1684 24.0835 17.1566 24.0977 17.1429 24.1116C17.1365 24.1181 17.1239 24.1304 17.1068 24.1434C17.1066 24.1435 17.1064 24.1437 17.1061 24.1439C17.0987 24.1497 17.0427 24.1933 16.9577 24.203C16.8995 24.2095 16.8139 24.2011 16.7378 24.1412C16.6681 24.0863 16.6449 24.018 16.6369 23.9824C16.6233 23.9215 16.6347 23.8715 16.6369 23.8618L16.6371 23.8609C16.6438 23.831 16.6545 23.8065 16.658 23.7984L16.6581 23.7983C16.6759 23.7575 16.7079 23.7009 16.7383 23.6502C16.797 23.5524 16.9003 23.3926 16.9858 23.3086C16.9968 23.2979 17.0079 23.287 17.0192 23.2759C17.0736 23.2224 17.1329 23.1643 17.196 23.1029C17.2825 22.9865 17.3687 22.8693 17.4554 22.7513C17.5415 22.6342 17.6281 22.5163 17.7162 22.3977C17.8294 22.2453 17.9426 22.088 18.0569 21.9279C18.0547 21.7758 18.0677 21.6093 18.0867 21.448C17.9853 21.5126 17.8838 21.5776 17.782 21.643C17.4649 21.8464 17.1443 22.052 16.8121 22.2513C16.6452 22.3514 16.3732 22.5744 16.1031 22.7958C16.0319 22.8542 15.9608 22.9124 15.8919 22.9683C15.7422 23.0895 15.5877 23.2115 15.4845 23.2696C15.4601 23.2833 15.4138 23.3081 15.3584 23.3209C15.3315 23.3271 15.2734 23.3375 15.2041 23.3205C15.1189 23.2997 15.041 23.2425 15.0011 23.1553C14.9686 23.0844 14.9738 23.0203 14.978 22.9906C14.9828 22.9568 14.9923 22.9284 14.9998 22.9091C15.0148 22.8703 15.0359 22.8319 15.0563 22.7979C15.1362 22.6653 15.2172 22.533 15.299 22.401C15.2877 22.4112 15.2764 22.4214 15.2652 22.4315C15.1785 22.5099 15.0946 22.5854 15.0323 22.641C15.0013 22.6686 14.975 22.692 14.9561 22.7085C14.9515 22.7125 14.9468 22.7165 14.9425 22.7203C14.9383 22.7239 14.9343 22.7272 14.9307 22.7302C14.9279 22.7326 14.9213 22.7381 14.9137 22.7437L14.9135 22.7439C14.9116 22.7453 14.8983 22.7554 14.8806 22.7653C14.8751 22.7684 14.8646 22.7741 14.8509 22.7799C14.8416 22.7839 14.809 22.7976 14.7643 22.8022C14.7285 22.8059 14.5816 22.8118 14.4895 22.6782C14.4158 22.5712 14.4467 22.465 14.4514 22.4487L14.4516 22.448C14.5344 22.1613 14.6909 21.8886 14.8864 21.633C14.3611 21.987 13.8485 22.3433 13.3676 22.7266C12.9684 23.0448 12.9202 23.0924 12.7937 23.2177C12.7337 23.2771 12.656 23.354 12.5147 23.4857C12.5146 23.4859 12.5144 23.4861 12.5142 23.4863C12.5139 23.4867 12.5133 23.4875 12.5125 23.4886C12.5072 23.4957 12.4926 23.5152 12.4792 23.5309L12.4791 23.531C12.4566 23.5574 12.3462 23.6868 12.1566 23.664C12.1088 23.6582 11.9969 23.6355 11.9226 23.5303C11.8449 23.4205 11.869 23.3085 11.8845 23.2616C11.8939 23.2333 11.9064 23.2085 11.9183 23.1882C11.8856 23.1109 11.8886 23.0357 11.8975 22.9848C11.9185 22.8659 11.9939 22.7529 12.0445 22.6821C12.0707 22.6454 12.0994 22.6079 12.1285 22.5713C12.0802 22.5433 12.046 22.5058 12.0237 22.469C11.9814 22.3991 11.9812 22.3322 11.9817 22.3088C11.9829 22.2548 11.9982 22.2058 12.0063 22.1813C12.0168 22.1498 12.0301 22.1164 12.0441 22.084C12.0696 22.025 12.1028 21.9565 12.139 21.8854C11.9706 22.0702 11.8072 22.2586 11.6498 22.4511C11.5481 22.5754 11.4808 22.6598 11.4408 22.7102C11.4342 22.7186 11.428 22.7263 11.4225 22.7333C11.412 22.7466 11.4037 22.7571 11.3983 22.7638L11.3906 22.7732L11.3848 22.7801L11.3847 22.7801C11.3832 22.7819 11.3774 22.7885 11.3696 22.7962C11.3668 22.7989 11.3557 22.81 11.3396 22.822C11.3328 22.8271 11.313 22.8417 11.2843 22.8546C11.2841 22.8547 11.2838 22.8549 11.2834 22.855C11.2699 22.8613 11.1644 22.9099 11.041 22.8568C10.8786 22.7869 10.8686 22.6342 10.8683 22.6037C10.8678 22.561 10.8778 22.5287 10.8805 22.5201L10.8805 22.5201C10.8876 22.4972 10.8963 22.4803 10.8979 22.4771C10.9033 22.4666 10.9083 22.4584 10.9096 22.4564L10.9096 22.4562L10.9146 22.4484C10.9195 22.4408 10.9275 22.4292 10.9381 22.4138C10.9761 22.3581 11.0487 22.2521 11.142 22.0984C11.168 22.0555 11.194 22.0127 11.22 21.9698C11.0379 22.0836 10.8541 22.1954 10.6681 22.3036C10.6217 22.3307 10.5711 22.3569 10.5204 22.3746C10.4948 22.3834 10.4602 22.3934 10.4201 22.3974C10.3817 22.4013 10.318 22.4018 10.2493 22.3722C10.1363 22.3235 10.0902 22.2383 10.0728 22.1662C10.0608 22.1854 10.0489 22.2045 10.0371 22.2235C10.0018 22.2801 9.96704 22.336 9.93289 22.3908C9.61265 22.905 9.34583 23.3335 9.19745 23.5566C9.15702 23.6175 9.12075 23.6701 9.09285 23.706L9.09205 23.707C9.08275 23.719 9.0568 23.7524 9.02304 23.7796C9.01302 23.7877 8.99014 23.8053 8.95715 23.8203C8.93199 23.8318 8.84449 23.8681 8.73639 23.8329C8.60858 23.7913 8.56105 23.6891 8.54685 23.6384C8.5336 23.5909 8.53653 23.5517 8.53784 23.5374C8.54233 23.4887 8.56045 23.4437 8.56585 23.4303C8.56613 23.4296 8.56638 23.429 8.56658 23.4285C8.5759 23.4052 8.58799 23.3781 8.60175 23.3486C8.62954 23.2891 8.66993 23.2078 8.72322 23.1039C8.94195 22.6775 9.17171 22.2521 9.41317 21.8309C9.39275 21.8369 9.37135 21.8419 9.34926 21.8452C9.33637 21.8472 9.32141 21.8486 9.30496 21.8492C9.04367 22.0177 8.75417 22.2013 8.46858 22.376C8.0472 22.6338 7.6186 22.8823 7.27885 23.0473C7.11137 23.1286 6.95105 23.1968 6.81767 23.233C6.75299 23.2505 6.67354 23.2666 6.59324 23.2628C6.51479 23.2592 6.37329 23.2315 6.28801 23.0982C6.14639 22.8769 6.17806 22.6048 6.23644 22.3904C6.24808 22.3476 6.26158 22.3043 6.27668 22.2606C6.24905 22.2763 6.22148 22.2919 6.19396 22.3074C5.98928 22.4231 5.78799 22.5369 5.59484 22.6497C5.55904 22.6706 5.50099 22.7141 5.41993 22.7789C5.39981 22.795 5.37834 22.8123 5.35614 22.8303C5.29788 22.8773 5.23461 22.9284 5.17755 22.9715C5.13718 23.002 5.09447 23.0328 5.05278 23.059C5.01494 23.0828 4.96095 23.1139 4.90062 23.1327C4.85926 23.1455 4.69075 23.191 4.55469 23.0619C4.47742 22.9887 4.45835 22.9007 4.45596 22.8373C4.21224 23.0286 3.80785 23.3192 3.40586 23.5483C3.13948 23.7001 2.84793 23.8403 2.59249 23.8965C2.46562 23.9243 2.31686 23.9387 2.17472 23.8986C2.01507 23.8536 1.88841 23.7461 1.82513 23.5857C1.78645 23.4877 1.75627 23.3901 1.73397 23.293C1.65042 23.3483 1.57891 23.3936 1.52487 23.4245C1.49485 23.4417 1.45424 23.4639 1.41417 23.4787L1.41296 23.4791C1.39993 23.484 1.34394 23.5048 1.27426 23.5006C1.23344 23.4981 1.14754 23.4843 1.07613 23.4114C1.00041 23.3341 0.992365 23.2437 0.996467 23.1932C1.0027 23.1164 1.04069 23.0604 1.04825 23.0493C1.04857 23.0488 1.04883 23.0484 1.04903 23.0481C1.06308 23.0271 1.07859 23.0083 1.09129 22.9938C1.11743 22.9638 1.15164 22.9292 1.19118 22.8911C1.29069 22.7955 1.43157 22.7545 1.50319 22.7351C1.52557 22.7291 1.54781 22.7236 1.5688 22.7186C1.60978 22.6905 1.65316 22.6606 1.69861 22.6289C1.71654 22.4771 1.75155 22.3276 1.80103 22.1812C1.79909 22.1822 1.79713 22.1832 1.79514 22.1841C1.75412 22.2035 1.68149 22.2258 1.59413 22.2047C1.50539 22.1832 1.45098 22.1291 1.42313 22.0897C1.37977 22.0284 1.37414 21.9671 1.37316 21.9565C1.37313 21.9561 1.3731 21.9558 1.37307 21.9555C1.36975 21.9222 1.37313 21.8932 1.37413 21.8846L1.37419 21.8841C1.37709 21.8591 1.38249 21.8316 1.38713 21.8096C1.40572 21.7215 1.44414 21.5768 1.46108 21.5279C1.55709 21.2509 1.69764 20.9859 1.86189 20.7348C1.98892 20.4748 2.12746 20.2197 2.27778 19.9711C2.73109 19.2214 3.38615 18.5937 4.13588 18.1134C4.53294 17.6728 4.94104 17.2322 5.36506 16.8225C6.26455 15.9533 7.27705 15.1783 8.51722 14.7376C8.66844 14.6839 8.83634 14.7582 8.89222 14.9036C8.94811 15.049 8.87082 15.2104 8.7196 15.2642C7.59163 15.665 6.64936 16.3773 5.77891 17.2184C5.71502 17.2801 5.65174 17.3423 5.589 17.4049C5.74583 17.3497 5.88286 17.3123 6.0001 17.2957C6.10954 17.2802 6.24628 17.2759 6.36868 17.3349C6.48967 17.3931 6.5553 17.4911 6.58044 17.5922C6.72523 17.4614 6.87438 17.3319 7.02734 17.2043ZM5.31087 18.7148C5.34348 18.6713 5.37592 18.6276 5.40817 18.5839C5.45771 18.5167 5.50573 18.4538 5.55439 18.39C5.61561 18.3097 5.67784 18.2281 5.74543 18.1351C5.81006 18.0461 5.86613 17.9643 5.91027 17.8925C5.87338 17.9036 5.83214 17.9171 5.78622 17.9333C5.3477 18.0882 4.92113 18.2922 4.52442 18.5395C4.41758 18.6585 4.31114 18.7778 4.20469 18.8971C3.90521 19.2328 3.60564 19.5686 3.29667 19.8975C2.96816 20.2472 2.63426 20.6158 2.37578 21.0033C2.30366 21.1523 2.23542 21.3031 2.17103 21.4554C2.44244 21.0552 2.80466 20.6816 3.197 20.3402C3.73346 19.8734 4.35478 19.4446 4.91727 19.0784C4.92119 19.0746 4.92511 19.0708 4.92904 19.067C5.05413 18.946 5.18275 18.8283 5.31087 18.7148ZM3.83003 20.5536C3.74824 20.6201 3.66768 20.6878 3.58874 20.7564C3.10414 21.1781 2.70646 21.6197 2.4781 22.0678C2.47638 22.0712 2.47467 22.0746 2.47297 22.078C2.55555 22.0185 2.63718 21.9595 2.71634 21.9023C2.85358 21.7452 2.98109 21.5854 3.10307 21.4324C3.18059 21.3352 3.25588 21.2408 3.33 21.1517C3.46226 20.9928 3.59495 20.8343 3.7275 20.676C3.76169 20.6352 3.79587 20.5944 3.83003 20.5536ZM2.2813 23.0465C2.54683 22.8899 2.78414 22.6724 2.98875 22.4559C3.03262 22.4095 3.07603 22.3619 3.11883 22.3137C3.14271 22.2964 3.16632 22.2794 3.18959 22.2626C3.37517 22.1284 3.53987 22.0094 3.65973 21.924C3.97274 21.7009 4.30208 21.4816 4.63984 21.2578C4.66567 21.2407 4.69156 21.2235 4.71748 21.2063C5.02928 20.9998 5.34742 20.789 5.65973 20.5712C5.69887 20.5439 5.73797 20.5165 5.777 20.4889C5.5705 20.7052 5.36515 20.9376 5.18028 21.1835C5.03367 21.3786 4.89741 21.5854 4.78268 21.803C4.59749 21.9581 4.41647 22.1154 4.24097 22.2753C4.11961 22.3858 3.61179 22.7784 3.10821 23.0654C2.85343 23.2106 2.62596 23.3133 2.46244 23.3492C2.41342 23.36 2.38091 23.3622 2.36152 23.362C2.32197 23.2566 2.29551 23.1515 2.2813 23.0465ZM5.22772 22.2107C5.23667 22.1911 5.24588 22.1715 5.25534 22.1519C5.95357 21.5742 6.71036 21.0281 7.46516 20.4888C7.41996 20.5293 7.37548 20.5705 7.33182 20.6124C7.19462 20.7444 6.978 21.011 6.77164 21.3196C6.4945 21.4861 6.20889 21.6475 5.9218 21.8099C5.71169 21.9286 5.50079 22.0479 5.29185 22.1699C5.27112 22.182 5.24959 22.1958 5.22772 22.2107ZM7.19538 21.7261C7.14758 21.801 7.10074 21.8783 7.05642 21.9565C6.93829 22.165 6.84669 22.3655 6.80122 22.5325C6.78841 22.5796 6.7805 22.6194 6.77597 22.6529C6.84189 22.6271 6.922 22.5917 7.01568 22.5462C7.10574 22.5024 7.20373 22.4517 7.30759 22.3956C7.1614 22.3395 7.11996 22.2086 7.11031 22.1501C7.09982 22.0866 7.10829 22.0268 7.11594 21.9876C7.12455 21.9434 7.13799 21.8973 7.15357 21.8519C7.16761 21.811 7.18469 21.767 7.20437 21.7206C7.20137 21.7224 7.19838 21.7243 7.19538 21.7261ZM7.68867 22.0979C7.68865 22.0979 7.68871 22.0972 7.68894 22.0957C7.68881 22.0972 7.68869 22.098 7.68867 22.0979ZM8.66498 20.6264C8.7081 20.5902 8.75127 20.5542 8.79445 20.5183C8.81835 20.4985 8.84223 20.4787 8.86609 20.4589C8.85525 20.4613 8.84339 20.4632 8.83062 20.4644C8.77612 20.5193 8.72089 20.5733 8.66498 20.6264ZM10.2947 18.4225C10.4136 18.3091 10.5248 18.1903 10.6269 18.0641C10.7489 17.9132 10.8737 17.7637 10.9989 17.6137C11.2507 17.312 11.5043 17.0081 11.7408 16.6871C11.9729 16.3718 12.1779 16.0533 12.3328 15.7282C11.8278 16.0746 11.3532 16.4639 10.8713 16.8605C10.8588 16.8873 10.8463 16.9141 10.8338 16.9409L10.8297 16.9499C10.7105 17.4554 10.5283 17.9502 10.2947 18.4225ZM9.77669 17.743C8.777 18.5373 7.78538 19.3482 6.87044 20.2144C7.01926 20.1076 7.16773 20.0017 7.31526 19.8964C7.61333 19.6836 7.90759 19.4736 8.19333 19.2653C8.20093 19.2598 8.21702 19.2472 8.23955 19.2297C8.34363 19.1486 8.58507 18.9604 8.76085 18.8613C8.81514 18.8308 8.88718 18.7942 8.96187 18.7756C8.99853 18.7665 9.06073 18.7551 9.13225 18.7679C9.15177 18.7713 9.17164 18.7766 9.19133 18.7839C9.28175 18.6216 9.37317 18.46 9.46403 18.2994C9.56984 18.1125 9.67488 17.9268 9.77669 17.743ZM11.9252 15.2638C11.9263 15.2632 11.9268 15.263 11.9268 15.263C11.9268 15.263 11.9263 15.2633 11.9252 15.2638ZM9.86986 15.9887C9.1323 16.3622 8.40664 16.8375 7.74049 17.3607C7.86291 17.297 7.9851 17.2341 8.10661 17.1715L8.12692 17.1611C8.48586 16.9764 8.8387 16.7948 9.18025 16.6034C9.25547 16.5364 9.3307 16.4695 9.40587 16.4026C9.56096 16.2647 9.71582 16.1269 9.86986 15.9887ZM7.61567 18.0676C7.23334 18.2741 6.86207 18.4892 6.509 18.7298C6.31035 18.8651 6.07217 19.016 5.81078 19.1816C5.80027 19.1883 5.78973 19.1949 5.77916 19.2016C5.47306 19.5331 5.17756 19.8735 4.89434 20.2221C4.83714 20.2925 4.7561 20.4181 4.66816 20.557C4.88613 20.4119 5.10303 20.266 5.31693 20.1168C5.98013 19.6542 6.60049 19.1699 7.10141 18.613C7.26935 18.4263 7.44109 18.2449 7.61567 18.0676ZM10.3128 16.5768C10.3123 16.5771 10.3117 16.5775 10.3112 16.5779C10.058 16.7483 9.79641 16.9062 9.53121 17.0563C9.0925 17.4475 8.662 17.8369 8.2466 18.2463C8.74432 17.8348 9.2484 17.4333 9.74887 17.0376C9.93496 16.8905 10.1224 16.7373 10.3119 16.5815C10.3122 16.5799 10.3125 16.5783 10.3128 16.5768ZM9.2332 20.1572C9.56124 19.8884 9.88224 19.625 10.1873 19.3526C10.4945 19.0783 11.116 18.5516 11.5971 18.17C11.8327 17.9832 12.0508 17.8182 12.1812 17.7399C12.2116 17.7217 12.2569 17.6959 12.3051 17.6797C12.3191 17.675 12.3609 17.6611 12.416 17.6609C12.6135 17.4368 12.8714 17.149 13.1336 16.8706C13.2341 16.7639 13.3362 16.6575 13.4367 16.5558C13.028 16.8438 12.6294 17.1704 12.2345 17.5127C11.9929 17.7221 11.7483 17.9416 11.5038 18.161C11.1569 18.4722 10.8102 18.7832 10.4727 19.0651C10.4568 19.0784 10.4409 19.0917 10.425 19.1049C10.0086 19.4528 9.60455 19.7902 9.2332 20.1572ZM9.12946 20.9819C8.73943 21.3071 8.36469 21.6342 8.02844 21.9795C8.07053 21.9541 8.1128 21.9283 8.15517 21.9024C8.43443 21.7316 8.71089 21.5564 8.96068 21.3954C8.97274 21.3417 8.99199 21.2862 9.01417 21.2315C9.04862 21.1465 9.08721 21.0633 9.12946 20.9819ZM8.62243 23.3734C8.62082 23.3754 8.62004 23.3763 8.62005 23.3763C8.62005 23.3762 8.62087 23.3752 8.62243 23.3734ZM9.11042 23.6327C9.10942 23.6359 9.10872 23.6378 9.10862 23.6379C9.10851 23.638 9.10901 23.6364 9.11042 23.6327ZM12.6812 19.3558C12.6656 19.3901 12.6488 19.4214 12.6343 19.4475C12.552 19.5952 12.4176 19.7844 12.2909 19.9565C12.2288 20.0408 12.1694 20.1198 12.115 20.1923C12.0516 20.2768 11.9948 20.3523 11.9483 20.4169C11.8375 20.5705 11.6654 20.7861 11.4859 21.0099C11.4689 21.0311 11.4518 21.0524 11.4347 21.0737C11.3875 21.1324 11.34 21.1917 11.2928 21.2507C11.4748 21.1334 11.6566 21.0143 11.8395 20.8945C11.8569 20.8831 11.8743 20.8717 11.8917 20.8603C12.2401 20.2816 12.5846 19.7009 12.9177 19.1165C12.839 19.1983 12.7602 19.278 12.6812 19.3558ZM14.0149 17.0326C13.98 17.1116 13.9443 17.1894 13.9093 17.2636C13.781 17.3963 13.652 17.5286 13.5225 17.6612L13.4838 17.7009C13.1865 18.0054 12.8869 18.3123 12.5914 18.6276C12.5271 18.6961 12.4628 18.7631 12.3984 18.8286C12.3815 18.8288 12.3666 18.83 12.3546 18.8315C12.3076 18.8372 12.2638 18.8508 12.2266 18.8655C12.2551 18.8272 12.2828 18.7907 12.3095 18.7561C12.3929 18.6478 13.0645 17.8977 13.7608 17.2592C13.8465 17.1806 13.9315 17.1047 14.0149 17.0326ZM10.6392 22.1421C10.6392 22.1421 10.6394 22.1415 10.64 22.1401C10.6395 22.1414 10.6392 22.1421 10.6392 22.1421ZM10.3433 20.3236C10.3119 20.3706 10.2808 20.4178 10.2498 20.4651C10.182 20.5268 10.1154 20.5873 10.0506 20.6455C10.1413 20.5368 10.2393 20.4297 10.3433 20.3236ZM10.9328 22.4249C10.9329 22.4247 10.9337 22.4237 10.9351 22.4221C10.9333 22.4243 10.9326 22.4251 10.9328 22.4249ZM12.1742 22.8775C12.1743 22.8775 12.1746 22.8772 12.1751 22.8768C12.1745 22.8774 12.1742 22.8776 12.1742 22.8775ZM12.4221 23.4716C12.4222 23.4715 12.4224 23.4713 12.4226 23.471C12.4216 23.4725 12.4213 23.4727 12.4221 23.4716ZM15.0147 22.5961C15.0145 22.5968 15.0143 22.5975 15.0141 22.5982L15.0143 22.5975C15.0145 22.5971 15.0146 22.5966 15.0147 22.5961ZM16.8637 21.0183C16.821 21.0883 16.7782 21.1569 16.7353 21.2234C16.7084 21.2651 16.6814 21.3068 16.6545 21.3484C16.5303 21.5406 16.4061 21.7328 16.2827 21.9252C16.3638 21.8654 16.4389 21.8136 16.503 21.7751C16.8027 21.5953 17.1086 21.3994 17.4196 21.2001C17.679 21.0339 17.9419 20.8655 18.2078 20.7022C18.2114 20.683 18.2149 20.6647 18.2183 20.6472C18.2353 20.558 18.2479 20.4921 18.2539 20.4511C18.2698 20.3413 18.3047 20.2123 18.3344 20.1023C18.3383 20.0876 18.3422 20.0733 18.346 20.0594C18.3552 20.0247 18.3637 19.9923 18.3713 19.9622C17.8553 20.2652 17.3487 20.6281 16.8637 21.0183ZM18.587 19.8595C18.587 19.8596 18.5863 19.8597 18.5849 19.8598C18.5864 19.8596 18.587 19.8595 18.587 19.8595ZM15.1844 22.7879C15.1844 22.7878 15.1853 22.7873 15.187 22.7865C15.1851 22.7875 15.1843 22.7879 15.1844 22.7879ZM14.039 20.9979C14.2059 20.796 14.3765 20.5958 14.5499 20.3966C14.7566 20.2146 14.9683 20.0398 15.184 19.8755C14.8156 20.255 14.4304 20.6235 14.0406 20.9963C14.0401 20.9969 14.0395 20.9974 14.039 20.9979ZM19.3904 23.6305C19.4044 23.6368 19.4186 23.6423 19.4329 23.6472C19.4206 23.6565 19.409 23.665 19.398 23.6728C19.3953 23.6596 19.3927 23.6455 19.3904 23.6305ZM19.269 23.747C19.269 23.7469 19.2703 23.7465 19.2726 23.7459C19.2701 23.7467 19.2689 23.747 19.269 23.747ZM20.2738 22.7546C20.2738 22.7546 20.2736 22.7552 20.2729 22.7565C20.2734 22.7553 20.2738 22.7546 20.2738 22.7546Z" fill="#79747A"/>
<path fill-rule="evenodd" clip-rule="evenodd" d="M16.3803 16.2504C16.4766 16.3748 16.4499 16.5506 16.3206 16.6432C15.839 16.9882 15.5279 17.3782 15.2288 17.8613C15.2669 17.8285 15.3028 17.7981 15.3353 17.7716C15.382 17.7334 15.7846 17.4176 16.1794 17.1242C16.3766 16.9776 16.5766 16.833 16.7313 16.7305C16.807 16.6804 16.8805 16.6345 16.9407 16.6037C16.9673 16.5902 17.0107 16.5692 17.0591 16.5573C17.0802 16.5521 17.1344 16.5402 17.2002 16.552C17.2852 16.5671 17.3897 16.625 17.4313 16.7448C17.464 16.8393 17.4613 16.9338 17.4504 17.0095C17.4392 17.0877 17.4159 17.1667 17.3886 17.2411C17.334 17.3895 17.2518 17.5492 17.1685 17.6966C17.0879 17.8394 17.0009 17.9801 16.928 18.0979L16.919 18.1124C16.8397 18.2407 16.7873 18.3268 16.7649 18.3735C16.7026 18.5037 16.6408 18.6337 16.5806 18.7637C16.9096 18.539 17.2782 18.3361 17.5475 18.2066C17.6917 18.1373 17.8671 18.1935 17.9392 18.3321C18.0113 18.4708 17.9528 18.6394 17.8086 18.7087C17.3881 18.9109 16.7711 19.2755 16.4762 19.5757C16.4775 19.5744 16.4773 19.5747 16.4754 19.577C16.4721 19.5811 16.4636 19.5917 16.4485 19.612C16.4282 19.6392 16.4036 19.6737 16.3752 19.7136C16.3701 19.7207 16.365 19.728 16.3597 19.7353C16.3079 19.8083 16.2465 19.8947 16.192 19.9647C16.1625 20.0026 16.1294 20.0431 16.0971 20.0763C16.0815 20.0923 16.059 20.114 16.0318 20.1338C16.0315 20.134 16.0311 20.1343 16.0307 20.1346C16.0151 20.1461 15.9432 20.1987 15.839 20.1999C15.7698 20.2008 15.6923 20.1785 15.6296 20.1222C15.5735 20.0719 15.5513 20.0143 15.542 19.9802C15.5251 19.9178 15.5323 19.8618 15.5356 19.8391C15.5437 19.7825 15.5638 19.7158 15.5878 19.6467C15.7683 19.126 16.0035 18.6217 16.2345 18.1389C16.2725 18.0596 16.3437 17.9443 16.4139 17.831L16.4246 17.8136C16.4819 17.7209 16.544 17.6206 16.6039 17.5183C16.5816 17.5348 16.5591 17.5515 16.5365 17.5683C16.146 17.8586 15.7509 18.1687 15.7132 18.1995C15.6395 18.2597 15.548 18.3404 15.4455 18.4308C15.4011 18.4699 15.3547 18.5108 15.3067 18.5527C15.1557 18.6847 14.9881 18.8274 14.8521 18.9198C14.7912 18.9612 14.7035 19.0163 14.6115 19.0399C14.5671 19.0512 14.4677 19.0698 14.3627 19.0201C14.2377 18.961 14.1931 18.8506 14.1819 18.7755C14.1719 18.708 14.183 18.6453 14.1936 18.6019C14.2053 18.5542 14.2232 18.5038 14.2445 18.4522C14.2871 18.3489 14.3529 18.219 14.4427 18.0596C14.8487 17.339 15.2365 16.7199 15.9718 16.1931C16.101 16.1005 16.2839 16.1261 16.3803 16.2504Z" fill="#79747A"/>
<path fill-rule="evenodd" clip-rule="evenodd" d="M11.6568 21.3372C11.76 21.4563 11.7433 21.6333 11.6194 21.7325C11.5602 21.7799 11.5 21.8284 11.4387 21.8777C10.4975 22.6345 9.31623 23.5844 8.09694 23.9561C7.9557 23.9992 7.77944 24.0107 7.62666 23.9062C7.48449 23.809 7.43533 23.6591 7.41654 23.5511C7.37911 23.3359 7.42413 23.057 7.47379 22.8227C7.49965 22.7008 7.53117 22.573 7.56114 22.4551C7.51509 22.4896 7.46723 22.527 7.41738 22.5671C7.37642 22.6 7.33374 22.635 7.28976 22.6711C7.10539 22.8225 6.89825 22.9926 6.70021 23.1014C6.29542 23.3238 5.86027 23.5182 5.39747 23.6439C5.37969 23.6488 5.33404 23.6641 5.26062 23.6888C5.23098 23.6988 5.19682 23.7103 5.15813 23.7233C5.03306 23.7651 4.876 23.8167 4.72007 23.8624C4.56696 23.9073 4.4031 23.9502 4.2676 23.9708C4.20228 23.9808 4.12455 23.9887 4.05097 23.982C4.00468 23.9777 3.81891 23.9562 3.74047 23.7803C3.67697 23.6378 3.74561 23.4728 3.89379 23.4117C3.97749 23.3772 4.06866 23.3833 4.1436 23.4207C4.15305 23.4197 4.16388 23.4183 4.17613 23.4164C4.26997 23.4021 4.4021 23.3688 4.54973 23.3255C4.69455 23.283 4.84299 23.2343 4.96628 23.1931C4.99206 23.1844 5.01772 23.1758 5.04253 23.1674C5.12727 23.1389 5.20218 23.1137 5.2387 23.1037C5.64316 22.9938 6.03377 22.821 6.41055 22.614C6.55613 22.534 6.70711 22.4104 6.88665 22.2635C6.93644 22.2227 6.98843 22.1802 7.04311 22.1363C7.27088 21.9533 7.55413 21.74 7.86149 21.6611C7.92353 21.6452 8.01772 21.6416 8.10826 21.697C8.1905 21.7473 8.22409 21.8192 8.23748 21.8579C8.26187 21.9283 8.2567 21.9973 8.25428 22.026C8.24803 22.0999 8.22737 22.1935 8.20597 22.2821C8.18926 22.3514 8.17056 22.424 8.15118 22.4992C8.1157 22.6369 8.07793 22.7835 8.04584 22.9349C8.00365 23.1338 7.98268 23.2942 7.98669 23.4002C9.06884 23.0491 10.1424 22.1871 11.0905 21.4258C11.1426 21.3839 11.1944 21.3424 11.2457 21.3013C11.3695 21.202 11.5536 21.2181 11.6568 21.3372ZM7.99919 23.4852C7.99916 23.4853 7.99884 23.4846 7.99832 23.4832C7.99895 23.4845 7.99922 23.4852 7.99919 23.4852ZM7.67269 21.9733C7.67277 21.9733 7.6728 21.9749 7.67254 21.9785C7.67248 21.9752 7.67261 21.9734 7.67269 21.9733Z" fill="#79747A"/>
</svg>
